 <svg version="1.0" xmlns="http://www.w3.org/2000/svg" width="700.000000pt" height="196.000000pt" viewBox="0 0 700.000000 196.000000" preserveAspectRatio="xMidYMid meet">
<metadata>
Created by potrace 1.12, written by Peter Selinger 2001-2015
</metadata>
<g transform="translate(0.000000,196.000000) scale(0.100000,-0.100000)" fill="#000000" stroke="none">
<path d="M1959 1923 c-5 -15 -20 -23 -51 -28 -24 -4 -50 -12 -58 -17 -10 -6
-4 -7 20 -4 167 26 727 49 1010 42 124 -4 268 -6 322 -6 60 1 99 -3 103 -10 5
-7 25 -9 61 -4 39 4 54 3 54 -6 0 -8 12 -10 39 -5 25 4 41 2 46 -5 4 -7 19 -9
36 -5 17 4 29 2 29 -3 0 -6 19 -13 42 -17 64 -11 114 -31 153 -61 20 -15 34
-28 32 -30 -1 -2 -39 8 -82 22 -110 35 -249 52 -535 65 -336 15 -900 -2 -1198
-36 -111 -12 -114 -13 -153 -51 -55 -53 -119 -138 -119 -156 0 -19 84 -114
114 -129 11 -6 -5 15 -36 48 -76 77 -76 92 2 180 63 71 87 90 98 78 4 -4 1
-10 -6 -12 -24 -9 -122 -134 -122 -157 0 -15 18 -40 48 -68 61 -57 73 -63 150
-78 34 -7 62 -17 62 -21 0 -5 11 -7 25 -3 15 4 25 2 25 -5 0 -6 11 -8 29 -5
22 5 32 1 44 -16 10 -14 17 -18 22 -10 4 7 22 9 51 4 43 -6 44 -6 44 21 0 23
2 26 15 15 8 -7 15 -18 15 -26 0 -21 31 -33 104 -40 36 -4 66 -10 66 -13 0 -3
55 -7 123 -9 67 -2 123 -7 125 -11 2 -5 20 -7 40 -4 20 2 132 -3 247 -12 116
-9 221 -17 235 -17 14 -1 156 -9 315 -19 160 -9 354 -20 433 -24 108 -6 142
-10 142 -21 0 -8 17 -15 44 -19 33 -5 52 -2 84 14 23 12 64 26 92 32 27 6 48
14 46 18 -3 4 -32 29 -65 55 -59 46 -83 46 -39 -1 20 -22 20 -23 2 -23 -27 0
-155 19 -177 26 -16 5 -18 14 -15 55 2 39 0 49 -11 47 -8 -2 -19 -16 -24 -33
-13 -41 -13 -41 -42 -12 -25 24 -25 26 -6 29 17 2 8 13 -47 56 -77 61 -141
132 -118 132 8 0 18 -5 21 -10 4 -6 22 -17 41 -25 19 -8 74 -40 121 -70 64
-42 93 -55 115 -53 29 3 26 6 -58 70 -185 138 -332 216 -443 234 -23 4 -41 11
-41 16 0 24 193 -44 294 -104 147 -85 518 -374 511 -395 -3 -8 5 -13 20 -13
14 0 25 5 25 10 0 6 -4 10 -9 10 -5 0 -72 52 -150 115 -159 129 -322 248 -395
290 -27 16 -44 31 -38 33 15 5 263 -145 402 -243 58 -41 109 -74 113 -75 15 0
-205 161 -323 238 -63 41 -127 83 -142 93 -15 11 -33 19 -39 19 -7 0 -33 13
-58 29 -119 77 -216 102 -466 120 -277 20 -513 23 -850 10 -407 -16 -405 -16
-415 0 -4 8 -29 14 -60 15 -45 1 -54 -2 -61 -21z m91 -13 c0 -5 -4 -10 -10
-10 -5 0 -10 5 -10 10 0 6 5 10 10 10 6 0 10 -4 10 -10z m627 -78 c-8 -11
-267 -14 -267 -2 0 6 51 10 136 10 74 0 133 -3 131 -8z m603 -2 c0 -12 -98
-12 -180 0 -46 6 -36 7 63 9 72 0 117 -3 117 -9z m-1020 -10 c0 -5 -4 -10 -10
-10 -5 0 -10 5 -10 10 0 6 5 10 10 10 6 0 10 -4 10 -10z m75 0 c-3 -5 -15 -10
-26 -10 -10 0 -19 5 -19 10 0 6 12 10 26 10 14 0 23 -4 19 -10z m1085 0 c0 -5
-18 -10 -40 -10 -22 0 -40 5 -40 10 0 6 18 10 40 10 22 0 40 -4 40 -10z
m-1245 -10 c-3 -5 -19 -10 -36 -10 -16 0 -29 5 -29 10 0 6 16 10 36 10 21 0
33 -4 29 -10z m1335 0 c0 -5 -9 -10 -19 -10 -11 0 -23 5 -26 10 -4 6 5 10 19
10 14 0 26 -4 26 -10z m-1445 -10 c-3 -5 -19 -10 -36 -10 -16 0 -29 5 -29 10
0 6 16 10 36 10 21 0 33 -4 29 -10z m1510 0 c8 -13 -15 -13 -35 0 -12 8 -11
10 7 10 12 0 25 -4 28 -10z m-1610 -10 c-3 -5 -17 -10 -31 -10 -13 0 -24 5
-24 10 0 6 14 10 31 10 17 0 28 -4 24 -10z m1054 -44 c6 -7 16 -53 21 -102 12
-108 30 -234 35 -254 3 -10 -4 -16 -23 -18 -42 -4 -299 18 -367 31 -33 6 -64
12 -70 12 -5 0 -11 9 -12 20 -2 11 0 14 3 8 8 -18 20 -16 78 11 28 13 68 27
89 31 60 12 52 22 -31 39 -130 28 -159 42 -165 79 -3 18 -10 54 -16 82 -6 27
-9 55 -6 62 7 20 448 18 464 -1z m-515 -12 c13 -34 19 -154 7 -154 -6 0 -11 3
-11 8 0 4 -7 38 -14 76 -8 38 -13 73 -10 78 8 13 21 9 28 -8z m1000 -10 c49
-8 115 -26 146 -38 69 -28 260 -156 278 -186 18 -30 27 -116 13 -124 -6 -4
-11 -11 -11 -17 0 -14 20 -11 36 6 19 18 37 20 31 3 -2 -7 -9 -12 -15 -11 -5
1 -9 -3 -9 -10 1 -42 -1 -43 -63 -37 -33 3 -64 2 -70 -4 -6 -6 -14 -5 -22 2
-17 13 -193 27 -351 27 l-117 0 -10 35 c-6 19 -10 41 -10 47 0 7 -13 55 -30
106 -16 52 -30 108 -30 124 0 17 -9 42 -21 57 -33 41 -17 50 80 42 47 -3 126
-13 175 -22z m-1365 4 c0 -7 -8 -33 -17 -57 l-17 -44 -63 -1 c-35 -1 -65 1
-68 5 -2 4 11 27 29 51 26 34 41 44 72 49 63 10 65 10 64 -3z m-144 -158 c30
-31 35 -40 21 -40 -18 0 -76 54 -76 71 0 18 17 8 55 -31z"></path>
<path d="M2680 1640 c0 -5 5 -10 10 -10 6 0 10 5 10 10 0 6 -4 10 -10 10 -5 0
-10 -4 -10 -10z"></path>
<path d="M2740 1640 c0 -5 7 -10 15 -10 8 0 15 5 15 10 0 6 -7 10 -15 10 -8 0
-15 -4 -15 -10z"></path>
<path d="M2820 1640 c0 -5 11 -10 25 -10 14 0 25 5 25 10 0 6 -11 10 -25 10
-14 0 -25 -4 -25 -10z"></path>
<path d="M2900 1640 c0 -5 23 -10 50 -10 28 0 50 5 50 10 0 6 -22 10 -50 10
-27 0 -50 -4 -50 -10z"></path>
<path d="M3520 1620 c0 -6 35 -10 85 -10 50 0 85 4 85 10 0 6 -35 10 -85 10
-50 0 -85 -4 -85 -10z"></path>
<path d="M3886 1491 c-4 -5 -9 -29 -11 -53 -5 -33 -1 -49 14 -68 11 -14 23
-21 28 -17 4 5 0 13 -10 18 -21 12 -23 63 -3 102 13 23 13 27 1 27 -8 0 -16
-4 -19 -9z"></path>
<path d="M1730 1860 c0 -5 7 -10 15 -10 8 0 15 5 15 10 0 6 -7 10 -15 10 -8 0
-15 -4 -15 -10z"></path>
<path d="M1790 1860 c0 -5 6 -10 14 -10 8 0 18 5 21 10 3 6 -3 10 -14 10 -12
0 -21 -4 -21 -10z"></path>
<path d="M1645 1855 c-5 -2 -27 -6 -48 -10 -38 -6 -38 -7 -32 -44 6 -36 4 -38
-47 -74 -29 -20 -96 -74 -148 -121 -52 -46 -96 -80 -98 -75 -6 14 -48 10 -62
-6 -7 -8 -10 -25 -6 -39 5 -20 0 -29 -26 -47 -28 -20 -31 -20 -16 -3 17 19 16
20 -29 22 -26 1 -68 8 -93 16 -25 8 -83 17 -130 21 -47 4 -101 13 -120 22 -58
24 -509 24 -667 -1 l-123 -20 0 -509 0 -509 183 4 c106 3 194 10 210 16 28 12
316 24 298 13 -5 -3 61 -6 147 -6 87 -1 164 -3 172 -6 8 -3 33 -9 55 -13 22
-5 68 -16 103 -27 95 -28 332 -71 351 -64 44 19 81 23 81 9 0 -8 -5 -14 -11
-14 -5 0 -7 -5 -3 -12 4 -6 3 -8 -4 -4 -6 3 -19 -5 -30 -19 -14 -17 -30 -25
-49 -25 -67 2 -198 -12 -201 -21 -2 -5 -8 -7 -13 -3 -5 3 -9 1 -9 -5 0 -6 -7
-8 -15 -5 -9 4 -15 0 -15 -7 0 -10 -3 -10 -8 -3 -6 10 -27 11 -75 5 -5 -1 -5
-6 -1 -13 5 -8 2 -9 -9 -5 -10 3 -17 2 -17 -3 0 -6 -7 -10 -15 -10 -8 0 -15
-4 -15 -10 0 -5 -7 -6 -17 -3 -10 4 -14 2 -10 -4 4 -6 0 -14 -9 -17 -8 -3 -12
-11 -8 -17 4 -7 3 -9 -4 -5 -6 3 -19 -2 -29 -13 -10 -10 -38 -24 -63 -31 -25
-7 -49 -15 -54 -18 -12 -7 -54 -11 -129 -14 -60 -1 -58 -17 2 -21 16 -1 27 -5
25 -8 -2 -3 -27 -4 -56 -2 -39 3 -49 2 -38 -6 8 -6 62 -11 120 -12 58 0 99 -3
92 -6 -6 -2 -10 -9 -6 -14 3 -5 0 -9 -5 -9 -6 0 -11 4 -11 10 0 5 -7 7 -15 4
-25 -10 -17 -19 20 -21 28 -2 35 1 35 15 1 16 1 16 11 0 14 -25 28 -22 23 4
-2 13 -2 17 2 11 3 -7 12 -13 20 -13 8 0 14 -5 14 -11 0 -5 4 -8 8 -5 4 2 14
1 22 -4 8 -5 21 -5 31 0 12 7 21 5 29 -5 6 -7 18 -11 26 -8 10 4 12 0 8 -11
-6 -15 195 -16 2486 -16 2577 0 2525 -1 2512 38 -2 6 4 12 13 12 9 0 13 4 10
10 -3 5 2 10 12 10 17 1 17 1 1 14 -10 7 -15 16 -11 19 3 4 -4 7 -16 7 -12 0
-20 4 -17 8 7 12 -38 10 -46 -2 -5 -7 -8 -4 -8 6 0 20 -20 26 -100 32 -32 2
-55 8 -55 15 0 6 -3 11 -7 11 -5 0 -13 0 -19 0 -5 0 -7 -6 -3 -13 5 -7 1 -6
-10 3 -10 8 -29 15 -43 16 -14 0 -29 7 -33 14 -4 7 -12 10 -18 6 -5 -3 -12 4
-15 16 -7 25 4 35 83 75 30 15 71 44 90 65 26 26 40 34 51 27 8 -5 25 -9 39
-10 l25 -1 -27 -12 c-28 -12 -28 -12 -7 -29 11 -10 33 -20 49 -24 16 -3 27 -9
24 -14 -3 -5 10 -9 28 -10 18 -1 49 -3 68 -6 107 -15 496 0 575 22 49 14 129
26 172 25 45 0 31 18 -20 26 l-52 9 63 3 62 3 0 386 0 385 -162 -6 c-90 -3
-307 -9 -483 -12 -370 -7 -383 -10 -369 -72 13 -61 10 -172 -5 -182 -11 -6
-10 -14 8 -39 12 -17 18 -31 12 -31 -6 0 -11 -6 -11 -12 0 -7 -15 -20 -33 -28
-26 -12 -41 -34 -82 -118 -27 -56 -54 -101 -60 -99 -5 2 -31 46 -57 99 -102
205 -261 300 -503 302 -266 2 -434 -114 -535 -369 -17 -44 -36 -86 -42 -92 -6
-8 -33 -13 -63 -13 -34 0 -55 5 -58 13 -3 9 -7 9 -19 0 -11 -9 -29 -10 -69 -3
-49 9 -993 59 -1234 66 -55 2 -107 5 -115 8 -8 2 -67 7 -130 10 -63 4 -147 9
-187 13 -50 4 -73 2 -73 -5 0 -6 21 -13 48 -15 26 -2 -14 -4 -89 -5 l-136 -2
-32 88 c-55 154 -122 236 -241 296 -38 19 -74 37 -81 42 -31 19 -290 29 -361
15 -131 -27 -253 -121 -317 -241 -18 -33 -35 -61 -39 -63 -12 -7 -354 68 -384
84 -10 5 -24 9 -32 9 -24 0 -26 15 -11 68 l15 50 35 -11 c26 -7 38 -7 49 2 9
7 15 16 14 19 -1 4 1 17 6 30 6 19 14 22 62 22 88 0 62 17 -34 22 -49 3 -96 9
-105 14 -14 8 -14 11 0 29 15 20 15 19 8 -3 -6 -22 -5 -23 14 -13 11 7 23 22
27 35 6 26 29 36 82 36 49 0 67 13 170 113 86 86 110 125 84 141 -4 2 -63 16
-132 31 -69 14 -129 30 -133 34 -17 17 5 53 41 69 48 22 102 63 102 77 0 13
62 75 74 75 5 0 3 -7 -4 -15 -7 -8 -8 -15 -3 -15 5 0 44 34 86 75 43 41 83 75
88 75 6 0 24 11 41 25 16 14 26 25 22 25 -4 0 -15 -7 -24 -15 -15 -13 -19 -12
-39 9 -30 32 -22 43 39 51 28 4 50 11 50 16 0 9 -25 11 -45 4z m-105 -160 c-7
-9 -15 -13 -19 -10 -3 3 1 10 9 15 21 14 24 12 10 -5z m-50 -39 c0 -3 -4 -8
-10 -11 -5 -3 -10 -1 -10 4 0 6 5 11 10 11 6 0 10 -2 10 -4z m-210 -343 c11
-10 -28 -23 -62 -21 -45 2 -48 10 -10 25 24 10 59 8 72 -4z m60 7 c0 -5 -9
-10 -20 -10 -11 0 -20 5 -20 10 0 6 9 10 20 10 11 0 20 -4 20 -10z m120 -10
c0 -5 -13 -10 -30 -10 -16 0 -30 5 -30 10 0 6 14 10 30 10 17 0 30 -4 30 -10z
m-99 -50 c30 0 22 -25 -21 -64 -41 -37 -66 -46 -68 -23 0 6 -4 22 -7 35 -6 17
-3 22 10 22 12 0 15 5 10 21 -7 20 -5 21 25 15 18 -3 41 -6 51 -6z m-281 -335
c0 -8 -9 -15 -21 -15 -11 0 -17 5 -14 10 4 6 11 8 16 5 5 -4 9 -1 9 4 0 6 2
11 5 11 3 0 5 -7 5 -15z m1058 -244 c180 -92 217 -337 72 -481 -115 -116 -299
-118 -414 -5 -111 110 -120 289 -21 410 32 40 138 106 149 94 4 -3 8 -30 10
-60 3 -30 9 -67 15 -82 17 -43 -4 -23 -44 43 -20 33 -41 60 -47 60 -26 0 -108
-88 -108 -117 0 -7 18 -22 40 -33 47 -24 50 -29 14 -22 -19 3 -25 1 -20 -7 4
-6 16 -11 27 -11 10 0 19 -4 19 -10 0 -5 -6 -10 -14 -10 -8 0 -16 -3 -19 -7
-2 -5 -2 -2 -1 5 2 6 -4 12 -14 12 -9 0 -27 3 -39 6 -18 5 -23 2 -23 -14 0
-11 6 -24 13 -29 18 -15 75 -24 82 -13 3 6 27 10 53 10 44 1 46 2 28 15 -19
14 -19 15 8 15 15 0 25 4 21 9 -3 5 -1 12 5 16 5 3 10 -1 10 -9 0 -9 7 -16 15
-16 16 0 20 -12 8 -23 -3 -4 -12 -2 -20 4 -10 9 -13 8 -13 -4 0 -16 -21 -25
-136 -53 l-71 -18 19 -46 c10 -25 30 -59 43 -75 l24 -30 82 83 c52 52 88 81
97 77 10 -3 12 -12 7 -28 -11 -36 -23 -119 -24 -166 l-1 -44 58 6 c31 2 69 10
84 17 l26 12 -44 95 c-47 101 -58 157 -27 132 13 -11 17 -11 20 -1 3 6 9 12
15 12 7 0 7 -4 0 -13 -15 -18 14 -61 35 -53 8 3 11 2 8 -4 -3 -5 3 -14 14 -19
29 -16 39 -13 17 4 -25 19 -18 19 27 0 20 -8 43 -15 50 -15 17 0 37 70 37 129
0 39 -1 40 -27 35 -68 -12 -153 -20 -153 -14 0 3 20 11 45 18 25 7 45 16 45
22 0 5 14 16 30 25 30 16 39 38 20 50 -6 4 -41 -12 -78 -35 l-67 -42 40 36
c25 22 34 35 25 36 -9 0 -22 -6 -30 -12 -7 -7 3 8 24 34 l37 47 -38 24 c-21
14 -55 30 -77 37 -45 14 -51 9 -62 -55 -6 -33 -8 -36 -15 -20 -7 18 -8 18 -9
-5 -2 -24 -2 -23 -10 5 -4 17 -11 42 -14 57 -3 14 -14 29 -24 32 -9 3 19 4 63
2 59 -2 91 -9 123 -25z m3059 -22 c-48 -11 -97 -37 -97 -50 0 -6 9 -24 21 -40
11 -16 16 -29 10 -29 -6 0 -11 4 -11 8 0 5 -7 9 -15 9 -16 0 -12 -11 19 -47
14 -16 5 -11 -26 13 -25 20 -51 37 -56 37 -16 0 -24 -33 -10 -41 7 -5 13 -14
13 -20 0 -7 27 -27 60 -46 62 -35 53 -36 -45 -7 -79 24 -80 24 -80 -58 0 -81
9 -103 36 -95 11 3 30 9 44 13 23 6 24 6 10 -11 -14 -17 -13 -17 10 -10 29 9
71 37 90 60 16 19 31 20 24 0 -5 -11 -2 -13 12 -8 16 6 15 3 -4 -24 -12 -17
-22 -34 -22 -38 0 -4 -18 -34 -40 -66 -22 -32 -40 -61 -40 -64 0 -11 84 -46
126 -52 l46 -6 -5 99 c-3 54 -6 108 -8 119 -3 12 2 21 12 23 18 3 63 -60 64
-88 0 -8 7 -14 15 -13 8 1 28 -16 44 -37 17 -22 35 -40 41 -40 15 0 46 34 79
87 30 50 40 42 -111 98 -57 21 -103 42 -103 47 0 14 -28 9 -45 -8 -15 -15 -15
-14 -9 10 6 25 5 26 -21 16 -23 -9 -26 -8 -23 7 2 10 10 18 18 18 8 0 21 4 28
9 9 5 22 0 37 -14 25 -24 48 -20 38 7 -4 11 -3 14 5 9 17 -10 15 -33 -4 -44
-21 -12 -13 -16 66 -36 47 -11 79 -13 118 -7 l52 8 0 -31 c0 -42 -40 -125 -80
-164 -18 -18 -56 -45 -84 -60 -42 -22 -64 -27 -126 -27 -125 0 -214 55 -270
167 -40 81 -43 186 -6 263 40 85 147 166 216 164 18 -1 15 -3 -13 -10z m189
-13 c28 -13 68 -41 89 -61 42 -42 85 -126 85 -166 0 -25 -2 -26 -57 -27 -52 0
-55 1 -30 11 31 12 36 27 10 27 -10 1 -2 8 17 16 19 8 36 16 38 18 8 8 -38 83
-71 114 l-34 33 -43 -56 c-51 -66 -71 -72 -37 -10 14 25 22 45 17 45 -5 0 -7
14 -3 30 4 23 2 30 -11 30 -9 0 -19 1 -23 3 -3 1 -12 -14 -19 -33 -7 -19 -13
-29 -13 -21 -1 11 -5 10 -15 -4 -12 -17 -14 -15 -17 28 l-4 47 35 0 c19 0 58
-11 86 -24z m-4231 -86 c104 -58 104 -65 -1 -15 -75 36 -104 58 -104 78 0 9 2
9 8 0 4 -7 48 -35 97 -63z m4837 -87 c-2 -32 -7 -61 -11 -64 -12 -12 -56 -18
-70 -10 -10 6 -5 11 18 16 31 7 40 19 21 30 -13 8 -3 43 18 68 24 28 29 20 24
-40z m-3928 21 c6 -15 4 -15 -11 -3 -10 7 -20 15 -22 16 -2 2 3 3 11 3 9 0 19
-7 22 -16z m-50 -23 c3 -5 -3 -11 -14 -14 -20 -5 -26 3 -13 16 9 10 21 9 27
-2z m51 -39 c-11 -11 -34 8 -28 24 6 15 7 15 20 -1 7 -10 11 -21 8 -23z m-35
-13 c0 -5 -12 -9 -26 -9 -14 0 -23 4 -20 8 7 11 46 12 46 1z m180 -14 c0 -8
-4 -15 -10 -15 -5 0 -7 7 -4 15 4 8 8 15 10 15 2 0 4 -7 4 -15z m2955 -35 c3
-5 1 -10 -4 -10 -6 0 -11 5 -11 10 0 6 2 10 4 10 3 0 8 -4 11 -10z m-105 -20
c0 -5 -2 -10 -4 -10 -3 0 -8 5 -11 10 -3 6 -1 10 4 10 6 0 11 -4 11 -10z
m-4160 -245 c0 -1 -9 -5 -19 -8 -13 -3 -18 -1 -14 9 4 10 33 10 33 -1z"></path>
<path d="M2080 342 c0 -16 102 -132 116 -132 32 0 25 26 -17 62 -63 56 -99 81
-99 70z"></path>
<path d="M1906 243 c-32 -55 -41 -80 -33 -85 20 -13 34 -9 40 10 3 9 17 47 31
85 14 37 21 67 16 67 -5 0 -29 -35 -54 -77z"></path>
<path d="M1913 298 c-15 -20 -25 -38 -20 -38 3 0 12 11 21 25 17 26 16 35 -1
13z"></path>
<path d="M5092 274 c-58 -37 -70 -49 -61 -60 16 -20 22 -18 73 25 48 39 84 81
69 81 -5 0 -41 -21 -81 -46z"></path>
<path d="M5290 264 c0 -12 4 -34 9 -50 5 -16 14 -48 20 -71 9 -32 17 -43 31
-43 26 0 25 16 -5 84 -14 32 -22 62 -19 68 4 6 2 8 -4 4 -6 -3 -15 2 -21 11
-10 17 -10 16 -11 -3z"></path>
<path d="M5350 212 c0 -12 19 -26 26 -19 2 2 -2 10 -11 17 -9 8 -15 8 -15 2z"></path>
<path d="M70 1820 c0 -6 72 -10 195 -10 123 0 195 4 195 10 0 6 -72 10 -195
10 -123 0 -195 -4 -195 -10z"></path>
<path d="M670 1820 c0 -6 40 -10 100 -10 60 0 100 4 100 10 0 6 -40 10 -100
10 -60 0 -100 -4 -100 -10z"></path>
<path d="M1220 1820 c0 -5 9 -10 20 -10 11 0 20 5 20 10 0 6 -9 10 -20 10 -11
0 -20 -4 -20 -10z"></path>
<path d="M0 1648 c0 -12 28 -16 160 -21 205 -9 1200 4 1200 15 0 8 -532 14
-650 7 -110 -7 -366 -4 -542 5 -146 7 -168 7 -168 -6z"></path>
<path d="M1379 1553 c-13 -16 -12 -17 4 -4 9 7 17 15 17 17 0 8 -8 3 -21 -13z"></path>
<path d="M4410 1440 c0 -5 5 -10 10 -10 6 0 10 5 10 10 0 6 -4 10 -10 10 -5 0
-10 -4 -10 -10z"></path>
<path d="M4416 1385 c10 -8 23 -15 28 -15 6 0 1 7 -10 15 -10 8 -23 15 -28 15
-6 0 -1 -7 10 -15z"></path>
<path d="M4519 1364 c-16 -20 -5 -29 61 -48 55 -15 107 -11 112 9 2 5 -25 15
-60 22 -34 7 -71 17 -81 23 -14 7 -22 6 -32 -6z"></path>
<path d="M1890 1350 c0 -5 7 -10 15 -10 8 0 15 5 15 10 0 6 -7 10 -15 10 -8 0
-15 -4 -15 -10z"></path>
<path d="M2010 1340 c0 -5 7 -10 16 -10 8 0 12 5 9 10 -3 6 -10 10 -16 10 -5
0 -9 -4 -9 -10z"></path>
<path d="M4730 1341 c0 -8 96 -25 198 -36 96 -9 377 -57 387 -65 5 -5 39 -12
75 -15 89 -10 314 -64 380 -92 72 -30 141 -67 153 -81 10 -13 7 -14 -23 -8
-19 4 -53 10 -75 13 -22 3 -44 9 -50 13 -69 54 -1150 237 -1094 186 2 -2 105
-18 229 -36 232 -33 555 -93 694 -129 44 -12 89 -21 102 -21 31 0 39 -17 14
-30 -11 -6 -20 -17 -20 -24 0 -7 35 -45 77 -85 79 -73 92 -79 162 -65 27 6 31
10 31 40 0 18 -9 48 -20 66 -21 35 -27 63 -10 53 6 -3 10 2 10 13 0 21 -42 63
-86 85 -93 47 -298 103 -449 122 -27 3 -81 15 -120 25 -38 10 -137 28 -220 40
-82 11 -180 25 -217 30 -83 12 -128 13 -128 1z m1175 -322 c21 -21 46 -129 32
-134 -63 -19 -73 -15 -151 52 -41 36 -73 70 -70 75 19 30 162 35 189 7z"></path>
<path d="M5810 1010 c0 -5 11 -10 25 -10 17 0 29 -9 42 -32 14 -27 18 -29 21
-15 5 25 -36 67 -65 67 -13 0 -23 -4 -23 -10z"></path>
<path d="M5810 961 c0 -12 29 -35 36 -28 11 10 -5 37 -21 37 -8 0 -15 -4 -15
-9z"></path>
<path d="M1680 1300 c0 -5 9 -10 20 -10 11 0 20 5 20 10 0 6 -9 10 -20 10 -11
0 -20 -4 -20 -10z"></path>
<path d="M1766 1294 c-4 -11 -1 -14 11 -12 9 2 18 9 21 16 6 18 -25 15 -32 -4z"></path>
<path d="M2310 1302 c0 -9 81 -24 89 -16 8 7 -3 12 -46 19 -26 4 -43 3 -43 -3z"></path>
<path d="M1820 1290 c0 -5 11 -10 25 -10 14 0 25 5 25 10 0 6 -11 10 -25 10
-14 0 -25 -4 -25 -10z"></path>
<path d="M1930 1280 c0 -5 16 -10 35 -10 19 0 35 5 35 10 0 6 -16 10 -35 10
-19 0 -35 -4 -35 -10z"></path>
<path d="M2037 1275 c-7 -16 8 -29 23 -20 15 9 12 35 -4 35 -8 0 -16 -7 -19
-15z"></path>
<path d="M2098 1282 c-25 -5 -22 -19 5 -26 32 -8 37 -8 37 8 0 16 -18 24 -42
18z"></path>
<path d="M2185 1271 c-13 -22 80 -43 205 -46 52 -1 268 -20 479 -43 212 -23
387 -39 389 -37 3 3 11 0 19 -7 19 -16 33 2 22 30 -7 18 -16 22 -51 22 -24 0
-205 13 -402 29 -198 17 -364 27 -370 24 -5 -3 -7 -2 -4 3 4 5 -49 10 -121 12
-69 2 -130 8 -135 13 -13 12 -23 12 -31 0z"></path>
<path d="M1782 1208 c5 -15 28 -23 28 -10 0 5 -7 13 -16 16 -10 4 -14 1 -12
-6z"></path>
<path d="M3480 1200 c0 -5 7 -10 15 -10 8 0 15 5 15 10 0 6 -7 10 -15 10 -8 0
-15 -4 -15 -10z"></path>
<path d="M1870 1190 c0 -5 7 -10 15 -10 8 0 15 5 15 10 0 6 -7 10 -15 10 -8 0
-15 -4 -15 -10z"></path>
<path d="M2120 1180 c0 -5 5 -10 10 -10 6 0 10 5 10 10 0 6 -4 10 -10 10 -5 0
-10 -4 -10 -10z"></path>
<path d="M3320 1167 c0 -21 5 -23 53 -24 89 -2 98 -3 93 -12 -3 -5 11 -11 32
-13 20 -3 39 -1 40 4 5 10 32 11 32 0 0 -5 69 -16 153 -26 83 -10 197 -24 252
-32 55 -8 136 -19 180 -24 44 -5 133 -16 198 -25 65 -8 139 -16 163 -17 32 -2
44 -7 44 -18 0 -12 2 -13 9 -1 5 7 13 11 18 8 5 -3 47 -12 93 -20 47 -9 93
-18 103 -22 9 -4 17 -3 17 2 0 5 -44 23 -97 42 -54 18 -108 38 -120 44 -13 5
-35 11 -50 12 -16 1 -82 12 -148 23 -111 20 -490 63 -680 77 -44 4 -87 9 -95
11 -8 3 -71 7 -140 10 -70 2 -126 8 -128 14 -7 19 -22 10 -22 -13z"></path>
<path d="M4770 1160 c0 -5 5 -10 10 -10 6 0 10 5 10 10 0 6 -4 10 -10 10 -5 0
-10 -4 -10 -10z"></path>
<path d="M4860 1150 c0 -5 14 -10 30 -10 17 0 30 5 30 10 0 6 -13 10 -30 10
-16 0 -30 -4 -30 -10z"></path>
<path d="M4070 1140 c0 -5 5 -10 10 -10 6 0 10 5 10 10 0 6 -4 10 -10 10 -5 0
-10 -4 -10 -10z"></path>
<path d="M4145 1140 c-3 -5 1 -10 10 -10 9 0 13 5 10 10 -3 6 -8 10 -10 10 -2
0 -7 -4 -10 -10z"></path>
<path d="M4940 1142 c0 -9 300 -46 308 -37 10 10 -3 12 -133 29 -146 18 -175
19 -175 8z"></path>
<path d="M5265 1102 c15 -16 105 -27 105 -13 0 6 -8 11 -17 11 -10 0 -36 3
-58 6 -28 5 -37 3 -30 -4z"></path>
<path d="M3290 1075 c0 -8 5 -15 10 -15 6 0 10 7 10 15 0 8 -4 15 -10 15 -5 0
-10 -7 -10 -15z"></path>
<path d="M5390 1082 c0 -5 37 -17 82 -26 45 -10 104 -27 132 -37 37 -15 46
-16 37 -6 -30 36 -251 97 -251 69z"></path>
<path d="M2160 1046 c0 -9 5 -16 10 -16 6 0 10 4 10 9 0 6 -4 13 -10 16 -5 3
-10 -1 -10 -9z"></path>
<path d="M3300 990 c0 -11 5 -20 10 -20 6 0 10 9 10 20 0 11 -4 20 -10 20 -5
0 -10 -9 -10 -20z"></path>
<path d="M4560 860 c0 -40 4 -70 10 -70 6 0 10 30 10 70 0 40 -4 70 -10 70 -6
0 -10 -30 -10 -70z"></path>
<path d="M1087 838 c-2 -18 -3 -35 -1 -37 7 -8 21 13 28 42 5 20 3 27 -8 27
-8 0 -16 -14 -19 -32z"></path>
<path d="M3310 775 c-3 -108 0 -197 6 -204 15 -16 17 51 5 204 l-7 100 -4
-100z"></path>
<path d="M4556 674 c-7 -105 -11 -120 -30 -105 -20 17 -127 29 -481 56 -187
14 -418 32 -514 40 -96 8 -177 12 -180 10 -16 -16 35 -26 214 -40 110 -9 250
-20 310 -26 61 -5 173 -14 250 -19 138 -10 378 -37 403 -45 6 -2 12 -11 12
-20 0 -12 18 -23 21 -12 3 15 10 257 6 257 -2 0 -7 -43 -11 -96z"></path>
<path d="M4359 707 c5 -5 21 -7 37 -5 27 3 26 4 -8 9 -22 3 -34 1 -29 -4z"></path>
<path d="M2820 704 c0 -10 460 -46 469 -38 18 17 -53 26 -326 40 -89 4 -143 4
-143 -2z"></path>
<path d="M2630 580 c0 -5 18 -10 40 -10 22 0 40 5 40 10 0 6 -18 10 -40 10
-22 0 -40 -4 -40 -10z"></path>
<path d="M4580 541 c0 -11 50 -24 58 -16 8 8 -19 25 -40 25 -10 0 -18 -4 -18
-9z"></path>
<path d="M898 433 c6 -2 18 -2 25 0 6 3 1 5 -13 5 -14 0 -19 -2 -12 -5z"></path>
<path d="M940 430 c0 -5 4 -10 9 -10 6 0 13 5 16 10 3 6 -1 10 -9 10 -9 0 -16
-4 -16 -10z"></path>
<path d="M5963 323 c9 -2 23 -2 30 0 6 3 -1 5 -18 5 -16 0 -22 -2 -12 -5z"></path>
<path d="M435 140 c-3 -5 -1 -10 4 -10 6 0 11 5 11 10 0 6 -2 10 -4 10 -3 0
-8 -4 -11 -10z"></path>
<path d="M495 129 c4 -5 16 -9 27 -9 26 0 19 9 -11 15 -12 2 -19 0 -16 -6z"></path>
</g>
</svg>