 <svg version="1.0" xmlns="http://www.w3.org/2000/svg" width="700.000000pt" height="396.000000pt" viewBox="0 0 700.000000 396.000000" preserveAspectRatio="xMidYMid meet">
<metadata>
Created by potrace 1.12, written by Peter Selinger 2001-2015
</metadata>
<g transform="translate(0.000000,396.000000) scale(0.100000,-0.100000)" fill="#000000" stroke="none">
<path d="M1848 3646 c-15 -8 -51 -16 -80 -19 -110 -12 -245 -40 -261 -56 -6
-6 -23 -11 -38 -11 -15 0 -31 -4 -34 -10 -3 -5 -16 -10 -28 -10 -13 0 -31 -6
-42 -13 -11 -7 -38 -18 -60 -25 -22 -8 -51 -18 -65 -24 -14 -6 -38 -16 -55
-23 -98 -42 -170 -83 -217 -124 -29 -26 -82 -69 -119 -97 -36 -27 -83 -69
-106 -94 -40 -45 -133 -174 -133 -185 0 -3 -19 -34 -42 -68 -60 -89 -71 -107
-98 -160 -14 -26 -45 -65 -69 -85 -97 -82 -120 -127 -121 -239 0 -28 -4 -54
-9 -57 -5 -3 -10 -101 -10 -217 -1 -116 -6 -219 -11 -229 -5 -9 -7 -26 -4 -37
3 -12 1 -24 -5 -27 -7 -5 -11 -51 -11 -125 0 -93 3 -121 15 -131 8 -7 15 -28
15 -46 0 -35 19 -76 70 -145 19 -27 30 -52 28 -69 -2 -14 2 -25 7 -25 6 0 13
-40 17 -90 9 -117 18 -174 29 -181 5 -3 9 -14 9 -25 0 -27 78 -179 95 -185 63
-25 -119 -22 -193 2 -23 8 -55 14 -70 14 -15 0 -39 7 -55 14 -15 8 -27 11 -27
6 0 -14 80 -50 110 -50 14 0 35 -7 46 -15 10 -8 36 -15 58 -15 21 0 55 -4 75
-9 20 -6 83 -15 141 -21 58 -6 128 -15 155 -21 28 -6 82 -14 120 -19 39 -5
106 -13 150 -19 44 -6 123 -13 175 -17 52 -4 101 -12 109 -18 13 -10 66 -16
291 -32 47 -3 89 -10 95 -15 5 -5 54 -9 110 -9 66 0 105 -4 113 -12 7 -7 47
-16 90 -20 42 -4 122 -12 177 -18 55 -6 143 -14 196 -19 52 -5 104 -13 115
-18 10 -6 57 -13 104 -17 47 -3 121 -10 165 -16 44 -5 127 -15 184 -20 57 -6
109 -14 115 -19 6 -5 43 -11 81 -15 158 -13 232 -23 246 -32 14 -9 45 -12 344
-34 352 -27 1021 -27 1620 0 127 6 320 13 430 16 115 3 205 10 213 16 11 10
93 16 499 36 99 5 147 12 155 21 11 11 -13 13 -144 8 -87 -3 -166 -10 -176
-16 -16 -8 -24 -3 -48 31 -84 119 -203 213 -291 232 -43 10 -50 24 -16 32 99
22 241 127 283 208 8 16 29 35 46 42 17 7 34 20 37 27 3 8 29 22 58 31 29 10
66 28 83 41 17 13 53 38 80 57 44 29 51 39 64 88 24 96 33 171 38 321 5 122 3
154 -11 195 -10 27 -20 76 -22 109 -18 246 -14 234 -92 286 -21 13 -25 25 -29
97 -3 52 -10 86 -18 93 -8 6 -14 25 -14 41 0 19 -4 28 -12 25 -17 -5 -11 -63
9 -93 9 -15 12 -34 8 -53 -4 -17 -1 -38 7 -50 10 -16 10 -23 0 -33 -9 -9 -8
-16 5 -30 9 -10 21 -18 28 -18 18 0 58 -47 50 -60 -4 -6 -12 -9 -17 -8 -6 2
-23 -8 -37 -23 -32 -31 -116 -48 -150 -30 -39 21 -40 111 -1 111 13 0 20 -8
22 -26 3 -28 32 -54 44 -41 4 4 1 18 -6 32 -18 34 -5 43 23 17 24 -23 57 -30
57 -12 0 5 -17 21 -37 35 -29 19 -50 25 -90 25 -58 0 -73 14 -73 67 0 15 -7
41 -15 57 -8 15 -15 35 -15 42 0 8 -7 17 -15 20 -24 9 -18 31 15 55 16 12 43
40 61 61 30 38 31 40 12 60 -10 11 -40 31 -68 45 -27 13 -66 32 -85 43 -19 10
-43 19 -52 20 -9 0 -20 5 -23 10 -3 6 -17 10 -31 10 -13 0 -24 -4 -24 -10 0
-5 6 -10 13 -10 40 0 63 -81 25 -88 -13 -3 -18 3 -18 22 0 14 -13 44 -29 68
-32 47 -29 46 -211 79 -30 5 -73 15 -95 20 -22 6 -80 15 -130 19 -49 5 -137
14 -195 21 -58 6 -147 13 -199 16 -59 3 -102 10 -115 19 -11 8 -30 14 -41 14
-22 0 -58 27 -69 50 -18 42 -45 76 -74 92 -27 15 -32 15 -32 3 0 -12 -5 -12
-35 2 -19 9 -35 20 -35 25 0 4 -13 14 -29 23 -27 13 -66 44 -162 125 -20 16
-39 30 -43 30 -4 0 -66 42 -139 93 -73 51 -139 96 -147 100 -8 4 -33 18 -55
32 -22 13 -51 30 -65 36 -65 28 -96 43 -110 55 -20 17 -137 76 -180 91 -22 8
-89 13 -176 13 -114 0 -144 3 -154 15 -16 19 -134 22 -128 3 3 -8 26 -14 54
-16 27 -1 63 -9 81 -17 17 -8 42 -15 55 -15 12 -1 42 -11 65 -23 67 -35 145
-73 183 -91 51 -23 93 -56 201 -157 53 -49 161 -134 240 -189 165 -113 289
-209 289 -223 0 -5 -17 -7 -37 -4 -21 4 -126 11 -233 17 -107 6 -240 14 -295
18 l-100 7 -50 100 c-28 55 -70 136 -94 179 -51 95 -60 159 -23 164 34 5 28
33 -7 30 -41 -3 -103 40 -90 63 7 14 3 23 -17 38 -15 12 -32 21 -39 21 -7 0
-15 6 -18 14 -4 9 -26 17 -54 20 -26 4 -68 11 -93 16 -25 6 -88 13 -140 16
-52 3 -99 10 -104 14 -9 9 79 20 128 17 16 -1 31 4 33 11 4 9 -27 12 -131 12
-76 0 -147 5 -163 11 -19 8 -170 12 -465 13 -393 2 -439 4 -456 19 -15 14 -41
17 -153 17 -95 0 -142 -4 -161 -14z m267 -26 c4 -6 -8 -10 -29 -10 -20 0 -36
5 -36 10 0 6 13 10 29 10 17 0 33 -4 36 -10z m-91 -62 c79 -27 168 -116 226
-225 17 -32 51 -92 75 -133 25 -41 56 -97 71 -125 56 -109 73 -138 103 -176
18 -21 40 -39 49 -39 10 0 22 -4 28 -9 5 -5 45 -11 89 -14 44 -2 118 -9 165
-15 47 -6 139 -16 205 -22 66 -6 138 -15 160 -21 22 -6 74 -15 115 -19 41 -5
109 -14 150 -20 41 -7 105 -15 141 -18 36 -4 72 -12 80 -19 8 -6 43 -14 79
-16 36 -3 97 -10 135 -16 39 -6 99 -14 135 -18 36 -5 72 -13 80 -18 8 -5 39
-13 68 -17 28 -4 76 -12 105 -17 28 -5 75 -13 102 -17 28 -3 55 -11 61 -16 7
-5 38 -13 70 -19 33 -5 74 -13 92 -16 20 -3 32 -2 32 5 0 22 -96 58 -215 82
-33 6 -73 18 -90 25 -33 15 -81 22 -225 33 -52 4 -106 13 -118 20 -14 8 -35
11 -49 7 -16 -4 -31 -1 -42 8 -9 8 -45 17 -81 21 -200 18 -242 28 -225 56 9
14 250 3 280 -13 11 -6 52 -15 90 -19 39 -4 102 -12 140 -18 39 -6 90 -13 115
-17 25 -3 54 -12 65 -19 11 -8 31 -14 46 -14 14 0 39 -4 55 -9 16 -5 56 -14
89 -21 33 -6 67 -15 76 -20 9 -5 47 -16 84 -25 55 -14 119 -18 324 -19 241 -1
258 -2 286 -22 17 -11 60 -33 98 -48 37 -16 67 -32 67 -37 0 -5 7 -9 15 -9 8
0 15 5 15 10 0 6 -4 10 -10 10 -5 0 -10 6 -10 14 0 18 74 30 100 16 10 -5 28
-10 39 -10 14 0 21 -6 21 -19 0 -29 -16 -34 -49 -16 -17 8 -38 15 -47 15 -15
0 -14 -3 5 -24 19 -20 32 -24 75 -23 46 2 51 4 49 24 -2 20 3 22 65 28 37 3
79 9 95 11 19 4 27 1 27 -9 0 -7 12 -19 26 -26 29 -13 29 -38 -1 -55 -11 -6
-22 -12 -25 -14 -15 -10 30 -19 78 -15 181 11 199 11 238 -8 21 -10 44 -18 49
-19 6 0 18 -8 27 -17 10 -10 26 -27 38 -37 26 -25 26 -46 0 -46 -13 0 -24 10
-30 25 -11 29 -28 37 -130 60 -56 13 -96 16 -165 11 -122 -9 -185 -31 -185
-64 0 -28 -107 -24 -145 6 -15 12 -40 25 -54 27 -14 3 -44 11 -66 17 -25 8
-117 12 -250 13 -231 0 -233 -1 -298 -68 -15 -15 -35 -27 -45 -25 -21 4 -30
48 -9 48 7 0 24 11 37 25 13 14 29 25 37 25 7 0 13 5 13 10 0 23 -44 7 -75
-27 -31 -34 -37 -37 -55 -25 -24 15 -50 16 -50 2 0 -5 11 -10 25 -10 14 0 25
-5 25 -11 0 -6 -14 -9 -32 -7 -18 2 -33 9 -33 16 0 7 -14 21 -31 31 -30 18
-48 22 -164 37 -30 3 -59 10 -65 14 -5 4 -35 10 -65 14 -30 4 -59 11 -65 16
-5 4 -30 10 -55 13 -25 4 -74 11 -110 16 -36 6 -98 15 -138 20 -40 6 -78 14
-85 18 -35 21 -491 43 -511 23 -12 -12 -86 -14 -86 -1 0 5 6 11 13 14 9 3 7
10 -6 23 -22 23 -129 40 -347 56 -205 14 -399 -6 -367 -39 4 -3 42 -1 85 5 86
14 160 15 241 5 43 -5 50 -8 33 -14 -30 -11 -29 -53 2 -84 14 -14 41 -26 69
-30 33 -5 56 -17 81 -41 36 -35 64 -42 83 -23 8 8 33 -11 90 -68 101 -99 204
-193 214 -193 3 0 12 -6 18 -14 7 -8 43 -16 92 -19 45 -4 88 -12 95 -18 8 -6
23 -9 35 -6 11 3 44 0 72 -7 29 -8 78 -14 109 -14 31 -1 116 -9 188 -17 73 -9
134 -14 137 -11 11 10 -9 26 -35 27 l-27 0 25 10 c13 6 35 7 47 4 18 -4 25 0
33 20 5 14 14 25 20 25 5 0 10 4 10 9 0 7 -179 17 -415 23 -22 0 -58 -5 -80
-12 -44 -13 -44 -13 -158 -4 -108 9 -149 33 -347 202 -40 35 -34 52 13 33 61
-24 67 -25 67 -3 0 24 19 41 57 51 51 14 34 35 -36 43 -102 11 -99 24 11 40
40 5 107 7 148 3 41 -4 109 -9 150 -11 41 -2 130 -13 196 -24 67 -11 146 -20
177 -20 39 0 56 -4 61 -15 3 -9 18 -15 40 -15 19 0 45 -4 58 -9 13 -5 64 -15
113 -21 50 -7 109 -19 133 -26 23 -8 60 -14 82 -14 42 0 57 -12 37 -28 -7 -6
-30 -7 -62 -2 -27 5 -80 11 -117 14 l-68 5 -2 -47 c-1 -42 -2 -43 -5 -11 -5
42 -37 79 -54 62 -8 -8 -20 -8 -41 -1 -21 7 -37 7 -54 0 -21 -10 -23 -16 -19
-61 5 -59 22 -91 51 -91 47 0 84 13 89 31 4 11 11 17 16 13 6 -4 4 -15 -5 -29
-19 -29 -13 -35 42 -35 45 0 79 18 127 66 36 36 55 31 39 -10 -10 -25 -102
-86 -130 -86 -16 0 -24 -5 -21 -12 6 -18 51 -11 93 13 34 18 36 18 59 2 13
-10 25 -22 25 -28 2 -43 216 -205 269 -205 9 0 25 -6 36 -13 34 -22 115 -36
220 -38 131 -2 145 -1 145 11 0 6 -42 10 -107 10 -58 0 -104 3 -100 6 3 3 61
7 129 9 187 4 301 16 320 32 9 8 26 39 38 69 27 66 39 64 16 -2 -23 -68 -57
-114 -83 -114 -13 0 -23 -3 -23 -7 0 -5 106 -9 235 -11 152 -1 235 1 235 8 0
6 -42 10 -106 10 -80 0 -105 3 -101 13 4 13 132 18 249 9 52 -4 65 -8 61 -19
-4 -10 1 -13 18 -9 13 3 46 8 73 11 37 5 57 15 84 41 19 18 39 31 43 28 15 -9
-2 -57 -30 -87 -38 -42 -73 -57 -131 -57 -47 0 -63 -10 -40 -25 6 -4 10 -53
10 -114 0 -112 -9 -138 -42 -126 -20 8 -14 97 9 143 24 47 9 67 -48 68 -24 0
-52 4 -61 8 -30 14 -52 2 -75 -39 -15 -26 -23 -57 -23 -87 0 -27 -4 -48 -8
-48 -21 0 -32 29 -32 82 0 51 2 58 20 58 24 0 27 28 5 37 -25 9 -55 -26 -55
-64 0 -18 -4 -33 -10 -33 -5 0 -10 5 -10 10 0 6 -12 15 -26 20 -28 11 -24 30
7 30 13 0 19 7 19 21 0 17 -5 20 -32 17 -33 -3 -33 -3 -33 -58 0 -53 1 -55 30
-60 22 -4 31 -11 33 -29 4 -22 1 -23 -32 -17 -38 7 -43 1 -22 -26 16 -22 44
-23 70 -3 18 13 22 13 38 -5 22 -24 28 -24 54 -6 13 10 19 26 19 53 0 32 3 38
20 35 38 -6 45 -11 45 -38 0 -23 -3 -25 -25 -20 -20 5 -25 3 -25 -12 0 -10 5
-23 10 -28 16 -16 -116 -24 -397 -24 l-242 0 -3 28 c-2 22 -8 27 -30 27 -15 1
-30 4 -34 7 -11 12 7 46 24 44 15 -1 17 9 17 74 l0 75 -120 6 c-66 4 -136 10
-155 14 -46 10 -121 57 -195 120 -80 69 -77 67 -123 45 -49 -24 -153 -28 -171
-6 -8 9 -48 15 -129 20 -176 10 -302 22 -354 36 -36 9 -52 9 -69 0 -13 -7 -24
-8 -28 -3 -9 15 -164 33 -277 33 -141 0 -208 15 -271 62 -29 21 -53 43 -53 47
0 13 -141 152 -165 162 -11 5 -27 13 -35 18 -54 31 -84 41 -157 51 -84 12
-140 10 -229 -9 -47 -11 -56 -9 -97 12 -106 57 -193 155 -181 204 4 16 18 30
38 38 38 16 222 36 416 46 80 4 160 10 178 14 26 6 32 4 32 -10 0 -15 13 -16
124 -12 68 3 129 7 134 11 6 3 21 2 34 -3 13 -5 93 -17 178 -26 85 -9 187 -22
225 -30 85 -18 204 -35 241 -35 53 0 10 18 -71 30 -44 7 -109 18 -145 27 -65
14 -95 19 -350 48 -74 8 -158 22 -185 30 -28 9 -85 17 -128 18 -42 2 -80 6
-83 10 -4 4 -41 7 -81 7 -41 0 -82 4 -91 9 -9 4 -48 11 -85 15 -54 5 -68 4
-65 -6 3 -8 31 -16 68 -20 35 -4 77 -12 93 -18 17 -5 47 -10 68 -10 22 0 39
-4 39 -9 0 -4 -71 -11 -157 -15 -87 -3 -175 -9 -195 -12 -31 -5 -38 -3 -38 10
0 9 -3 16 -7 16 -5 0 -18 3 -30 6 -18 5 -25 1 -32 -19 -7 -17 -20 -27 -41 -32
-40 -9 -64 9 -49 37 10 19 21 20 62 3 32 -13 17 11 -15 26 -23 9 -34 22 -36
39 -2 14 -9 30 -16 35 -18 15 -57 95 -51 105 3 5 -4 14 -15 20 -11 6 -20 18
-20 28 0 9 -17 40 -38 68 -47 64 -62 90 -62 109 0 8 -4 15 -10 15 -5 0 -17 17
-26 38 -10 20 -27 51 -39 67 -12 17 -29 44 -38 60 -8 17 -23 40 -34 51 -10 12
-37 45 -61 72 -37 43 -52 53 -110 70 -104 31 -139 29 -402 -17 -58 -10 -175
-38 -274 -65 -32 -9 -61 -15 -63 -13 -6 7 110 55 162 68 28 6 59 15 70 20 11
5 45 16 75 24 30 9 65 21 78 26 13 5 44 9 70 9 26 1 58 7 72 16 34 20 174 10
254 -18z m405 -146 c14 -20 35 -48 47 -62 12 -14 32 -49 44 -78 13 -29 30 -57
40 -62 9 -5 25 -34 35 -65 11 -31 29 -62 42 -70 21 -14 21 -17 8 -49 -24 -56
0 -53 58 6 29 29 71 62 95 73 51 22 58 17 68 -55 3 -25 10 -60 15 -79 4 -19 6
-38 3 -42 -3 -5 -25 -6 -50 -2 -34 4 -49 2 -64 -12 -26 -24 -95 -12 -133 24
-35 32 -110 129 -130 168 -8 15 -32 53 -52 83 -45 67 -105 193 -105 222 0 22
28 48 45 42 5 -2 21 -21 34 -42z m-263 -166 c8 -8 14 -18 14 -22 0 -4 12 -21
27 -36 18 -19 24 -31 17 -38 -18 -18 -157 -29 -371 -30 -241 0 -230 -4 -193
79 16 34 23 41 34 32 16 -14 190 -6 259 11 35 9 60 9 100 1 42 -9 55 -9 67 3
18 18 28 18 46 0z m1134 -17 c25 -5 77 -12 117 -16 l72 -6 31 -81 c18 -44 36
-92 42 -106 15 -37 38 -113 38 -127 0 -10 -27 -13 -100 -13 l-100 0 0 80 c0
60 -5 90 -20 119 -22 43 -34 48 -139 58 -68 6 -74 8 -92 37 -25 41 -24 56 4
56 12 0 29 5 37 10 8 6 26 8 40 5 14 -3 45 -10 70 -16z m-1719 -48 c27 14 37
-16 14 -41 -14 -15 -21 -17 -32 -9 -25 21 -80 -35 -93 -93 -5 -24 -15 -70 -22
-103 l-13 -60 -45 -3 c-60 -4 -82 -25 -74 -68 l6 -34 -68 3 c-38 1 -85 -1
-105 -6 -48 -10 -55 9 -33 77 29 91 34 112 34 134 0 12 6 31 13 43 10 17 9 22
-5 30 -18 10 -15 36 10 86 20 40 46 54 108 59 57 4 205 23 218 27 4 2 22 -10
38 -25 24 -22 34 -26 49 -17z m-461 -35 c0 -47 -29 -97 -65 -112 -44 -18 -45
-18 -45 4 0 10 11 29 25 42 14 13 25 28 25 34 0 11 41 54 53 55 4 1 7 -10 7
-23z m1970 -16 c19 -38 19 -42 4 -65 -9 -14 -18 -24 -19 -23 -5 7 -16 128 -11
128 3 0 15 -18 26 -40z m-2126 -55 c-2 -45 -31 -75 -73 -75 -14 0 -51 -9 -81
-20 -63 -23 -70 -24 -70 -9 0 16 107 119 123 119 7 0 19 -6 26 -12 11 -11 12
-9 6 10 -6 21 -4 23 13 18 11 -4 23 -2 27 4 14 22 30 2 29 -35z m960 -2 c21
-5 38 -11 37 -15 0 -5 -29 -17 -63 -28 -34 -11 -64 -23 -67 -28 -3 -5 -18 -11
-32 -14 -26 -5 -27 -4 -21 36 9 72 17 74 146 49z m-1194 -19 c0 -3 -8 -17 -19
-30 -10 -13 -22 -45 -26 -71 -10 -76 -16 -93 -31 -93 -7 0 -21 -12 -31 -26
-10 -14 -28 -38 -41 -54 -12 -16 -18 -31 -13 -34 5 -4 56 -5 113 -4 117 3 156
-5 137 -28 -8 -10 -22 -13 -41 -9 -24 6 -28 3 -28 -14 0 -14 -6 -21 -18 -21
-10 0 -22 -4 -28 -9 -15 -15 -54 -23 -54 -12 0 6 11 13 25 17 34 8 52 32 31
40 -9 3 -22 2 -29 -4 -20 -16 -129 -6 -139 13 -13 21 -2 63 28 105 55 79 73
109 100 160 15 30 32 61 37 68 10 12 27 17 27 6z m1454 -56 c9 -12 16 -30 16
-40 0 -10 5 -18 11 -18 6 0 9 -10 7 -22 -3 -22 -8 -23 -73 -22 -73 2 -126 10
-160 24 -11 4 -36 14 -55 21 -41 15 -84 45 -73 52 4 3 56 8 116 12 116 7 139
1 179 -49 18 -21 18 -21 18 10 0 16 -5 35 -12 42 -9 9 -9 12 -1 12 7 0 19 -10
27 -22z m-206 -113 c120 -13 81 -25 -77 -25 -161 0 -188 4 -171 26 12 14 108
13 248 -1z m2387 -56 c4 -6 5 -12 3 -14 -8 -8 -236 -18 -262 -11 -32 8 -34 23
-3 29 49 10 256 7 262 -4z m-3835 -145 c12 -22 12 -27 0 -34 -24 -15 -38 -12
-45 10 -6 20 9 50 25 50 3 0 13 -12 20 -26z m5190 -11 c19 -6 55 -19 80 -30
25 -11 61 -26 80 -33 69 -25 90 -35 90 -43 0 -17 -31 -18 -62 -1 -59 30 -68
34 -83 34 -8 0 -23 4 -33 9 -9 5 -37 17 -62 26 -25 9 -53 21 -62 26 -10 5 -24
9 -32 9 -8 0 -18 5 -22 11 -7 13 44 8 106 -8z m-5090 -13 c0 -5 -7 -10 -15
-10 -8 0 -15 5 -15 10 0 6 7 10 15 10 8 0 15 -4 15 -10z m204 4 c20 -8 20 -23
0 -45 -16 -17 -15 -19 11 -29 34 -13 48 -5 35 20 -17 32 -11 40 28 39 20 -1
29 -3 19 -6 -10 -3 -17 -12 -15 -20 2 -13 21 -17 91 -19 58 -2 87 0 87 7 0 7
7 8 18 4 9 -5 37 -9 62 -11 25 -1 72 -7 105 -13 39 -6 63 -7 71 0 8 7 15 6 19
-1 8 -13 72 -5 93 12 8 7 17 7 27 -2 8 -7 24 -10 35 -7 21 5 28 -7 10 -18 -18
-11 -1 -23 45 -29 42 -7 64 -20 52 -33 -10 -10 -171 -9 -197 1 -32 12 -234 23
-666 34 -188 5 -346 12 -353 16 -17 11 -13 31 12 55 21 19 25 20 37 6 21 -25
77 -19 96 10 14 22 42 27 29 5 -3 -5 4 -14 16 -21 29 -15 126 7 142 33 12 18
59 24 91 12z m832 -79 c5 -11 16 -13 50 -8 30 4 44 2 44 -6 0 -6 -16 -11 -37
-11 -23 0 -33 -4 -27 -9 11 -12 141 -21 331 -24 129 -2 143 -4 157 -22 12 -16
17 -18 27 -7 18 17 26 15 31 -6 4 -15 19 -20 69 -26 158 -18 180 -22 201 -44
30 -30 18 -36 -42 -23 -28 6 -72 11 -98 11 -27 0 -53 5 -60 12 -6 6 -53 15
-104 19 -51 4 -138 13 -193 19 -55 6 -152 15 -216 18 -119 7 -149 18 -149 51
0 9 -5 22 -11 28 -13 13 -5 43 11 43 6 0 13 -7 16 -15z m-1316 -76 c0 -5 -4
-9 -10 -9 -5 0 -10 7 -10 16 0 8 5 12 10 9 6 -3 10 -10 10 -16z m915 -124 c77
-1 190 -8 250 -14 61 -7 227 -23 370 -36 251 -23 375 -47 367 -71 -2 -5 13
-18 33 -28 20 -10 41 -29 47 -42 7 -16 18 -22 37 -21 21 2 27 -3 29 -25 2 -16
9 -28 16 -28 6 0 18 -6 24 -12 7 -7 18 -13 25 -13 19 0 19 -13 1 -55 -24 -55
-36 -54 -146 7 -18 10 -40 23 -48 29 -19 14 -88 27 -155 28 -27 1 -56 5 -63 9
-7 5 -88 11 -180 13 -92 3 -176 9 -187 14 -28 12 -331 25 -580 25 -195 0 -213
-2 -256 -22 -30 -14 -52 -34 -64 -57 -22 -41 -35 -46 -35 -15 0 13 -20 41 -51
70 -76 71 -87 79 -108 79 -11 0 -36 15 -57 34 -40 37 -39 49 11 96 43 40 120
50 365 43 118 -2 278 -6 355 -8z m4215 -99 c0 -3 -4 -8 -10 -11 -5 -3 -10 -1
-10 4 0 6 5 11 10 11 6 0 10 -2 10 -4z m160 -88 c0 -24 -5 -50 -10 -58 -7 -11
-10 2 -10 43 0 31 4 57 10 57 6 0 10 -19 10 -42z m-1107 22 c22 0 22 -1 -2
-19 -30 -23 -61 -17 -54 10 4 13 11 18 20 15 8 -3 24 -6 36 -6z m362 -7 c4
-10 11 -34 15 -53 7 -30 53 -162 75 -212 11 -28 -11 -21 -33 10 -24 33 -55
103 -71 157 -7 22 -17 50 -23 62 -13 26 -5 53 16 53 7 0 17 -8 21 -17z m811
-30 c-3 -21 -6 -72 -7 -113 0 -58 -2 -70 -10 -51 -12 30 0 201 14 201 6 0 7
-15 3 -37z m524 -95 c0 -24 -5 -50 -10 -58 -7 -11 -10 2 -10 43 0 31 4 57 10
57 6 0 10 -19 10 -42z m-2530 -88 c0 -13 -30 -13 -50 0 -11 7 -7 10 18 10 17
0 32 -4 32 -10z m87 -1 c-14 -8 -22 -8 -30 0 -8 8 -3 11 19 11 25 -1 27 -2 11
-11z m2378 -88 c-3 -6 -14 -11 -23 -11 -15 1 -15 2 2 15 21 16 32 13 21 -4z
m-2233 -8 c38 -34 16 -73 -44 -77 -10 -1 -19 -6 -20 -11 -2 -6 29 -11 70 -13
80 -3 91 -15 46 -51 -37 -29 -87 -27 -128 4 -28 21 -33 32 -33 66 0 26 5 43
14 46 8 3 19 16 24 29 10 28 44 32 71 7z m2658 -2 c0 -10 3 -39 6 -65 5 -31 3
-46 -5 -46 -6 0 -11 8 -11 19 0 10 -7 24 -15 31 -15 13 -21 61 -8 73 13 14 33
7 33 -12z m-4765 -80 c282 -43 334 -65 349 -147 5 -25 -2 -37 -61 -91 l-66
-63 -94 0 c-51 0 -119 6 -151 14 -31 8 -93 19 -137 25 -135 19 -209 32 -240
42 -16 6 -86 19 -155 30 -69 11 -145 23 -170 28 -57 11 -134 52 -138 75 -6 28
6 63 23 70 9 3 84 8 168 12 84 3 153 7 154 7 8 8 464 6 518 -2z m1301 -22 c81
-39 166 -130 216 -230 52 -106 58 -130 64 -264 13 -274 -45 -429 -218 -582
-14 -13 -32 -23 -40 -23 -8 0 -18 -4 -24 -8 -15 -14 -89 -32 -129 -32 -93 0
-231 76 -277 152 l-20 33 28 -25 c15 -14 37 -34 48 -45 25 -25 114 -70 122
-63 3 3 7 35 9 71 4 80 24 214 36 245 5 13 9 31 9 41 0 11 6 21 14 24 18 7 27
58 14 75 -23 28 -89 -1 -223 -99 -27 -20 -66 -42 -85 -49 -19 -7 -40 -17 -46
-22 -15 -11 -24 0 -24 29 0 21 4 23 48 23 41 0 51 4 69 28 11 15 56 45 99 66
88 44 116 64 108 78 -3 5 2 18 11 28 12 14 15 27 10 47 -6 25 -36 63 -49 63
-8 0 -93 93 -120 131 -14 19 -35 54 -48 79 -13 25 -29 49 -35 53 -7 4 -13 14
-13 22 0 24 108 132 149 149 22 8 42 20 46 26 3 6 45 10 97 10 82 0 98 -3 154
-31z m-2523 -10 c26 -15 56 -50 57 -66 0 -7 3 -13 8 -13 8 0 32 -71 32 -96 0
-9 -7 -14 -17 -12 -12 2 -20 16 -23 42 -5 41 -30 63 -30 27 0 -12 -4 -21 -10
-21 -5 0 -10 11 -10 24 0 14 5 28 10 31 15 9 12 17 -14 48 -14 17 -33 27 -50
27 -14 0 -26 5 -26 10 0 14 46 13 73 -1z m3546 -21 c12 -31 -14 -60 -48 -56
-38 4 -41 42 -4 62 37 20 42 20 52 -6z m-333 -29 c12 -20 93 -48 146 -50 29
-1 103 1 163 4 182 9 589 10 610 0 52 -22 95 -56 95 -75 0 -10 4 -28 10 -38
13 -24 -16 -35 -54 -20 -15 5 -42 10 -61 10 -19 0 -37 5 -40 10 -3 6 -27 10
-53 10 -26 0 -65 7 -87 14 -30 11 -121 15 -365 18 l-325 3 -31 -23 c-45 -34
-77 -27 -88 19 -11 47 -2 85 24 92 11 3 20 12 20 21 0 18 25 22 36 5z m481 -5
c2 -6 -21 -10 -62 -11 -60 0 -74 4 -59 20 10 10 117 2 121 -9z m-3807 -19 c0
-8 -4 -15 -10 -15 -5 0 -10 7 -10 15 0 8 5 15 10 15 6 0 10 -7 10 -15z m6105
-5 c0 -8 -9 -16 -20 -18 -11 -2 -33 -9 -50 -17 -50 -23 -144 -47 -155 -40 -14
9 -13 48 2 63 7 7 32 12 58 13 25 0 65 4 90 9 58 10 75 8 75 -10z m-6300 0 c3
-6 -1 -13 -10 -16 -19 -8 -30 0 -20 15 8 14 22 14 30 1z m5700 0 c4 -6 19 -9
33 -8 20 2 26 -1 23 -12 -18 -73 -22 -99 -18 -122 4 -28 -8 -38 -44 -38 -20 0
-26 15 -9 25 6 3 10 28 10 55 0 39 -4 52 -22 64 -12 8 -25 13 -29 10 -11 -6
-22 14 -14 26 8 13 62 13 70 0z m-5488 -62 c-3 -8 -6 -5 -6 6 -1 11 2 17 5 13
3 -3 4 -12 1 -19z m-43 -4 c3 -9 6 -28 6 -42 -1 -31 -13 -15 -24 31 -7 29 8
38 18 11z m56 -49 c0 -12 -6 -25 -14 -28 -8 -3 -16 -16 -18 -29 -4 -20 -6 -20
-12 -6 -5 10 -1 33 10 57 18 42 34 45 34 6z m99 -55 c5 0 11 9 14 21 3 12 10
18 16 14 16 -9 13 -35 -4 -41 -8 -4 -15 -12 -15 -20 0 -19 -10 -18 -26 4 -14
18 -19 84 -6 96 4 4 8 -11 10 -33 2 -23 7 -41 11 -41z m2038 48 c-3 -8 -6 -5
-6 6 -1 11 2 17 5 13 3 -3 4 -12 1 -19z m-20 -40 c-3 -8 -6 -5 -6 6 -1 11 2
17 5 13 3 -3 4 -12 1 -19z m-2110 -20 c-3 -8 -6 -5 -6 6 -1 11 2 17 5 13 3 -3
4 -12 1 -19z m-7 -33 c0 -8 -4 -15 -10 -15 -5 0 -10 7 -10 15 0 8 5 15 10 15
6 0 10 -7 10 -15z m4134 -31 c9 -22 -3 -32 -14 -14 -12 19 -12 30 -1 30 5 0
12 -7 15 -16z m-4053 -34 c21 -12 26 -50 6 -50 -17 0 -59 44 -50 53 9 10 21 9
44 -3z m4079 -10 c0 -6 12 -23 26 -38 14 -15 36 -47 49 -72 32 -62 133 -180
175 -204 31 -19 55 -21 220 -25 179 -3 507 8 835 30 162 11 260 33 297 66 19
17 50 11 43 -9 -7 -18 47 -40 92 -38 61 3 73 1 73 -14 0 -17 -46 -25 -117 -22
-37 1 -54 -2 -58 -12 -8 -20 -50 -11 -49 11 2 14 -3 17 -25 13 -64 -13 -185
-25 -296 -31 -66 -3 -138 -10 -160 -15 -100 -23 -821 -34 -846 -13 -17 14 -53
7 -204 -37 -22 -7 -45 -16 -52 -22 -15 -12 -370 -5 -473 10 -41 6 -133 16
-205 22 -71 7 -144 16 -161 21 -53 16 -92 90 -79 150 8 33 25 29 25 -5 0 -37
28 -83 58 -94 57 -21 235 -42 442 -52 118 -6 231 -13 251 -15 42 -6 52 1 39
26 -7 12 -6 20 1 24 6 4 8 13 5 21 -7 18 20 80 37 87 8 3 33 -3 57 -14 40 -18
130 -27 130 -13 0 7 -50 87 -89 144 -40 57 -68 130 -50 130 5 0 9 -5 9 -10z
m-3465 -30 c55 -6 163 -15 240 -20 205 -14 495 -38 530 -45 17 -3 97 -12 179
-19 107 -10 152 -18 164 -30 26 -26 -3 -28 -159 -11 -172 20 -348 34 -524 41
-71 3 -135 10 -141 15 -10 8 -96 16 -419 38 -131 9 -163 20 -137 45 8 9 114 3
267 -14z m-625 -18 c0 -4 17 -15 38 -24 52 -23 106 -73 97 -88 -6 -9 -12 -7
-24 8 -9 11 -33 24 -55 28 -37 6 -38 6 -26 -16 6 -12 32 -41 56 -64 43 -42 55
-66 32 -66 -14 0 -48 30 -48 43 0 5 -11 18 -25 29 -14 11 -25 26 -25 34 0 8
-4 14 -10 14 -5 0 -10 6 -10 14 0 21 -20 30 -33 17 -6 -6 -17 -11 -25 -11 -8
0 -37 -25 -66 -55 -56 -60 -66 -65 -66 -35 0 11 6 20 14 20 8 0 24 13 35 28
11 15 38 37 60 48 23 10 41 25 41 32 0 18 -66 16 -74 -3 -3 -8 -16 -15 -29
-15 -13 0 -28 -5 -35 -12 -20 -20 -26 0 -7 22 20 22 74 40 122 40 17 0 35 5
38 10 7 12 25 13 25 2z m-22 -153 c-18 -12 -23 8 -6 28 12 15 13 15 16 -2 2
-10 -2 -21 -10 -26z m2306 13 c2 -4 -16 -14 -42 -21 -26 -7 -58 -17 -72 -22
-14 -5 -39 -9 -56 -7 -34 2 -100 -42 -114 -76 -6 -15 -9 -7 -9 32 -1 39 3 52
13 52 8 0 27 5 43 12 23 10 96 22 220 37 6 0 14 -3 17 -7z m-2294 -152 c0 -11
-4 -20 -10 -20 -5 0 -10 9 -10 20 0 11 5 20 10 20 6 0 10 -9 10 -20z m1016 1
c73 -5 138 -12 145 -17 8 -5 70 -12 139 -16 114 -7 211 -14 505 -37 55 -4 107
-11 116 -15 18 -8 89 -183 89 -220 0 -8 -169 -11 -598 -11 -328 0 -619 -3
-647 -6 -29 -4 -71 0 -102 8 -34 9 -87 12 -150 9 -87 -3 -144 6 -143 23 0 3
14 19 30 35 34 33 68 99 91 176 l16 55 52 -3 c41 -3 57 1 79 18 30 24 16 24
378 1z m-1056 -6 c0 -8 -4 -15 -10 -15 -5 0 -10 7 -10 15 0 8 5 15 10 15 6 0
10 -7 10 -15z m3245 -80 c-24 -20 -37 -24 -67 -19 -29 4 -44 1 -64 -15 -15
-12 -32 -21 -39 -21 -6 0 -20 -9 -30 -20 -22 -24 -41 -26 -49 -4 -6 17 9 44
25 44 5 0 35 17 67 38 31 21 73 48 92 59 l35 20 30 -29 29 -29 -29 -24z
m-3258 -37 c-3 -8 -6 -5 -6 6 -1 11 2 17 5 13 3 -3 4 -12 1 -19z m4701 -50
c42 -57 135 -141 173 -158 13 -5 31 -14 39 -19 8 -5 23 -12 33 -15 29 -9 19
-23 -20 -31 -21 -3 -66 -22 -99 -41 l-61 -34 -101 20 c-110 21 -184 27 -430
35 -90 3 -175 11 -190 17 -15 6 -81 15 -147 19 -66 5 -136 11 -155 13 -19 2
-114 14 -210 25 -96 12 -188 24 -205 27 -63 12 -105 25 -105 33 0 8 135 31
183 31 34 0 114 34 143 62 20 18 29 19 141 10 65 -5 141 -6 168 -1 28 4 86 8
129 8 57 1 84 5 97 17 17 15 208 29 471 32 l107 2 39 -52z m-4638 21 c0 -5 -7
-9 -15 -9 -15 0 -20 12 -9 23 8 8 24 -1 24 -14z"></path>
<path d="M3300 2640 c0 -5 7 -10 15 -10 8 0 15 5 15 10 0 6 -7 10 -15 10 -8 0
-15 -4 -15 -10z"></path>
<path d="M3395 2620 c3 -5 10 -10 16 -10 5 0 9 5 9 10 0 6 -7 10 -16 10 -8 0
-12 -4 -9 -10z"></path>
<path d="M3464 2619 c-9 -15 -6 -16 64 -22 37 -4 62 -3 62 3 0 17 -116 34
-126 19z"></path>
<path d="M4100 2581 c0 -10 34 -21 68 -21 12 0 22 4 22 9 0 10 -34 21 -67 21
-13 0 -23 -4 -23 -9z"></path>
<path d="M2513 2565 c-3 -9 -3 -18 0 -21 9 -9 27 6 27 22 0 19 -19 18 -27 -1z"></path>
<path d="M3405 2560 c-3 -5 1 -10 9 -10 9 0 16 5 16 10 0 6 -4 10 -9 10 -6 0
-13 -4 -16 -10z"></path>
<path d="M4285 2541 c10 -10 99 -31 136 -31 11 0 19 4 19 9 0 4 -26 11 -57 15
-31 4 -69 9 -83 13 -18 4 -22 3 -15 -6z"></path>
<path d="M4680 2520 c0 -5 5 -10 10 -10 6 0 10 5 10 10 0 6 -4 10 -10 10 -5 0
-10 -4 -10 -10z"></path>
<path d="M2810 2460 c0 -5 7 -10 15 -10 8 0 15 5 15 10 0 6 -7 10 -15 10 -8 0
-15 -4 -15 -10z"></path>
<path d="M2735 2451 c-3 -5 0 -13 5 -16 16 -10 62 4 55 15 -8 13 -52 13 -60 1z"></path>
<path d="M2860 2450 c0 -5 7 -10 15 -10 8 0 15 5 15 10 0 6 -7 10 -15 10 -8 0
-15 -4 -15 -10z"></path>
<path d="M2670 2430 c0 -5 5 -10 10 -10 6 0 10 5 10 10 0 6 -4 10 -10 10 -5 0
-10 -4 -10 -10z"></path>
<path d="M3006 2431 c-4 -5 -2 -12 3 -15 5 -4 12 -2 15 3 4 5 2 12 -3 15 -5 4
-12 2 -15 -3z"></path>
<path d="M3600 2394 c-36 -19 -72 -31 -82 -28 -9 2 -19 0 -23 -6 -8 -13 7 -18
82 -23 61 -4 63 -4 89 30 23 31 27 65 7 62 -4 -1 -37 -16 -73 -35z"></path>
<path d="M3712 2409 c2 -6 8 -10 13 -10 5 0 11 4 13 10 2 6 -4 11 -13 11 -9 0
-15 -5 -13 -11z"></path>
<path d="M5730 2396 c-43 -29 -75 -64 -67 -73 4 -4 20 5 35 19 15 14 35 28 46
30 23 4 56 48 35 47 -8 0 -30 -11 -49 -23z"></path>
<path d="M3760 2389 c-7 -11 -8 -28 -4 -37 10 -25 12 -132 2 -138 -4 -3 -15 2
-24 10 -8 9 -34 17 -57 17 -81 2 -100 8 -122 35 -13 16 -24 23 -28 17 -11 -17
63 -84 120 -109 32 -15 73 -24 102 -24 51 0 111 16 111 30 0 5 -16 25 -35 45
-29 31 -32 40 -22 55 9 16 7 23 -12 44 l-23 24 31 17 c35 18 33 35 -4 35 -14
0 -29 -9 -35 -21z"></path>
<path d="M3856 2385 c-10 -15 -15 -33 -12 -41 4 -11 13 -10 48 6 24 11 51 20
61 20 30 0 18 18 -15 22 -18 3 -40 8 -49 12 -11 5 -21 -1 -33 -19z"></path>
<path d="M4770 2388 c0 -12 40 -20 66 -14 39 10 28 21 -21 21 -25 0 -45 -3
-45 -7z"></path>
<path d="M4020 2380 c0 -5 5 -10 10 -10 6 0 10 5 10 10 0 6 -4 10 -10 10 -5 0
-10 -4 -10 -10z"></path>
<path d="M5490 2380 c0 -5 7 -10 15 -10 8 0 15 5 15 10 0 6 -7 10 -15 10 -8 0
-15 -4 -15 -10z"></path>
<path d="M4102 2332 c-7 -5 -42 -7 -78 -5 -74 4 -116 -6 -158 -40 -28 -22 -28
-25 -16 -54 12 -27 20 -31 64 -37 28 -3 70 -6 93 -6 23 0 45 -5 48 -10 7 -11
215 -12 215 -1 0 4 -7 16 -15 27 -8 11 -15 41 -15 71 0 28 -5 55 -11 58 -12 8
-51 -24 -43 -36 3 -5 2 -14 -1 -19 -10 -16 -43 7 -47 32 -3 24 -17 32 -36 20z"></path>
<path d="M3307 2279 c-9 -6 -17 -14 -17 -19 0 -16 30 -11 37 5 8 21 1 25 -20
14z"></path>
<path d="M3320 2233 c0 -27 101 -113 133 -113 15 0 27 -4 27 -10 0 -5 9 -10
20 -10 27 0 25 11 -9 44 -25 24 -29 25 -35 10 -5 -13 -9 -14 -21 -4 -7 6 -11
18 -8 27 5 12 1 14 -15 8 -18 -5 -22 -2 -22 18 0 16 -8 28 -25 35 -35 16 -45
15 -45 -5z"></path>
<path d="M4420 2120 c0 -5 7 -10 15 -10 8 0 15 5 15 10 0 6 -7 10 -15 10 -8 0
-15 -4 -15 -10z"></path>
<path d="M4350 2033 c0 -10 38 -18 147 -30 36 -4 58 -1 68 7 13 11 20 11 40 0
28 -15 41 -9 31 16 -5 14 -14 15 -54 8 -53 -9 -70 -9 -164 1 -44 5 -68 4 -68
-2z"></path>
<path d="M5360 1860 c0 -5 18 -10 40 -10 22 0 40 5 40 10 0 6 -18 10 -40 10
-22 0 -40 -4 -40 -10z"></path>
<path d="M5370 1810 c0 -6 30 -10 70 -10 40 0 70 4 70 10 0 6 -30 10 -70 10
-40 0 -70 -4 -70 -10z"></path>
<path d="M5570 1813 c0 -10 150 -25 159 -17 11 10 -15 17 -84 22 -46 3 -75 1
-75 -5z"></path>
<path d="M5817 1814 c-15 -15 -5 -20 48 -21 30 -1 55 3 55 8 0 5 -8 9 -19 9
-10 0 -31 3 -47 6 -16 3 -32 2 -37 -2z"></path>
<path d="M5760 1800 c0 -5 4 -10 9 -10 6 0 13 5 16 10 3 6 -1 10 -9 10 -9 0
-16 -4 -16 -10z"></path>
<path d="M5962 1802 c-27 -9 -8 -17 44 -19 39 -2 54 1 52 9 -4 11 -72 18 -96
10z"></path>
<path d="M5294 1693 c2 -38 7 -77 11 -88 18 -51 18 -51 22 -32 3 10 -1 24 -7
32 -16 20 -5 45 20 45 17 0 20 -6 20 -45 0 -35 4 -45 16 -45 14 0 16 8 10 46
-3 26 -6 69 -6 95 0 27 -4 49 -10 49 -5 0 -10 -6 -10 -14 0 -7 -6 -18 -13 -25
-16 -13 -37 4 -37 31 0 10 -4 18 -10 18 -6 0 -8 -27 -6 -67z"></path>
<path d="M5496 1751 c-4 -5 1 -31 10 -57 12 -37 14 -52 5 -66 -14 -22 -14 -68
-1 -68 6 0 10 9 10 19 0 32 19 34 32 4 l12 -28 4 27 c2 15 -2 36 -7 47 -6 11
-11 33 -11 49 0 17 -6 32 -15 36 -8 3 -15 12 -15 20 0 18 -17 30 -24 17z"></path>
<path d="M5597 1754 c-4 -4 -7 -52 -7 -106 0 -80 3 -98 15 -98 10 0 15 10 15
30 0 19 7 33 20 40 11 6 20 15 20 21 0 6 -9 13 -20 16 -11 3 -21 12 -21 19 -1
8 -2 19 -3 26 -1 7 10 15 24 18 36 8 32 34 -5 38 -17 2 -34 0 -38 -4z"></path>
<path d="M5550 1736 c0 -8 5 -18 10 -21 6 -3 10 3 10 14 0 12 -4 21 -10 21 -5
0 -10 -6 -10 -14z"></path>
<path d="M5424 1646 c-8 -22 0 -89 11 -93 6 -2 19 2 28 9 13 10 16 21 11 46
-7 37 -41 63 -50 38z"></path>
<path d="M1420 3080 c0 -5 5 -10 10 -10 6 0 10 5 10 10 0 6 -4 10 -10 10 -5 0
-10 -4 -10 -10z"></path>
<path d="M1323 3073 c-73 -5 -86 -23 -15 -23 55 0 92 9 92 21 0 5 -3 8 -7 7
-5 -1 -36 -3 -70 -5z"></path>
<path d="M1215 3050 c-3 -5 1 -10 9 -10 9 0 16 5 16 10 0 6 -4 10 -9 10 -6 0
-13 -4 -16 -10z"></path>
<path d="M805 2203 c-11 -2 -30 -6 -42 -9 -13 -2 -23 -8 -23 -12 0 -5 27 -4
60 1 33 5 60 14 60 18 0 9 -20 10 -55 2z"></path>
<path d="M1650 2200 c0 -5 5 -10 10 -10 6 0 10 5 10 10 0 6 -4 10 -10 10 -5 0
-10 -4 -10 -10z"></path>
<path d="M1860 2181 c0 -15 30 -21 111 -21 44 0 87 -4 97 -9 19 -10 183 -30
195 -24 19 11 -9 22 -71 28 -37 3 -83 10 -102 15 -49 13 -230 21 -230 11z"></path>
<path d="M2340 2131 c0 -22 16 -36 24 -22 8 12 -3 41 -15 41 -5 0 -9 -9 -9
-19z"></path>
<path d="M2300 2130 c0 -5 5 -10 10 -10 6 0 10 5 10 10 0 6 -4 10 -10 10 -5 0
-10 -4 -10 -10z"></path>
<path d="M2872 1786 c-18 -7 -42 -20 -53 -30 -19 -16 -19 -19 -5 -39 25 -35
44 -78 61 -139 9 -32 21 -60 26 -63 5 -4 9 -15 9 -26 0 -10 5 -28 12 -39 18
-29 -1 -39 -21 -11 -24 36 -61 131 -61 157 0 33 -57 114 -81 114 -25 0 -48
-45 -31 -62 7 -7 12 -21 12 -32 1 -12 14 -39 30 -61 16 -22 47 -67 69 -100 23
-33 53 -72 68 -88 28 -27 60 -32 55 -9 -1 8 7 7 23 -4 21 -14 30 -15 52 -5 34
16 44 1 37 -54 -5 -38 -4 -41 28 -56 18 -9 68 -22 110 -28 42 -6 92 -20 110
-31 62 -38 78 -20 78 85 0 46 -24 158 -40 187 -6 10 -10 22 -10 28 0 6 -13 39
-30 74 -29 62 -60 93 -60 59 0 -9 -26 -50 -57 -91 -32 -41 -67 -87 -78 -103
-11 -16 -26 -31 -32 -33 -17 -7 -16 19 1 36 7 8 20 27 29 43 8 17 29 43 46 59
17 17 31 34 31 38 0 5 9 29 20 54 24 51 19 80 -13 90 -15 5 -24 1 -32 -11 -5
-10 -20 -27 -32 -38 -13 -11 -25 -36 -29 -56 -3 -20 -17 -60 -30 -89 -13 -29
-24 -57 -24 -62 0 -6 -5 -10 -10 -10 -10 0 -7 29 10 80 4 14 14 45 21 70 7 25
28 70 46 100 l33 55 -23 17 c-12 10 -30 18 -39 18 -9 0 -20 5 -23 10 -8 14
-162 10 -203 -4z"></path>
<path d="M2987 1293 c-9 -8 40 -53 59 -53 20 0 17 13 -9 38 -24 22 -39 27 -50
15z"></path>
<path d="M2976 1233 c-2 -3 -2 -11 1 -19 5 -14 63 -20 63 -6 0 9 -57 32 -64
25z"></path>
<path d="M3086 1195 c-9 -14 -23 -25 -31 -25 -10 0 -15 -11 -15 -35 0 -33 -12
-46 -25 -25 -9 14 -45 -21 -45 -45 0 -12 -4 -25 -9 -30 -10 -11 -23 -143 -24
-245 -1 -123 47 -151 72 -42 12 50 12 70 3 96 -15 40 -16 246 -2 246 6 0 10
-31 10 -72 0 -40 4 -89 9 -108 6 -19 12 -77 15 -129 3 -52 8 -96 10 -98 2 -3
12 0 23 6 10 5 25 12 33 16 61 25 123 79 172 152 62 91 67 110 33 123 -34 13
-118 70 -128 87 -4 7 -21 20 -37 28 -32 16 -67 61 -56 72 3 4 16 -3 29 -14 12
-11 33 -26 46 -33 13 -7 42 -29 65 -50 32 -30 51 -39 86 -42 41 -3 45 -1 54
25 9 25 6 32 -32 70 -36 36 -48 42 -88 43 -25 1 -62 10 -82 19 -20 10 -44 22
-54 26 -12 6 -21 1 -32 -16z"></path>
<path d="M3817 1684 c-9 -10 2 -24 19 -24 8 0 14 7 14 15 0 15 -21 21 -33 9z"></path>
<path d="M4675 1680 c-3 -6 1 -13 10 -16 19 -8 30 0 20 15 -8 14 -22 14 -30 1z"></path>
<path d="M3769 1664 c-12 -14 -11 -16 5 -13 11 2 21 10 24 17 5 17 -13 15 -29
-4z"></path>
<path d="M4745 1630 c3 -5 8 -10 11 -10 2 0 4 5 4 10 0 6 -5 10 -11 10 -5 0
-7 -4 -4 -10z"></path>
<path d="M4815 1090 c-3 -5 3 -10 14 -10 12 0 21 5 21 10 0 6 -6 10 -14 10 -8
0 -18 -4 -21 -10z"></path>
<path d="M4770 1070 c0 -5 4 -10 9 -10 6 0 13 5 16 10 3 6 -1 10 -9 10 -9 0
-16 -4 -16 -10z"></path>
<path d="M590 1325 c0 -8 5 -15 10 -15 6 0 10 7 10 15 0 8 -4 15 -10 15 -5 0
-10 -7 -10 -15z"></path>
<path d="M1120 970 c0 -5 7 -10 15 -10 8 0 15 5 15 10 0 6 -7 10 -15 10 -8 0
-15 -4 -15 -10z"></path>
<path d="M4180 850 c0 -5 5 -10 10 -10 6 0 10 5 10 10 0 6 -4 10 -10 10 -5 0
-10 -4 -10 -10z"></path>
<path d="M4260 850 c0 -5 7 -10 15 -10 8 0 15 5 15 10 0 6 -7 10 -15 10 -8 0
-15 -4 -15 -10z"></path>
<path d="M4400 830 c0 -6 34 -10 83 -10 45 0 106 -7 135 -14 30 -8 75 -13 100
-10 26 2 97 -3 157 -12 115 -16 182 -16 178 1 -3 10 -140 23 -323 30 -58 2
-118 8 -133 14 -36 14 -197 15 -197 1z"></path>
<path d="M5085 789 c-10 -15 3 -25 16 -12 7 7 7 13 1 17 -6 3 -14 1 -17 -5z"></path>
<path d="M5150 776 c0 -7 7 -17 16 -20 25 -10 84 -7 84 4 0 6 -14 10 -31 10
-17 0 -39 5 -50 10 -15 8 -19 7 -19 -4z"></path>
<path d="M5270 760 c0 -5 9 -10 20 -10 11 0 20 5 20 10 0 6 -9 10 -20 10 -11
0 -20 -4 -20 -10z"></path>
<path d="M3850 3340 c0 -5 5 -10 10 -10 6 0 10 5 10 10 0 6 -4 10 -10 10 -5 0
-10 -4 -10 -10z"></path>
<path d="M6315 2328 c-6 -19 8 -79 20 -81 6 -1 11 15 13 36 3 38 22 43 22 6 0
-12 5 -19 13 -16 6 2 12 17 12 33 0 26 -3 29 -38 32 -24 2 -39 -1 -42 -10z"></path>
<path d="M6372 2214 c-25 -17 -21 -34 9 -34 14 0 19 7 19 25 0 30 1 29 -28 9z"></path>
<path d="M6428 2183 c-10 -2 -18 -9 -18 -14 0 -15 43 -7 48 9 4 12 0 13 -30 5z"></path>
<path d="M313 943 c-24 -2 -43 -9 -43 -14 0 -13 119 -7 123 6 2 11 -20 14 -80
8z"></path>
<path d="M6120 680 c0 -12 38 -19 167 -31 65 -5 127 -11 138 -12 11 -1 21 3
23 8 1 6 -42 15 -100 21 -174 19 -228 22 -228 14z"></path>
<path d="M6540 629 c0 -9 27 -19 51 -19 33 0 21 18 -16 22 -19 2 -35 1 -35 -3z"></path>
<path d="M6670 600 c0 -5 16 -10 36 -10 21 0 33 4 29 10 -3 6 -19 10 -36 10
-16 0 -29 -4 -29 -10z"></path>
<path d="M6770 580 c0 -5 5 -10 10 -10 6 0 10 5 10 10 0 6 -4 10 -10 10 -5 0
-10 -4 -10 -10z"></path>
<path d="M6876 505 c-3 -8 -12 -15 -21 -15 -8 0 -15 -4 -15 -10 0 -5 2 -10 5
-10 12 0 55 33 55 41 0 15 -17 10 -24 -6z"></path>
<path d="M6720 460 c0 -5 14 -10 30 -10 17 0 30 5 30 10 0 6 -13 10 -30 10
-16 0 -30 -4 -30 -10z"></path>
</g>
</svg>