 <svg version="1.0" xmlns="http://www.w3.org/2000/svg" width="700.000000pt" height="342.000000pt" viewBox="0 0 700.000000 342.000000" preserveAspectRatio="xMidYMid meet">
<metadata>
Created by potrace 1.12, written by Peter Selinger 2001-2015
</metadata>
<g transform="translate(0.000000,342.000000) scale(0.100000,-0.100000)" fill="#000000" stroke="none">
<path d="M0 2884 l0 -537 52 7 c29 3 72 6 96 6 30 0 41 3 36 12 -5 8 29 10
138 5 138 -6 204 -19 192 -38 -3 -5 2 -19 10 -31 9 -12 16 -26 16 -31 0 -5
-118 -8 -270 -6 l-270 4 0 -56 0 -57 255 -3 c185 -3 257 -7 267 -17 9 -9 9
-12 -3 -12 -10 0 -15 -10 -14 -27 0 -27 -3 -28 -55 -34 -30 -3 -44 -7 -30 -9
48 -5 -73 -20 -243 -29 -93 -5 -171 -12 -175 -15 -16 -17 28 -18 231 -7 215
11 300 7 267 -14 -16 -11 -299 -33 -422 -34 -52 -1 -78 -5 -78 -12 0 -12 61
-11 380 7 98 6 117 4 128 -9 12 -14 8 -16 -32 -22 -25 -4 -63 -5 -83 -2 -21 2
-74 -2 -118 -9 -44 -8 -121 -14 -172 -14 -82 0 -117 -9 -100 -27 3 -3 84 0
179 7 158 10 582 27 736 29 34 1 62 5 62 10 0 5 -65 11 -144 13 -79 1 -147 6
-151 10 -3 3 2 16 12 27 15 19 28 21 118 21 156 0 355 12 355 22 0 4 -18 8
-39 8 -22 0 -52 5 -68 12 -26 11 -21 12 56 19 46 4 90 10 97 13 33 13 8 24
-64 28 -86 5 -104 11 -95 33 4 12 27 15 109 15 l104 0 58 58 c65 67 154 122
296 181 92 40 137 51 81 21 -14 -7 -25 -17 -25 -22 0 -4 44 -8 98 -8 53 0 293
-4 532 -10 720 -16 1240 -20 1240 -11 0 5 -9 11 -21 14 -12 3 -19 12 -17 19 4
10 73 14 334 16 225 2 326 0 319 -7 -7 -7 -119 -12 -300 -13 -230 -2 -286 -5
-269 -15 14 -8 108 -12 305 -14 278 -3 286 -2 373 23 71 20 96 24 123 16 19
-5 33 -11 31 -13 -2 -2 -107 -47 -233 -99 -209 -87 -243 -105 -260 -140 -3 -8
-7 -7 -11 2 -9 19 -30 15 -154 -27 -63 -22 -140 -45 -172 -51 -53 -12 -58 -11
-88 10 -17 12 -52 29 -78 37 -72 22 -406 42 -722 43 -157 1 -361 3 -455 6 -93
2 -222 0 -285 -6 -63 -5 -193 -16 -288 -25 -250 -22 -342 -22 -359 1 -15 21
-18 18 -78 -73 -19 -28 -39 -54 -45 -58 -13 -8 -13 -55 0 -55 13 0 13 -21 0
-55 -8 -22 -13 -25 -24 -16 -11 9 -15 7 -21 -6 -6 -17 -7 -17 -16 0 -6 10 -7
31 -4 47 l7 30 -61 0 c-72 0 -82 -18 -13 -22 45 -3 47 -4 45 -33 -1 -17 -15
-42 -32 -60 -82 -83 -158 -194 -222 -329 -42 -89 -51 -117 -64 -216 -8 -63
-15 -142 -15 -176 0 -33 -5 -65 -11 -71 -20 -20 -23 -239 -5 -328 31 -150 157
-355 250 -404 14 -8 26 -18 26 -22 0 -4 -25 -13 -56 -20 -41 -9 -57 -10 -63
-1 -9 15 -125 42 -176 41 -61 -1 -130 -22 -130 -39 0 -18 56 -39 107 -39 51
-1 57 -18 11 -30 -137 -36 -348 -77 -451 -86 -40 -4 -75 -13 -80 -19 -4 -7
-29 -18 -57 -25 -27 -7 -70 -22 -95 -34 l-45 -22 2215 -3 c2407 -2 2222 -6
2473 44 40 8 33 21 -16 28 l-44 7 73 74 c83 84 73 79 539 265 151 61 299 114
335 120 36 6 74 15 85 20 11 4 84 20 161 34 177 32 273 61 280 84 3 9 11 28
18 42 60 116 96 414 76 641 -6 71 -12 190 -14 262 -4 157 -18 226 -53 261 -33
34 -55 33 -96 -4 -35 -30 -92 -141 -103 -200 l-7 -35 23 30 c34 44 44 53 33
30 -6 -11 -19 -38 -29 -60 -10 -22 -23 -43 -28 -47 -6 -4 -15 -21 -21 -37 -8
-24 -10 -9 -8 72 2 56 3 114 3 130 0 17 5 27 15 27 15 0 55 55 55 75 0 6 -12
15 -27 21 -18 7 -37 29 -53 60 -38 76 -48 84 -95 84 -73 0 -149 -19 -166 -41
-9 -12 -38 -27 -65 -35 -27 -8 -110 -34 -184 -58 -74 -25 -178 -56 -230 -71
-52 -15 -131 -38 -175 -52 -54 -18 -80 -22 -83 -14 -6 18 -20 13 -24 -10 -3
-19 -33 -40 -97 -69 -19 -8 -23 -22 -11 -40 8 -13 15 -13 58 3 28 9 53 17 57
17 4 0 5 -96 1 -212 -4 -117 -5 -210 -1 -206 3 3 9 104 13 225 l7 218 53 17
c29 9 73 20 98 24 l46 7 -23 -41 c-22 -38 -23 -44 -11 -99 7 -33 12 -78 12
-101 0 -28 9 -56 24 -81 14 -22 26 -58 28 -82 3 -42 4 -44 32 -42 16 1 45 15
65 31 75 60 98 125 66 182 -23 39 -18 63 25 123 22 30 40 64 40 74 0 26 -41
63 -71 64 -81 2 -56 17 132 82 106 36 195 64 197 63 5 -5 -34 -208 -68 -356
-16 -69 -32 -153 -35 -186 l-7 -62 -172 -67 c-227 -90 -320 -139 -354 -184
-14 -20 -29 -40 -33 -44 -4 -5 -17 22 -29 60 -71 223 -218 374 -370 382 -24 1
-46 4 -48 5 -9 9 33 36 56 36 40 0 130 -56 190 -118 29 -30 55 -52 59 -48 10
10 -22 127 -54 198 -28 63 -90 127 -126 130 -82 5 -117 -12 -189 -91 -50 -56
-146 -226 -134 -238 3 -3 29 3 58 13 120 40 246 9 341 -84 53 -51 92 -107 45
-64 l-25 23 -11 -28 c-6 -15 -17 -41 -23 -58 l-11 -30 -9 24 c-7 17 -5 28 6
41 8 9 18 30 21 47 5 25 1 35 -23 57 -15 15 -48 36 -73 49 -60 29 -185 31
-248 3 -37 -17 -42 -23 -42 -52 0 -18 4 -36 10 -39 5 -3 14 -25 20 -48 7 -23
27 -68 46 -100 19 -32 34 -62 34 -65 0 -4 9 -23 19 -43 29 -54 37 -124 17
-154 -25 -38 -51 -31 -91 23 -43 59 -95 155 -95 175 0 9 9 19 21 22 24 8 21
12 43 -45 10 -25 29 -73 43 -108 28 -69 46 -84 71 -58 18 18 16 24 -78 186
-27 47 -47 92 -44 101 3 12 -2 15 -26 11 -24 -3 -36 2 -60 28 -16 18 -30 37
-30 44 1 18 118 258 130 266 6 4 8 14 5 23 -4 9 9 39 34 75 60 89 132 140 234
167 l51 13 31 -36 c20 -23 36 -33 44 -28 16 10 -28 59 -74 81 -128 60 -270
-54 -395 -315 -60 -124 -53 -116 -117 -146 l-55 -27 -82 22 c-145 39 -149 42
-125 110 8 22 8 36 1 43 -18 18 -376 -52 -544 -108 -67 -22 -83 -24 -112 -14
-49 16 -63 36 -37 50 70 37 377 155 551 211 75 25 136 58 170 94 13 14 28 25
34 25 23 1 172 195 221 288 15 28 32 55 39 61 13 11 186 77 409 156 132 47
149 51 158 36 9 -14 10 -14 5 1 -4 13 2 19 22 23 15 3 56 14 92 24 36 11 128
24 205 30 306 24 321 27 331 68 8 31 -7 48 -32 35 -30 -15 -138 -26 -130 -13
5 8 -22 11 -86 11 -64 0 -88 3 -78 10 8 5 56 10 105 10 119 0 197 10 192 24
-2 6 -15 11 -28 11 -13 0 -41 13 -62 29 -36 27 -37 31 -21 43 25 18 11 20
-153 27 -78 4 -149 9 -157 12 -21 8 -64 -71 -73 -136 -7 -48 -11 -54 -38 -62
-17 -4 -46 -9 -65 -10 -19 -1 -39 -5 -45 -8 -5 -4 -21 -11 -35 -14 -14 -4 -20
-4 -14 1 7 4 14 28 17 53 2 25 8 56 12 70 4 17 4 21 -3 12 -7 -11 -11 -8 -16
12 -8 32 -28 33 -49 3 -15 -21 -16 -21 -16 -2 -1 11 6 33 14 49 8 15 15 45 15
65 l1 36 14 -25 c7 -14 17 -46 20 -72 4 -27 11 -48 15 -48 9 0 8 9 -9 127 -7
46 -6 77 5 123 22 97 30 103 48 39 21 -71 66 -293 66 -324 0 -34 10 -55 27
-55 9 0 12 7 9 18 -2 9 -12 58 -21 107 -9 50 -32 156 -52 237 l-37 147 17 54
c20 64 51 112 90 141 24 17 46 21 155 24 87 3 136 0 157 -9 17 -7 48 -14 70
-15 61 -5 149 -42 194 -81 66 -56 172 -299 231 -527 l28 -110 11 40 c14 50 14
54 -4 54 -8 0 -19 17 -25 43 -25 93 -83 255 -120 335 -41 87 -44 107 -13 80
10 -9 32 -23 50 -32 39 -20 49 -51 59 -190 7 -97 7 -98 37 -111 26 -11 27 -13
9 -17 -19 -5 -20 -9 -8 -47 14 -50 27 -56 37 -18 11 41 26 56 70 67 28 8 45 8
60 0 19 -11 18 -13 -23 -33 l-43 -22 4 -50 c4 -62 12 -73 68 -86 32 -9 53 -23
78 -54 19 -23 35 -44 35 -47 0 -3 -18 -10 -40 -17 -22 -6 -40 -14 -40 -17 0
-3 26 -34 58 -69 69 -76 135 -195 112 -203 -23 -8 -90 -81 -90 -99 0 -13 3
-13 16 -2 8 7 22 25 30 41 8 15 20 28 28 28 24 0 85 -54 83 -74 -1 -10 4 -21
11 -23 17 -7 15 12 -12 97 -13 41 -22 79 -19 83 6 9 796 0 846 -9 l27 -6 0
686 0 686 -3500 0 -3500 0 0 -536z m4166 440 c58 -4 98 -2 111 4 14 8 83 8
234 1 118 -6 228 -10 244 -10 267 5 397 -11 558 -69 134 -49 266 -141 303
-212 15 -28 19 -98 7 -98 -5 0 -40 31 -79 69 -41 39 -95 80 -127 95 -102 48
-400 106 -464 90 -19 -5 -22 -3 -17 11 6 14 3 16 -17 10 -13 -4 -40 -14 -59
-23 -19 -8 -39 -14 -45 -13 -5 2 -7 -1 -3 -5 4 -4 -2 -21 -13 -38 l-21 -31 29
31 c15 17 37 35 48 38 15 6 12 -1 -12 -26 -17 -18 -41 -55 -53 -82 -22 -53
-119 -380 -144 -488 -25 -107 -42 -129 -121 -156 -68 -23 -135 -24 -135 -1 0
17 158 552 186 630 30 85 79 185 94 194 26 16 -2 22 -162 34 -205 16 -1058 27
-1058 15 0 -5 176 -10 393 -10 383 -1 597 -13 637 -34 14 -8 20 -20 18 -40 -1
-16 5 -37 15 -48 16 -17 15 -20 -11 -44 -15 -13 -43 -35 -62 -48 -50 -33 -60
-49 -60 -93 0 -41 11 -70 42 -103 11 -12 20 -35 20 -52 1 -32 -50 -183 -66
-194 -23 -16 -76 24 -76 58 0 23 -25 38 -64 39 -16 0 -23 12 -34 58 -15 62
-35 74 -54 32 l-11 -25 -42 39 c-57 52 -95 71 -146 71 -46 0 -79 -21 -79 -52
0 -20 -28 -68 -39 -68 -4 0 -31 23 -61 50 -30 28 -65 53 -78 56 -27 8 -168
-35 -273 -82 -104 -46 -130 -45 -179 9 -37 40 -42 42 -92 41 -93 -3 -138 -21
-191 -76 -26 -28 -50 -61 -53 -74 -3 -13 -10 -24 -15 -24 -4 0 -11 -16 -15
-35 -8 -43 -19 -52 -67 -57 l-39 -3 -21 60 c-30 83 -60 135 -96 170 -27 25
-41 30 -97 33 -65 4 -66 5 -61 31 l5 26 -22 -30 c-11 -16 -57 -67 -100 -112
-44 -45 -92 -101 -107 -125 -50 -78 -50 -78 -146 -79 -127 -2 -132 -3 -135
-14 -2 -5 11 -11 27 -13 56 -5 58 -8 33 -51 -16 -28 -20 -43 -12 -51 10 -10
216 -16 231 -7 17 11 413 18 413 8 0 -17 -49 -25 -65 -11 -11 9 -39 10 -127 0
-179 -18 -557 -25 -602 -10 -50 16 -44 31 62 150 287 319 397 424 584 557 104
74 131 96 88 73 -23 -13 -64 -4 -54 12 3 5 17 7 30 4 25 -7 74 11 87 31 4 6
40 18 80 27 84 17 317 29 317 15 0 -5 37 -8 83 -7 76 1 78 2 27 7 -53 6 -53 7
-20 13 42 8 304 25 560 37 184 9 263 8 436 -5z m-1736 -218 c0 -2 -34 -31 -75
-65 -41 -34 -75 -60 -75 -57 0 5 141 125 148 126 1 0 2 -2 2 -4z m3260 -196
c0 -6 -9 -5 -20 2 -11 7 -20 16 -20 21 0 4 9 3 20 -3 11 -6 20 -15 20 -20z
m-5232 -77 c-10 -2 -28 -2 -40 0 -13 2 -5 4 17 4 22 1 32 -1 23 -4z m5 -40
c-7 -2 -19 -2 -25 0 -7 3 -2 5 12 5 14 0 19 -2 13 -5z m42 -143 c25 -11 -59
-11 -195 0 l-95 7 135 1 c74 0 144 -3 155 -8z m2595 -45 c0 -25 -23 -65 -37
-65 -10 0 -12 6 -8 21 5 15 3 20 -6 17 -7 -2 -18 -20 -24 -39 -7 -20 -18 -34
-28 -34 -20 0 -21 3 -12 56 8 44 26 57 83 58 22 1 32 -4 32 -14z m897 -42 c-1
-40 -10 -53 -39 -53 -24 0 -22 25 4 60 29 39 36 38 35 -7z m169 -18 c29 -20
33 -26 20 -31 -18 -7 -41 9 -57 38 -13 24 -7 23 37 -7z m1764 -47 c0 -6 -9 1
-20 15 -11 14 -20 29 -20 34 1 11 40 -37 40 -49z m-2020 15 c0 -5 -14 -16 -31
-25 -28 -17 -30 -11 -6 20 10 13 37 17 37 5z m-593 -19 c-3 -3 -12 -4 -19 -1
-8 3 -5 6 6 6 11 1 17 -2 13 -5z m156 -1 c-23 -2 -64 -2 -90 0 -26 2 -7 3 42
3 50 0 71 -1 48 -3z m67 -3 c0 -5 -5 -10 -11 -10 -5 0 -7 5 -4 10 3 6 8 10 11
10 2 0 4 -4 4 -10z m2695 -62 c7 -7 -11 -9 -54 -4 -35 3 -91 6 -123 6 -39 0
-57 4 -53 11 9 13 215 1 230 -13z m-3498 6 c-3 -3 -12 -4 -19 -1 -8 3 -5 6 6
6 11 1 17 -2 13 -5z m704 -20 c11 -14 8 -15 -31 -12 -24 2 -45 9 -48 16 -6 18
63 15 79 -4z m-1681 -4 c0 -5 -5 -10 -11 -10 -5 0 -7 5 -4 10 3 6 8 10 11 10
2 0 4 -4 4 -10z m-1612 -37 c-10 -2 -28 -2 -40 0 -13 2 -5 4 17 4 22 1 32 -1
23 -4z m4452 -85 c-11 -18 -20 -41 -20 -50 0 -9 -5 -20 -11 -24 -17 -10 -1 67
18 89 26 28 34 19 13 -15z m-3722 -152 c2 -3 2 -17 -2 -31 -6 -22 -11 -25 -55
-25 -68 0 -81 7 -81 43 l0 30 66 -6 c37 -4 69 -9 72 -11z m2 -105 c22 -7 21
-8 -16 -14 -48 -8 -134 1 -134 14 0 11 114 10 150 0z m1472 -32 c-3 -11 -1
-11 9 -2 10 10 16 10 28 0 12 -10 13 -9 7 2 -6 9 -4 12 5 9 34 -11 7 -77 -34
-84 -7 -1 -21 -6 -32 -10 -12 -5 -7 3 13 20 17 15 29 32 26 38 -4 5 -16 0 -29
-12 -43 -40 -129 -35 -95 5 7 9 8 15 2 15 -23 0 -48 -65 -30 -77 7 -4 8 -1 3
7 -6 9 -4 11 4 5 18 -10 -1 -27 -22 -19 -34 13 -32 46 7 81 36 33 76 44 76 21
0 -8 7 -6 17 5 20 20 50 18 45 -4z m1808 14 c0 -17 -97 -153 -124 -174 -26
-20 -116 -40 -116 -25 0 4 8 21 17 39 13 25 18 28 21 15 5 -26 21 -22 32 8 15
37 13 44 -13 44 -30 0 -80 -51 -71 -73 12 -33 -86 -167 -145 -197 -44 -22
-203 -57 -300 -66 -62 -6 -71 -5 -71 10 0 9 -4 16 -10 16 -5 0 -10 -7 -10 -15
0 -19 -13 -19 -50 0 -36 18 -75 70 -84 110 -4 17 -10 39 -13 49 -4 14 -1 18
11 13 8 -3 18 -2 21 4 11 16 61 38 72 31 6 -4 15 -20 18 -35 6 -21 4 -27 -9
-27 -23 0 -20 -42 5 -74 27 -34 82 -57 119 -49 33 6 32 5 24 26 -3 8 -14 12
-28 10 -21 -4 -23 -2 -19 22 5 23 9 25 33 20 17 -4 31 -1 35 5 10 15 41 -14
49 -46 5 -18 13 -24 32 -24 l26 0 -22 18 c-13 11 -24 33 -27 52 -2 18 -8 39
-13 45 -6 7 -8 19 -4 28 3 9 -3 24 -14 35 -20 20 -20 20 1 26 15 4 27 -1 37
-15 10 -12 22 -18 32 -14 9 4 19 1 23 -4 9 -16 25 -3 25 20 0 12 4 17 11 13 7
-4 9 -21 5 -45 -5 -31 -3 -39 9 -39 11 0 15 12 15 47 0 47 0 47 16 24 14 -19
14 -25 3 -32 -12 -8 -12 -11 1 -19 11 -7 12 -12 4 -17 -7 -5 -14 -24 -15 -43
-4 -35 -4 -35 31 -32 40 4 55 15 45 32 -6 9 -10 8 -17 -4 -11 -20 -28 -21 -28
-1 0 9 11 20 24 25 54 20 82 62 51 74 -8 3 -15 12 -15 20 0 14 -34 30 -57 27
-17 -2 -16 4 3 23 17 17 49 22 39 6 -3 -6 1 -7 9 -4 9 3 16 10 16 15 0 5 9 9
20 9 24 0 37 -25 22 -43 -12 -15 3 -61 18 -52 5 3 10 16 10 28 0 12 7 31 15
41 20 26 19 36 -2 37 -12 0 -9 3 7 8 14 5 44 18 68 30 23 12 42 19 42 17 0 -3
30 8 68 24 70 30 92 35 92 23z m1668 -79 c12 -8 29 -28 37 -44 17 -34 20 -122
4 -151 -10 -20 -12 -20 -30 -3 -18 16 -19 16 -33 -17 -9 -19 -24 -47 -35 -63
-41 -61 -36 -122 18 -233 42 -85 23 -164 -48 -195 -50 -21 -65 -18 -27 7 51
34 25 33 -61 -2 -48 -19 -97 -36 -110 -37 -12 -1 -28 -7 -35 -13 -18 -15 -88
-43 -323 -125 -196 -69 -225 -82 -213 -94 7 -6 26 -1 177 51 58 19 106 35 108
35 2 0 3 -8 1 -17 -4 -24 -3 -24 212 67 209 88 245 100 238 79 -5 -17 -273
-139 -373 -170 -38 -12 -114 -45 -168 -73 -54 -28 -122 -63 -150 -78 -29 -14
-55 -23 -58 -20 -13 13 -22 135 -10 128 7 -4 11 1 11 12 0 11 19 36 41 57 48
43 286 160 409 200 47 15 90 31 95 35 21 16 140 50 175 50 24 0 43 -7 55 -20
38 -42 62 -9 29 38 -30 43 -55 44 -153 8 -50 -19 -92 -32 -94 -30 -7 8 21 180
47 286 15 59 35 156 45 215 l18 108 74 11 c105 16 102 16 127 -2z m-3525 -31
c-7 -2 -21 -2 -30 0 -10 3 -4 5 12 5 17 0 24 -2 18 -5z m-1024 -43 c14 -47 23
-49 48 -15 16 23 21 24 56 14 40 -11 47 -23 20 -38 -14 -8 -15 -12 -6 -22 10
-10 14 -7 22 14 19 50 24 22 6 -34 -6 -18 -8 -18 -37 -3 -17 9 -40 13 -51 10
-11 -3 -29 -1 -39 5 -12 7 -18 6 -18 -1 0 -6 7 -13 15 -16 9 -4 14 -13 13 -22
-2 -12 8 -18 35 -23 62 -10 56 -22 -8 -16 -50 5 -64 11 -87 37 -30 32 -36 65
-15 73 9 3 9 7 -1 20 -10 12 -11 21 -2 36 17 32 36 25 49 -19z m730 16 c166
-16 173 -21 165 -124 -9 -108 -23 -168 -46 -188 -18 -17 -37 -19 -162 -18
-163 2 -316 18 -356 39 -44 23 -68 61 -95 148 -23 75 -23 83 -9 105 28 42 67
51 224 51 80 0 205 -6 279 -13z m1023 -29 c41 -28 42 -48 8 -125 -33 -72 -105
-148 -167 -174 -40 -16 -505 -24 -561 -9 -57 16 -72 47 -72 154 0 78 2 85 28
109 65 61 107 66 472 64 239 -1 268 -3 292 -19z m468 -54 c11 -25 18 -49 14
-52 -3 -3 -19 -6 -35 -7 -22 -1 -29 2 -25 12 3 8 -1 14 -9 14 -8 0 -15 -4 -15
-10 0 -12 -47 -14 -54 -2 -2 4 2 16 10 27 8 10 14 14 14 8 0 -7 14 -11 31 -11
28 1 30 3 25 29 -5 24 -2 29 21 38 1 1 11 -20 23 -46z m-2353 -9 c-3 -4 -13
-4 -22 0 -13 5 -14 10 -4 28 l12 23 10 -23 c6 -12 7 -25 4 -28z m2273 26 c0
-5 -4 -10 -9 -10 -6 0 -13 5 -16 10 -3 6 1 10 9 10 9 0 16 -4 16 -10z m341 -3
c-1 -4 -1 -19 -1 -33 0 -14 -4 -23 -10 -19 -14 8 -13 68 1 63 6 -2 10 -7 10
-11z m-2539 -123 c40 -20 60 -25 94 -20 47 5 60 -9 22 -23 -26 -9 -61 -1 -123
29 -49 24 -60 35 -69 70 -7 24 -6 24 9 -2 9 -16 39 -40 67 -54z m178 56 c0 -5
-4 -10 -9 -10 -6 0 -13 5 -16 10 -3 6 1 10 9 10 9 0 16 -4 16 -10z m2510 6 c0
-2 -8 -10 -17 -17 -16 -13 -17 -12 -4 4 13 16 21 21 21 13z m-503 -43 c18 -37
11 -39 -11 -3 -9 17 -14 30 -9 30 4 0 14 -12 20 -27z m-2282 -33 c3 -5 2 -10
-4 -10 -5 0 -13 5 -16 10 -3 6 -2 10 4 10 5 0 13 -4 16 -10z m4946 -7 c11 -13
11 -15 1 -9 -11 7 -12 -5 -6 -63 5 -50 3 -71 -5 -71 -6 0 -11 -8 -11 -17 -1
-37 -17 11 -24 69 -4 32 -11 60 -16 63 -15 9 -60 -101 -60 -147 0 -51 29 -117
70 -165 17 -18 30 -38 30 -44 0 -19 31 20 50 65 15 33 18 56 14 92 l-7 49 24
-24 c19 -20 23 -35 23 -85 0 -95 -15 -150 -42 -154 -23 -4 -30 16 -12 34 5 5
6 15 0 23 -7 12 -11 12 -24 2 -18 -15 -11 -71 11 -84 7 -4 13 -13 13 -18 0 -6
-5 -7 -11 -3 -8 5 -10 -4 -7 -29 2 -20 0 -33 -4 -31 -4 3 -8 14 -8 26 0 13 -5
18 -14 15 -10 -4 -16 2 -18 16 -2 17 -13 25 -44 32 -75 18 -77 23 -71 165 4
103 10 138 31 195 40 103 83 140 117 98z m-4 -195 c-3 -7 -5 -2 -5 12 0 14 2
19 5 13 2 -7 2 -19 0 -25z m-2212 -92 c-16 -37 -17 -37 -35 -21 -17 15 -32 17
-102 11 -46 -4 -94 -9 -108 -11 -56 -11 12 11 125 40 66 17 123 28 128 25 4
-4 0 -23 -8 -44z m2202 22 c-3 -7 -5 -2 -5 12 0 14 2 19 5 13 2 -7 2 -19 0
-25z m-202 -55 c-5 -45 -27 -93 -44 -93 -5 0 2 30 15 68 13 37 24 68 24 70 0
1 2 2 5 2 3 0 3 -21 0 -47z m235 17 c0 -11 -2 -20 -4 -20 -2 0 -6 9 -9 20 -3
11 -1 20 4 20 5 0 9 -9 9 -20z m-4987 -6 c20 -7 22 -23 6 -58 -10 -20 -9 -28
5 -41 12 -12 13 -21 6 -36 -6 -10 -14 -18 -18 -17 -4 1 -15 -2 -25 -7 -13 -5
-25 -1 -43 15 -13 13 -24 19 -24 14 0 -5 -5 -1 -11 9 -13 22 -2 40 19 32 8 -3
19 0 23 6 4 6 12 8 18 4 9 -5 9 -10 1 -20 -8 -10 -8 -15 0 -20 16 -10 17 -7
23 57 5 47 2 60 -11 68 -11 7 -12 9 -2 6 8 -3 23 -9 33 -12z m-38 -34 c3 -5
-1 -10 -10 -10 -9 0 -13 5 -10 10 3 6 8 10 10 10 2 0 7 -4 10 -10z m2593 -132
c-9 -87 -72 -127 -145 -90 -53 28 -76 57 -77 97 -1 39 -10 43 -38 18 -24 -22
-23 -1 2 28 15 19 22 21 28 11 7 -10 13 -7 26 12 9 14 25 26 36 26 19 0 19 -2
-6 -40 -24 -36 -25 -43 -14 -70 12 -28 16 -30 44 -24 17 4 37 10 46 14 8 4 27
13 43 19 28 11 37 39 15 46 -7 2 -34 6 -60 10 -52 7 -66 25 -20 25 15 0 36 7
47 16 19 14 22 13 49 -17 25 -28 28 -38 24 -81z m-2448 -32 l-1 -31 -19 24
c-11 13 -20 37 -20 55 l1 31 19 -24 c11 -13 20 -37 20 -55z m2340 49 c0 -20
-5 -25 -25 -25 -18 0 -25 5 -25 18 0 24 8 32 32 32 13 0 18 -7 18 -25z m1079
-55 c-4 -8 -19 -50 -34 -92 -15 -43 -35 -88 -45 -100 -33 -43 -61 -109 -55
-129 15 -45 55 -10 84 72 21 61 56 125 82 151 17 17 18 17 22 0 8 -38 -53
-158 -117 -229 -33 -38 -42 -40 -68 -16 -34 30 -26 63 58 241 24 52 44 95 44
97 0 2 5 16 11 32 10 26 12 26 19 8 4 -11 4 -27 -1 -35z m-1453 21 c-3 -5 1
-21 9 -37 7 -15 12 -31 9 -36 -3 -4 1 -8 8 -8 7 -1 -4 -16 -26 -35 l-39 -34
27 -11 c29 -11 318 -30 463 -30 91 0 93 -1 99 -25 17 -67 -19 -285 -53 -326
-41 -49 -255 -102 -370 -93 -63 6 -262 61 -308 87 -60 33 -83 39 -167 47 -51
5 -214 14 -363 20 -478 20 -969 50 -979 60 -13 13 15 13 301 -5 657 -40 1254
-54 1518 -36 226 16 276 31 259 75 -15 38 -38 41 -389 41 -347 1 -420 6 -411
31 3 7 -3 18 -12 23 -14 8 -17 25 -17 105 1 129 -3 127 186 120 133 -5 150 -4
185 14 22 11 45 30 52 41 7 12 15 21 18 21 3 0 3 -4 0 -9z m254 -36 c0 -8 12
-21 28 -29 15 -9 20 -15 12 -16 -30 0 -80 42 -80 68 0 10 5 10 20 2 11 -6 20
-17 20 -25z m2497 3 c-3 -7 -5 -2 -5 12 0 14 2 19 5 13 2 -7 2 -19 0 -25z
m-3672 -19 c295 -10 363 -15 378 -27 14 -12 17 -32 17 -114 l0 -99 -217 5
c-263 7 -631 25 -693 34 -43 7 -45 9 -47 42 -2 32 -2 33 9 13 17 -34 28 -28
28 15 0 24 3 32 9 24 4 -8 12 -12 17 -11 5 2 11 -10 14 -26 3 -15 11 -30 18
-33 13 -4 17 64 6 131 -8 46 -18 47 -34 5 l-11 -33 -22 40 -22 40 -3 -47 c-2
-27 -7 -48 -13 -48 -11 0 -12 93 -1 105 4 4 52 5 107 1 55 -3 262 -11 460 -17z
m390 2 c3 -5 1 -12 -5 -16 -5 -3 -10 1 -10 9 0 18 6 21 15 7z m3393 -58 l-5
-58 13 40 c18 59 18 6 -1 -65 -8 -30 -15 -84 -15 -119 l0 -63 27 7 c52 13 55
21 48 119 -3 50 -9 100 -12 110 -4 13 -1 17 8 14 11 -4 14 4 12 36 -1 22 0 33
3 23 3 -9 9 -15 13 -13 4 3 6 -53 6 -122 -2 -206 -50 -293 -118 -212 -27 32
-72 153 -64 173 3 6 6 1 6 -13 1 -14 5 -20 10 -15 11 13 47 128 56 178 9 58
18 44 13 -20z m-75 -17 c-29 -40 -36 -30 -11 15 15 27 24 36 26 26 2 -9 -5
-28 -15 -41z m-4936 18 c-3 -3 -12 -4 -19 -1 -8 3 -5 6 6 6 11 1 17 -2 13 -5z
m626 -74 c3 -11 1 -23 -4 -26 -5 -3 -9 6 -9 20 0 31 6 34 13 6z m-844 -124
c20 -101 29 -247 15 -233 -12 12 -44 220 -44 286 0 35 2 62 4 60 2 -2 13 -53
25 -113z m5138 92 c-3 -8 -6 -5 -6 6 -1 11 2 17 5 13 3 -3 4 -12 1 -19z
m-2059 -59 c25 -68 78 -399 68 -424 -9 -25 -44 -17 -83 18 -34 32 -36 37 -41
109 -7 116 8 370 22 365 6 -2 21 -32 34 -68z m-2927 -43 c26 -22 77 -37 219
-65 23 -4 36 -13 39 -26 2 -11 16 -33 32 -49 44 -45 37 -78 -18 -89 -57 -11
-243 64 -295 120 -19 20 -20 27 -10 44 15 23 7 59 -13 59 -7 0 -15 7 -19 15
-9 24 32 18 65 -9z m3689 -17 c0 -6 -4 -7 -10 -4 -5 3 -10 11 -10 16 0 6 5 7
10 4 6 -3 10 -11 10 -16z m349 -89 c-28 -50 -53 -89 -55 -87 -2 1 0 36 3 75
l6 73 46 22 c25 12 47 19 49 15 2 -4 -20 -48 -49 -98z m527 71 c5 -5 36 -11
70 -14 67 -4 84 -11 84 -33 0 -10 -6 -14 -17 -10 -10 2 -56 7 -103 11 -47 3
-107 9 -135 12 l-50 6 55 18 c64 21 82 23 96 10z m-846 -67 c39 -13 73 -28
152 -65 12 -6 18 -3 22 9 3 9 3 -10 0 -43 -11 -116 -81 -286 -145 -350 -11
-11 0 11 25 48 56 83 66 117 41 131 -9 6 -72 47 -139 91 -109 72 -121 83 -124
112 -2 17 4 46 13 63 16 31 18 32 63 25 26 -3 67 -13 92 -21z m-276 0 c5 -13
9 -14 20 -5 20 16 54 22 62 10 8 -13 -33 -52 -46 -44 -6 4 -7 12 -3 18 4 8 1
7 -9 -1 -11 -9 -18 -10 -23 -2 -12 19 -41 10 -101 -28 -32 -22 -72 -47 -88
-56 -18 -11 -25 -21 -19 -27 12 -12 176 42 203 66 22 20 27 6 10 -26 -11 -20
-292 -209 -312 -209 -3 0 -1 24 3 53 23 163 29 191 39 201 19 19 163 63 211
64 35 2 48 -2 53 -14z m92 -95 c17 -19 19 -38 19 -220 0 -144 -3 -201 -12
-210 -10 -10 -14 -6 -19 19 -9 45 -24 40 -26 -8 -1 -22 -2 -48 -2 -57 -2 -36
88 -11 162 44 17 13 32 20 32 16 0 -14 -93 -72 -143 -89 -75 -25 -188 -16
-256 21 -58 32 -133 109 -169 173 -32 58 -11 53 27 -7 39 -61 115 -132 169
-160 53 -27 72 -27 72 2 0 52 70 470 81 483 17 20 43 17 65 -7z m-3606 -116
c0 -17 -10 -16 -32 4 -26 23 -22 35 7 21 14 -6 25 -17 25 -25z"></path>
<path d="M3293 3283 c26 -2 67 -2 90 0 23 2 2 3 -48 3 -49 0 -68 -1 -42 -3z"></path>
<path d="M3008 3263 c12 -2 32 -2 45 0 12 2 2 4 -23 4 -25 0 -35 -2 -22 -4z"></path>
<path d="M3337 3144 c-47 -31 -101 -104 -88 -117 13 -13 93 -21 135 -13 39 8
106 69 106 99 0 23 -17 22 -30 -3 -9 -16 -21 -20 -65 -20 -30 0 -55 4 -55 9 0
5 18 16 40 25 36 14 54 36 31 36 -5 0 -15 2 -23 5 -7 3 -30 -6 -51 -21z"></path>
<path d="M4750 3068 c-19 -32 -75 -196 -86 -255 -4 -20 -2 -33 4 -33 6 0 14
15 18 33 3 17 26 89 50 160 23 70 40 127 38 127 -2 0 -13 -14 -24 -32z"></path>
<path d="M3780 2900 c0 -5 9 -10 20 -10 11 0 20 5 20 10 0 6 -9 10 -20 10 -11
0 -20 -4 -20 -10z"></path>
<path d="M4370 2870 c0 -5 5 -10 11 -10 5 0 7 5 4 10 -3 6 -8 10 -11 10 -2 0
-4 -4 -4 -10z"></path>
<path d="M4385 2840 c-3 -5 -1 -10 4 -10 6 0 11 5 11 10 0 6 -2 10 -4 10 -3 0
-8 -4 -11 -10z"></path>
<path d="M1960 2500 c0 -5 7 -10 15 -10 8 0 15 5 15 10 0 6 -7 10 -15 10 -8 0
-15 -4 -15 -10z"></path>
<path d="M4015 1950 c-3 -5 1 -10 9 -10 8 0 18 5 21 10 3 6 -1 10 -9 10 -8 0
-18 -4 -21 -10z"></path>
<path d="M3584 1753 c8 -17 12 -40 9 -52 -5 -19 -2 -22 17 -19 32 4 34 19 8
58 -31 45 -56 54 -34 13z"></path>
<path d="M3256 1725 c8 -40 41 -93 67 -106 18 -9 20 -9 10 2 -7 7 -13 21 -13
31 0 11 -7 18 -19 18 -14 0 -24 13 -35 43 -11 28 -14 32 -10 12z"></path>
<path d="M1541 1843 c-21 -18 -22 -18 -3 -55 13 -24 16 -40 9 -47 -13 -13 31
-100 63 -122 32 -23 147 -38 335 -45 195 -8 189 -12 193 131 2 59 0 111 -5
116 -10 10 -57 15 -283 29 -240 14 -284 13 -309 -7z"></path>
<path d="M2361 1823 c-82 -10 -99 -52 -61 -150 17 -45 18 -53 5 -53 -8 0 -15
5 -15 10 0 6 -4 10 -10 10 -14 0 -12 -33 4 -55 11 -15 33 -20 125 -26 159 -10
438 3 477 24 33 17 63 58 113 151 29 56 30 61 14 78 -15 17 -37 18 -317 16
-166 0 -316 -3 -335 -5z"></path>
<path d="M5970 1292 c0 -4 15 -23 34 -41 36 -35 58 -35 49 -1 -8 29 -83 67
-83 42z"></path>
<path d="M3562 1136 c-34 -13 -33 -26 3 -26 21 0 45 17 45 32 0 10 -6 9 -48
-6z"></path>
<path d="M3634 705 c-7 -18 2 -45 15 -45 14 0 33 38 26 50 -9 15 -35 12 -41
-5z"></path>
<path d="M1927 1103 c-13 -12 -8 -150 6 -161 6 -6 29 -10 50 -9 37 1 37 1 37
43 0 35 -4 44 -21 49 -30 10 -48 -11 -24 -28 19 -15 13 -37 -9 -37 -13 0 -26
42 -26 86 0 27 17 41 33 25 16 -16 37 -14 37 4 0 23 -66 45 -83 28z"></path>
<path d="M2058 1095 c-3 -3 -1 -31 4 -61 7 -48 6 -60 -9 -76 -15 -17 -15 -21
-3 -28 8 -6 27 -10 43 -10 30 0 37 23 11 38 -14 8 -16 21 -12 76 5 58 4 66
-11 66 -10 0 -20 -2 -23 -5z"></path>
<path d="M2195 1091 c-12 -11 -3 -21 20 -21 28 0 32 -12 10 -30 -21 -17 -19
-37 5 -43 12 -3 20 -14 20 -26 0 -26 -17 -27 -43 -4 -18 17 -19 17 -15 -12 2
-24 8 -31 31 -33 16 -2 35 2 43 9 18 15 18 63 -1 79 -12 10 -12 15 1 35 9 13
13 28 10 33 -6 10 -74 21 -81 13z"></path>
<path d="M2302 1078 c3 -7 14 -14 26 -16 26 -4 28 -15 7 -32 -20 -17 -19 -27
5 -33 12 -3 20 -14 20 -25 0 -28 -20 -39 -35 -19 -17 24 -27 21 -23 -5 4 -27
50 -37 74 -17 19 15 18 63 -1 79 -14 12 -14 15 1 31 26 29 11 49 -37 49 -28 0
-39 -4 -37 -12z"></path>
<path d="M2435 1040 c-34 -66 -33 -100 0 -100 14 0 28 -7 31 -15 9 -22 21 -18
28 9 7 27 -8 76 -23 76 -5 0 -12 -10 -16 -22 -3 -13 -8 -18 -11 -12 -3 7 6 32
20 57 23 41 25 57 5 57 -5 0 -20 -22 -34 -50z"></path>
<path d="M2534 1045 c-17 -42 -18 -107 -2 -123 7 -7 21 -12 33 -12 31 0 45 19
45 62 0 32 -4 40 -25 48 -22 8 -24 13 -15 29 14 26 13 31 -6 31 -8 0 -22 -16
-30 -35z m51 -65 c7 -23 -1 -40 -20 -40 -16 0 -26 25 -19 45 9 21 32 19 39 -5z"></path>
<path d="M1854 1032 c-16 -11 -12 -80 5 -87 8 -3 19 -1 25 5 7 7 6 10 -2 10
-9 0 -11 10 -7 34 7 34 -2 50 -21 38z"></path>
<path d="M4524 723 c-8 -30 20 -59 65 -69 23 -4 77 -18 106 -26 5 -2 11 5 13
14 2 12 -7 22 -25 30 -15 7 -50 28 -76 46 -59 39 -75 40 -83 5z"></path>
<path d="M4800 650 c-35 -7 -30 -13 18 -23 17 -4 22 -1 22 14 0 10 -1 18 -2
18 -2 -1 -19 -5 -38 -9z"></path>
<path d="M4768 558 c12 -12 24 -19 28 -15 10 10 -16 37 -34 37 -13 0 -12 -4 6
-22z"></path>
<path d="M4443 648 c-10 -16 -11 -298 -1 -298 18 0 55 241 44 284 -7 27 -29
35 -43 14z"></path>
<path d="M4400 268 c-6 -24 -15 -56 -20 -72 -11 -33 -7 -41 13 -33 8 3 18 27
21 54 4 26 10 58 13 71 10 42 -16 22 -27 -20z"></path>
<path d="M5300 3046 c0 -2 9 -25 20 -51 39 -91 128 -424 145 -537 3 -27 11
-48 16 -48 11 0 5 47 -27 195 -38 175 -126 445 -145 445 -5 0 -9 -2 -9 -4z"></path>
<path d="M5264 2995 c2 -11 20 -75 39 -141 19 -67 45 -168 58 -225 21 -97 39
-146 39 -106 0 32 -88 363 -114 427 -15 36 -25 56 -22 45z"></path>
<path d="M5762 2460 c0 -14 2 -19 5 -12 2 6 2 18 0 25 -3 6 -5 1 -5 -13z"></path>
<path d="M5670 2355 c-7 -9 -8 -15 -2 -15 5 0 12 7 16 15 3 8 4 15 2 15 -2 0
-9 -7 -16 -15z"></path>
<path d="M5578 2323 c-51 -15 -67 -38 -20 -27 44 9 82 26 82 35 0 11 -3 11
-62 -8z"></path>
<path d="M2101 2307 c-6 -6 -11 -19 -11 -30 0 -28 54 -20 58 9 3 24 -29 39
-47 21z"></path>
<path d="M3107 2293 c-10 -10 -8 -41 3 -48 16 -10 50 14 50 35 0 14 -7 20 -23
20 -13 0 -27 -3 -30 -7z"></path>
<path d="M5437 2172 c-40 -44 -3 -57 86 -30 40 12 51 28 14 21 -14 -3 -29 2
-36 11 -18 21 -44 20 -64 -2z"></path>
<path d="M5590 2160 c0 -11 5 -20 10 -20 6 0 10 9 10 20 0 11 -4 20 -10 20 -5
0 -10 -9 -10 -20z"></path>
<path d="M5441 2111 c-17 -11 -5 -71 15 -71 8 0 14 -7 14 -15 0 -10 10 -15 30
-15 23 0 31 5 36 25 3 14 15 30 25 36 11 5 19 19 19 29 0 23 -15 27 -24 5 -3
-8 -12 -15 -21 -15 -8 0 -15 7 -15 15 0 17 -55 21 -79 6z"></path>
<path d="M5600 2085 c0 -14 5 -25 10 -25 6 0 10 11 10 25 0 14 -4 25 -10 25
-5 0 -10 -11 -10 -25z"></path>
<path d="M4820 2040 c0 -5 5 -10 10 -10 6 0 10 5 10 10 0 6 -4 10 -10 10 -5 0
-10 -4 -10 -10z"></path>
<path d="M5880 2040 c0 -5 5 -10 10 -10 6 0 10 5 10 10 0 6 -4 10 -10 10 -5 0
-10 -4 -10 -10z"></path>
<path d="M4830 2000 c0 -5 5 -10 10 -10 6 0 10 5 10 10 0 6 -4 10 -10 10 -5 0
-10 -4 -10 -10z"></path>
<path d="M4840 1960 c0 -5 5 -10 10 -10 6 0 10 5 10 10 0 6 -4 10 -10 10 -5 0
-10 -4 -10 -10z"></path>
<path d="M4850 1910 c0 -5 5 -10 10 -10 6 0 10 5 10 10 0 6 -4 10 -10 10 -5 0
-10 -4 -10 -10z"></path>
<path d="M4860 1845 c0 -14 5 -25 10 -25 6 0 10 11 10 25 0 14 -4 25 -10 25
-5 0 -10 -11 -10 -25z"></path>
<path d="M4050 1680 c0 -5 7 -10 15 -10 8 0 15 5 15 10 0 6 -7 10 -15 10 -8 0
-15 -4 -15 -10z"></path>
<path d="M6920 154 c-25 -7 -88 -23 -139 -35 -104 -23 -143 -38 -135 -50 2 -4
-4 -7 -13 -7 -10 0 -52 -13 -93 -30 l-75 -31 268 -1 267 0 0 85 c0 96 2 94
-80 69z m-206 -83 c20 -8 20 -8 0 -13 -11 -3 -25 1 -32 9 -15 15 -1 17 32 4z"></path>
</g>
</svg>