 <svg version="1.0" xmlns="http://www.w3.org/2000/svg" width="700.000000pt" height="511.000000pt" viewBox="0 0 700.000000 511.000000" preserveAspectRatio="xMidYMid meet">
<metadata>
Created by potrace 1.12, written by Peter Selinger 2001-2015
</metadata>
<g transform="translate(0.000000,511.000000) scale(0.100000,-0.100000)" fill="#000000" stroke="none">
<path d="M2350 4160 c0 -11 5 -20 10 -20 6 0 10 9 10 20 0 11 -4 20 -10 20 -5
0 -10 -9 -10 -20z"></path>
<path d="M2360 4065 c0 -8 5 -15 10 -15 6 0 10 7 10 15 0 8 -4 15 -10 15 -5 0
-10 -7 -10 -15z"></path>
<path d="M2370 3940 c0 -11 5 -20 10 -20 6 0 10 9 10 20 0 11 -4 20 -10 20 -5
0 -10 -9 -10 -20z"></path>
<path d="M2972 3928 c-15 -4 -70 -8 -122 -9 -52 -1 -117 -5 -145 -10 -27 -5
-81 -10 -120 -12 -38 -2 -72 -8 -73 -13 -2 -5 -9 -15 -15 -23 -10 -12 -7 -13
18 -6 40 10 81 13 265 19 86 3 167 9 181 14 61 24 728 21 894 -3 60 -9 112
-18 114 -21 13 -13 -16 -14 -100 -3 -202 25 -806 0 -1323 -55 -76 -9 -141 -15
-145 -14 -3 1 -13 -1 -21 -5 -8 -3 -52 -11 -97 -17 -46 -7 -88 -19 -94 -26
-17 -21 1 -230 36 -414 8 -41 16 -101 17 -134 3 -52 1 -59 -19 -67 -14 -5 -25
-4 -29 3 -4 7 -3 8 5 4 8 -5 10 3 6 31 -3 21 -10 79 -15 128 -6 50 -15 131
-20 180 -6 50 -14 137 -19 195 -5 58 -11 112 -15 120 -5 12 13 18 101 33 60 9
120 17 136 17 21 0 27 5 27 21 0 17 -4 20 -22 15 -46 -14 -175 -38 -248 -45
-41 -4 -120 -19 -174 -32 l-99 -24 -32 -50 c-72 -111 -202 -402 -188 -416 5
-5 35 -5 67 -1 l59 7 48 139 c26 76 61 159 76 185 28 44 31 46 87 53 33 4 61
10 64 13 14 14 -14 17 -80 9 l-73 -9 -34 -70 c-19 -38 -54 -122 -77 -185 -41
-111 -61 -138 -84 -113 -14 14 108 293 148 337 9 10 16 26 14 36 -4 25 15 36
98 58 101 26 160 36 161 25 1 -4 3 -61 5 -125 2 -88 0 -118 -9 -118 -8 0 -12
-18 -12 -52 0 -29 -11 -90 -23 -136 -23 -82 -26 -145 -5 -92 9 23 10 21 10
-17 0 -42 0 -42 -41 -48 -54 -8 -87 -9 -237 -7 -106 2 -130 5 -149 20 -23 18
-20 19 119 18 121 -1 141 1 139 14 -3 13 -25 14 -141 11 -97 -2 -141 0 -151 9
-8 6 -25 10 -38 8 -22 -3 -23 -8 -26 -94 l-3 -91 -67 -7 c-37 -3 -139 -13
-227 -21 -222 -21 -217 -19 -232 -86 -14 -67 -16 -112 -4 -105 5 3 12 33 16
67 4 33 12 62 19 65 6 2 108 13 226 23 118 10 222 21 230 23 11 2 14 -4 13
-22 -2 -14 -5 -59 -8 -100 -3 -41 -8 -90 -11 -109 l-5 -33 -47 7 c-26 4 -61
13 -78 20 -35 14 -54 5 -54 -26 0 -10 -4 -21 -10 -24 -5 -3 -10 -15 -10 -25 0
-20 31 -28 133 -34 32 -2 62 -7 67 -12 9 -10 33 -212 25 -223 -5 -9 -137 7
-146 17 -3 4 -13 33 -23 65 -9 31 -22 57 -28 57 -6 0 -8 -9 -4 -22 16 -53 18
-86 6 -93 -12 -8 -25 8 -75 89 -16 27 -36 51 -43 54 -15 5 -7 -19 23 -68 31
-51 97 -236 135 -380 18 -69 38 -131 43 -137 23 -30 23 -7 1 75 -13 48 -23 98
-22 112 1 14 -6 36 -15 51 -9 14 -19 39 -23 55 -7 37 9 53 74 70 26 7 41 13
35 13 -30 2 -10 16 21 16 30 0 34 -3 34 -25 -1 -82 64 -405 86 -427 15 -15 12
7 -10 97 -13 52 -24 105 -24 118 0 12 -5 30 -11 40 -7 12 -8 40 -2 86 7 65 10
70 36 77 15 4 56 3 90 -2 84 -12 217 -11 217 1 0 6 -8 10 -18 10 -9 0 -76 7
-147 15 -119 14 -131 14 -142 -1 -21 -29 -41 23 -52 140 -6 60 -11 113 -11
118 0 4 11 8 25 8 14 0 25 -4 25 -8 0 -4 8 -8 18 -8 9 -1 41 -5 70 -9 35 -5
52 -4 52 3 0 6 -10 13 -22 15 -13 2 0 4 27 4 28 1 42 -1 33 -4 -22 -6 -24 -23
-3 -23 22 0 75 45 76 65 0 5 -33 19 -73 30 -63 18 -73 24 -72 43 0 14 -4 21
-12 18 -7 -3 -14 7 -18 25 -3 16 -12 29 -20 29 -25 0 -28 -18 -6 -40 12 -12
20 -22 18 -23 -1 -1 -18 -10 -35 -20 -30 -17 -34 -17 -58 -1 -22 15 -25 23
-25 79 0 34 5 87 11 116 6 30 12 61 13 69 1 8 8 25 14 38 12 21 19 22 118 22
95 0 105 -2 102 -17 -3 -15 -15 -18 -68 -20 -36 -2 -84 -5 -107 -9 -39 -5 -43
-8 -43 -33 0 -49 16 -54 173 -48 79 2 153 10 165 16 11 6 50 11 87 11 60 0 66
-2 77 -25 6 -14 23 -28 37 -31 14 -3 53 -14 87 -25 68 -22 91 -18 105 17 4 13
15 24 24 24 28 0 16 17 -26 35 -22 10 -52 32 -66 49 -24 29 -25 31 -7 35 10 1
26 9 34 16 19 16 115 45 149 45 14 0 55 6 91 14 124 28 270 46 365 46 53 0
105 5 116 11 29 15 199 34 334 37 74 2 99 16 50 28 -38 9 -30 21 21 29 47 7
69 0 45 -14 -16 -10 -6 -31 13 -31 8 0 16 9 19 20 4 16 13 20 44 20 36 -1 37
-1 18 -16 -19 -15 -15 -16 50 -10 339 29 531 38 787 40 191 0 298 5 298 11 0
6 -14 18 -30 27 -17 10 -37 31 -44 48 -22 52 -326 296 -508 407 -95 58 -137
69 -343 94 -109 13 -718 19 -763 7z m328 -158 c0 -5 -4 -10 -10 -10 -5 0 -10
5 -10 10 0 6 5 10 10 10 6 0 10 -4 10 -10z m597 -15 c46 -20 371 -236 400
-267 26 -28 56 -105 43 -113 -4 -3 -39 1 -77 9 -84 17 -222 36 -287 39 l-49 2
-56 111 c-31 61 -72 134 -91 163 -27 43 -31 54 -19 62 22 14 96 11 136 -6z
m363 -96 c63 -44 100 -75 100 -83 0 -12 -48 -6 -53 7 -3 7 -35 31 -71 52 -61
36 -76 52 -60 68 8 8 11 6 84 -44z m-930 -15 c17 -17 -11 -34 -66 -42 -44 -7
-48 -10 -57 -42 -5 -19 -7 -83 -5 -142 2 -65 -1 -108 -6 -108 -6 0 -1 -7 10
-15 18 -14 16 -15 -21 -9 -58 8 -65 12 -59 28 9 24 -216 26 -326 3 -47 -10
-93 -16 -102 -13 -9 2 -59 -5 -110 -15 -121 -24 -121 -24 -107 2 19 36 7 157
-21 214 l-25 50 -66 -3 c-66 -4 -67 -4 -83 29 -9 18 -15 33 -14 35 4 4 382 34
473 38 183 7 574 1 585 -10z m-1010 -133 c13 -25 13 -101 0 -101 -5 0 -10 6
-11 13 0 6 -4 33 -8 60 -8 49 1 62 19 28z m1525 -80 c-6 -5 -28 -11 -50 -15
-37 -6 -39 -5 -21 9 21 16 87 22 71 6z m-128 -26 c7 -21 -21 -41 -76 -55 -80
-20 -78 27 1 56 47 17 68 16 75 -1z m63 -54 c0 -9 -52 -22 -60 -15 -7 7 23 24
43 24 9 0 17 -4 17 -9z m-1122 -78 c-10 -2 -28 -2 -40 0 -13 2 -5 4 17 4 22 1
32 -1 23 -4z m-980 -528 c8 -8 -20 -35 -37 -35 -27 0 -44 17 -37 35 5 14 13
16 38 11 17 -3 34 -8 36 -11z"></path>
<path d="M2434 3885 c-4 -9 -3 -19 0 -23 9 -8 42 12 39 24 -4 16 -33 16 -39
-1z"></path>
<path d="M4707 3483 c-15 -15 -5 -22 23 -17 48 10 98 -4 117 -32 13 -20 14
-27 4 -33 -19 -12 -154 -22 -164 -12 -5 5 -11 27 -14 50 -5 38 -8 42 -32 39
-48 -6 -38 -40 27 -97 l60 -51 75 0 c42 0 79 5 82 10 13 20 -8 104 -31 127
-19 19 -34 23 -82 23 -32 0 -62 -3 -65 -7z"></path>
<path d="M1917 3295 c18 -25 33 -32 33 -17 0 10 -33 42 -44 42 -4 0 1 -11 11
-25z"></path>
<path d="M4300 3290 c0 -5 7 -10 15 -10 8 0 15 5 15 10 0 6 -7 10 -15 10 -8 0
-15 -4 -15 -10z"></path>
<path d="M3655 3264 c-11 -1 -75 -8 -142 -15 -119 -12 -123 -13 -123 -36 0
-25 0 -25 90 -2 19 5 58 9 85 9 63 0 223 -26 239 -39 17 -14 123 -49 169 -56
23 -4 121 0 217 9 96 8 303 23 460 32 311 18 335 23 292 66 -20 20 -31 23
-100 21 -132 -4 -264 -12 -648 -40 -352 -26 -372 -26 -406 -10 -20 9 -48 17
-63 17 -44 0 -23 25 23 28 64 5 50 22 -15 21 -32 -1 -67 -3 -78 -5z"></path>
<path d="M1940 3230 c0 -5 5 -10 10 -10 6 0 10 5 10 10 0 6 -4 10 -10 10 -5 0
-10 -4 -10 -10z"></path>
<path d="M5230 3232 c0 -6 12 -13 28 -16 15 -4 35 -9 45 -12 9 -3 17 -1 17 4
0 6 -12 13 -27 16 -16 4 -36 9 -45 12 -10 3 -18 1 -18 -4z"></path>
<path d="M3030 3220 c0 -5 9 -10 20 -10 11 0 20 5 20 10 0 6 -9 10 -20 10 -11
0 -20 -4 -20 -10z"></path>
<path d="M5440 3191 c0 -5 23 -12 52 -15 43 -6 59 -14 95 -50 24 -24 43 -42
43 -39 0 2 -11 21 -25 43 -20 31 -35 42 -77 55 -58 17 -88 19 -88 6z"></path>
<path d="M3400 3150 c0 -5 14 -10 30 -10 17 0 30 5 30 10 0 6 -13 10 -30 10
-16 0 -30 -4 -30 -10z"></path>
<path d="M2444 3106 c-12 -41 -10 -46 23 -46 25 0 31 15 9 23 -8 3 -16 18 -18
32 -3 25 -4 25 -14 -9z"></path>
<path d="M4550 3120 c0 -5 20 -10 45 -10 25 0 45 5 45 10 0 6 -20 10 -45 10
-25 0 -45 -4 -45 -10z"></path>
<path d="M4420 3110 c0 -5 9 -10 20 -10 11 0 20 5 20 10 0 6 -9 10 -20 10 -11
0 -20 -4 -20 -10z"></path>
<path d="M3870 3100 c0 -5 9 -10 20 -10 11 0 20 5 20 10 0 6 -9 10 -20 10 -11
0 -20 -4 -20 -10z"></path>
<path d="M4310 3100 c0 -5 5 -10 10 -10 6 0 10 5 10 10 0 6 -4 10 -10 10 -5 0
-10 -4 -10 -10z"></path>
<path d="M3730 3090 c0 -5 25 -10 55 -10 30 0 55 5 55 10 0 6 -25 10 -55 10
-30 0 -55 -4 -55 -10z"></path>
<path d="M3610 3080 c0 -5 23 -10 50 -10 28 0 50 5 50 10 0 6 -22 10 -50 10
-27 0 -50 -4 -50 -10z"></path>
<path d="M3510 3070 c0 -5 7 -10 15 -10 8 0 15 5 15 10 0 6 -7 10 -15 10 -8 0
-15 -4 -15 -10z"></path>
<path d="M3570 3070 c0 -5 5 -10 10 -10 6 0 10 5 10 10 0 6 -4 10 -10 10 -5 0
-10 -4 -10 -10z"></path>
<path d="M5070 3054 c-96 -7 -258 -20 -360 -28 -102 -9 -360 -29 -575 -46
-214 -17 -408 -34 -429 -38 -55 -10 -79 -44 -66 -97 5 -22 19 -95 31 -162 22
-128 18 -158 -18 -158 -23 0 -39 21 -48 65 -9 47 -74 262 -80 269 -3 2 -69 -1
-148 -7 -194 -17 -224 -16 -236 6 -9 15 -10 15 -11 1 0 -21 -17 -28 -56 -22
-25 4 -35 14 -52 49 -12 24 -19 50 -16 59 5 13 -6 15 -72 15 -44 0 -96 3 -116
6 -25 5 -38 3 -38 -5 0 -6 10 -11 23 -11 19 0 26 -9 40 -53 21 -65 21 -87 4
-87 -59 0 -69 -149 -16 -250 16 -31 36 -79 44 -107 24 -81 32 -85 134 -76 47
4 117 8 156 8 l70 0 47 -69 c27 -39 54 -73 61 -78 6 -4 32 -6 57 -3 25 3 137
12 250 20 113 9 313 27 445 40 132 14 431 43 665 65 713 69 825 83 825 100 0
9 -8 14 -20 12 -11 -1 -67 -7 -125 -13 -206 -19 -406 -40 -485 -49 -44 -6
-195 -21 -335 -35 -140 -14 -295 -29 -345 -34 -49 -5 -108 -6 -130 -2 -38 7
-37 7 30 14 39 4 103 11 142 17 40 5 211 23 380 40 647 64 720 73 768 97 11 5
35 17 53 26 46 23 52 22 52 -13 0 -16 5 -30 11 -30 8 0 10 15 6 45 -5 47 -16
69 -24 48 -3 -7 -11 -13 -19 -13 -8 0 -14 6 -14 13 0 34 -43 290 -57 342 -21
76 -48 131 -68 139 -24 9 -134 6 -335 -10z m270 -112 c0 -25 -7 -31 -31 -25
-29 8 -25 43 6 43 18 0 25 -5 25 -18z m-2460 -172 c6 -11 17 -20 25 -20 9 0
16 -20 20 -65 8 -72 20 -90 35 -51 11 29 44 35 54 10 9 -24 32 -1 40 40 7 37
29 61 46 51 8 -5 6 -15 -6 -32 -12 -19 -15 -39 -11 -72 7 -60 41 -91 101 -91
36 0 46 5 66 33 14 17 23 36 22 41 -6 19 10 42 38 54 26 12 40 11 93 -2 34 -9
75 -25 90 -37 16 -11 34 -18 41 -16 7 3 17 -2 22 -11 13 -21 18 -109 6 -116
-4 -2 -6 -20 -4 -38 2 -18 5 -51 7 -73 2 -22 5 -49 7 -60 2 -17 -3 -20 -32
-22 -19 -1 -66 -4 -105 -8 l-70 -6 -22 32 c-17 25 -19 35 -10 41 6 4 8 8 2 8
-5 0 -1 7 9 15 11 8 18 17 15 19 -9 9 -180 14 -270 8 -124 -9 -129 -8 -130 31
0 46 -32 121 -52 125 -10 2 -17 -3 -17 -13 0 -23 -24 -13 -28 12 -2 12 -12 29
-23 39 -27 24 -28 168 -1 183 24 15 30 14 42 -9z m396 8 c8 -9 -93 -20 -136
-16 -30 3 -25 5 30 14 68 12 95 12 106 2z m2091 -12 c-6 -17 -47 -20 -47 -3 0
9 6 17 13 20 18 6 38 -4 34 -17z m-664 8 c39 -7 51 -24 17 -24 -11 0 -20 -5
-20 -11 0 -12 51 -8 83 6 16 7 18 4 15 -21 -3 -31 3 -30 -133 -37 l-50 -2 3
38 c3 44 -10 47 -52 13 -38 -32 -29 -52 30 -69 26 -7 43 -17 36 -20 -13 -9
-104 21 -114 37 -4 6 -8 23 -8 37 0 46 87 70 193 53z m177 -45 c0 -15 -39 -53
-47 -46 -4 5 0 15 11 22 14 10 17 21 12 42 -6 27 -6 27 9 9 8 -11 15 -23 15
-27z m-1665 -34 c31 -30 32 -71 3 -102 -23 -25 -48 -29 -79 -13 -26 15 -24 35
7 59 22 17 24 23 14 36 -10 12 -10 18 0 30 17 21 27 19 55 -10z m808 -72 c-7
-2 -19 -2 -25 0 -7 3 -2 5 12 5 14 0 19 -2 13 -5z m1366 -27 c10 -12 8 -16
-10 -21 -20 -7 -38 6 -39 28 0 13 37 8 49 -7z m-2469 -175 c0 -25 -18 1 -25
34 l-6 30 15 -25 c8 -14 15 -32 16 -39z m1050 -89 c8 -3 -23 -9 -70 -12 -81
-6 -150 2 -150 18 0 9 198 4 220 -6z"></path>
<path d="M3363 2624 c-38 -16 -46 -41 -10 -29 12 4 36 9 52 10 17 2 32 4 34 4
2 1 -2 8 -9 16 -15 18 -25 18 -67 -1z"></path>
<path d="M2892 2611 c2 -7 7 -12 11 -12 12 1 9 15 -3 20 -7 2 -11 -2 -8 -8z"></path>
<path d="M3373 2562 c-18 -2 -33 -7 -33 -13 0 -13 57 -11 65 2 9 14 6 15 -32
11z"></path>
<path d="M3450 2480 c0 -5 18 -10 40 -10 22 0 40 5 40 10 0 6 -18 10 -40 10
-22 0 -40 -4 -40 -10z"></path>
<path d="M3338 2473 c-32 -8 -20 -26 13 -19 17 3 38 6 45 6 8 0 14 5 14 10 0
10 -40 12 -72 3z"></path>
<path d="M3415 2421 c-8 -15 3 -31 21 -31 9 0 14 7 12 17 -4 20 -24 28 -33 14z"></path>
<path d="M4650 2749 c0 -5 5 -7 10 -4 6 3 10 8 10 11 0 2 -4 4 -10 4 -5 0 -10
-5 -10 -11z"></path>
<path d="M4630 2709 c0 -5 5 -7 10 -4 6 3 10 8 10 11 0 2 -4 4 -10 4 -5 0 -10
-5 -10 -11z"></path>
<path d="M5633 3033 c-18 -6 -16 -23 1 -23 17 0 30 16 19 23 -5 2 -14 2 -20 0z"></path>
<path d="M3064 2985 c21 -16 32 -13 21 4 -3 6 -14 11 -23 11 -15 -1 -15 -2 2
-15z"></path>
<path d="M3450 2956 c0 -8 5 -18 10 -21 6 -3 10 1 10 9 0 8 -4 18 -10 21 -5 3
-10 -1 -10 -9z"></path>
<path d="M3100 2950 c0 -5 5 -10 11 -10 5 0 7 5 4 10 -3 6 -8 10 -11 10 -2 0
-4 -4 -4 -10z"></path>
<path d="M2159 2880 c-3 -20 -4 -25 -13 -38 -14 -23 9 -33 70 -30 49 2 59 6
58 21 -2 20 0 21 26 5 15 -9 22 -10 31 -1 16 16 1 35 -21 28 -11 -3 -20 0 -24
10 -4 11 -21 15 -66 15 -33 0 -61 -4 -61 -10z"></path>
<path d="M2561 2863 c0 -12 109 -64 109 -53 0 10 -81 60 -98 60 -7 0 -12 -3
-11 -7z"></path>
<path d="M1000 2809 c0 -11 6 -19 14 -19 10 0 17 -17 21 -55 7 -56 19 -71 28
-35 3 12 14 20 27 20 15 0 26 12 40 42 27 60 20 67 -61 66 -61 0 -69 -3 -69
-19z"></path>
<path d="M2520 2823 c0 -5 17 -17 38 -26 36 -16 105 -82 195 -187 l38 -45 -28
54 c-33 64 -96 136 -150 173 -41 29 -93 46 -93 31z"></path>
<path d="M6855 2813 c-38 -2 -167 -9 -285 -17 -118 -8 -316 -20 -440 -26 -318
-16 -375 -22 -375 -40 0 -10 8 -14 24 -12 35 3 705 41 984 54 217 11 237 13
237 30 0 14 -7 18 -37 16 -21 -1 -69 -3 -108 -5z"></path>
<path d="M2135 2772 c-3 -4 -21 -7 -40 -8 -60 -2 -83 -43 -50 -91 12 -18 25
-21 92 -21 100 -2 109 2 133 49 l21 39 -26 10 c-50 19 -121 31 -130 22z"></path>
<path d="M2740 2750 c0 -5 9 -10 20 -10 11 0 20 5 20 10 0 6 -9 10 -20 10 -11
0 -20 -4 -20 -10z"></path>
<path d="M5730 2690 c0 -5 5 -10 10 -10 6 0 10 5 10 10 0 6 -4 10 -10 10 -5 0
-10 -4 -10 -10z"></path>
<path d="M5613 2683 c-26 -10 -12 -19 22 -15 19 2 35 8 35 13 0 9 -36 11 -57
2z"></path>
<path d="M5781 2676 c-1 -5 8 -28 19 -50 10 -23 26 -66 33 -96 l14 -55 454 2
c250 1 509 5 577 9 120 6 122 6 122 30 0 22 -4 24 -48 24 -26 0 -83 -4 -127
-10 -44 -5 -280 -11 -525 -12 l-445 -3 -15 57 c-13 50 -58 128 -59 104z"></path>
<path d="M1060 2643 c-24 -9 -40 -25 -35 -33 6 -10 65 18 65 31 0 10 -7 10
-30 2z"></path>
<path d="M5700 2640 c0 -5 7 -10 16 -10 8 0 12 5 9 10 -3 6 -10 10 -16 10 -5
0 -9 -4 -9 -10z"></path>
<path d="M1125 2620 c-20 -23 -13 -39 9 -21 8 7 26 9 43 6 l28 -6 -24 20 c-29
26 -33 26 -56 1z"></path>
<path d="M2000 2605 c0 -8 5 -15 10 -15 6 0 10 7 10 15 0 8 -4 15 -10 15 -5 0
-10 -7 -10 -15z"></path>
<path d="M5691 2574 c-24 -40 -24 -69 -1 -69 9 0 16 11 18 28 2 15 8 27 13 27
12 0 12 37 0 44 -5 3 -19 -10 -30 -30z"></path>
<path d="M2240 2590 c0 -5 5 -10 10 -10 6 0 10 5 10 10 0 6 -4 10 -10 10 -5 0
-10 -4 -10 -10z"></path>
<path d="M2350 2583 c-25 -9 -60 -45 -60 -61 0 -12 3 -12 16 -1 9 7 23 14 32
15 80 12 148 43 95 43 -10 0 -29 2 -43 5 -14 3 -32 2 -40 -1z"></path>
<path d="M1129 2548 c-19 -46 -17 -241 5 -343 9 -45 16 -116 14 -159 -1 -72
-3 -79 -26 -87 -29 -11 -24 -34 9 -34 18 0 25 -6 26 -25 10 -97 28 -213 40
-259 7 -30 10 -58 6 -62 -8 -7 -469 -66 -563 -71 -47 -3 -56 -16 -23 -33 83
-42 275 -130 358 -165 55 -23 118 -50 140 -60 22 -11 87 -35 145 -56 106 -37
141 -57 137 -78 -1 -7 10 -10 30 -9 30 3 363 -107 478 -157 64 -28 287 -79
390 -90 279 -29 330 -30 800 -16 452 14 871 46 1005 76 25 5 194 33 375 60
636 98 838 136 965 183 109 40 202 86 196 96 -4 5 -28 13 -54 16 -87 12 -91
18 -23 32 36 7 66 15 69 17 9 10 -10 25 -38 31 -43 9 -45 21 -5 45 37 23 83
76 109 128 23 44 56 195 56 255 0 54 0 54 -85 29 -52 -16 -61 -22 -69 -50 -10
-36 -29 -40 -65 -13 l-23 18 28 22 c15 12 39 24 53 27 67 15 225 70 228 81 3
8 -17 5 -59 -8 -63 -19 -113 -25 -92 -11 13 9 27 62 16 62 -4 0 -6 32 -4 70 2
39 1 94 -2 124 -10 76 -23 81 -156 62 -185 -27 -493 -65 -570 -71 -41 -2 -118
-10 -170 -15 -247 -28 -441 -32 -448 -10 -5 13 -82 13 -82 1 0 -5 8 -12 18
-14 10 -3 6 -5 -10 -6 -16 0 -28 4 -28 9 0 6 -20 10 -45 10 -25 0 -45 -4 -45
-9 0 -5 -9 -11 -20 -14 -11 -3 -20 -1 -20 4 0 5 -18 9 -40 9 -23 0 -40 -5 -40
-11 0 -7 -10 -9 -25 -5 -13 3 -67 1 -120 -5 -82 -10 -156 -7 -143 6 2 2 168
20 370 40 1039 101 1674 181 1713 216 23 21 -14 26 -95 13 -234 -38 -1098
-137 -1355 -154 -77 -6 -250 -20 -385 -32 -292 -25 -421 -29 -427 -10 -3 7 5
12 21 12 14 0 26 5 26 10 0 6 -16 10 -35 10 -19 0 -35 -3 -35 -7 0 -5 -37 -8
-82 -7 -76 1 -83 2 -102 27 -12 15 -25 27 -29 27 -15 0 -6 -25 21 -53 15 -17
21 -27 15 -23 -7 4 -13 3 -13 -3 0 -15 -67 -31 -130 -31 -61 0 -148 20 -195
44 -16 9 -37 16 -46 16 -19 0 -29 28 -29 83 0 21 -5 37 -11 37 -8 0 -10 -19
-5 -62 4 -48 11 -67 28 -81 35 -29 13 -51 -53 -55 -54 -3 -55 -2 -67 31 -7 18
-12 39 -12 45 0 27 -110 242 -124 242 -12 0 -10 -12 11 -57 35 -78 92 -246 86
-256 -9 -15 -39 13 -52 50 -27 76 -100 214 -146 273 -104 135 -233 153 -299
40 -61 -104 -73 -333 -30 -600 7 -43 6 -44 -11 -30 -24 20 -120 45 -290 75
-49 9 -112 22 -140 30 -27 8 -81 18 -120 24 -79 11 -174 32 -231 52 -22 7 -47
12 -56 10 -23 -3 -34 21 -69 147 -63 227 -108 341 -152 390 -29 31 -52 28 -68
-10z m101 -308 c0 -5 -4 -10 -10 -10 -5 0 -10 5 -10 10 0 6 5 10 10 10 6 0 10
-4 10 -10z m4115 -120 c-47 -17 -75 -20 -75 -8 0 9 17 14 48 15 30 0 40 -2 27
-7z m-1735 -61 c-64 -11 -377 -23 -368 -14 10 11 159 22 298 22 90 0 105 -1
70 -8z m-661 -45 c12 -3 35 -14 50 -24 14 -11 65 -33 114 -51 51 -18 93 -40
102 -52 16 -23 20 -41 7 -33 -10 6 -8 -91 3 -151 7 -39 5 -43 -16 -52 -59 -22
-128 -31 -196 -25 -101 9 -113 24 -168 203 -24 77 -46 154 -50 171 l-7 31 69
-6 c37 -4 79 -8 92 -11z m1416 -7 c0 -5 -22 -11 -50 -13 -27 -2 -131 -10 -230
-18 -250 -21 -278 -22 -282 -9 -3 7 26 14 84 18 48 4 142 13 208 20 132 14
270 15 270 2z m-950 -106 c42 -25 53 -62 32 -106 -23 -48 -36 -44 -29 10 3 30
1 45 -7 45 -6 0 -11 -9 -11 -20 0 -11 -4 -20 -9 -20 -5 0 -22 -5 -37 -10 -25
-10 -26 -12 -10 -29 21 -23 20 -31 -3 -31 -25 0 -61 45 -61 76 0 26 15 40 23
21 4 -11 27 -14 56 -8 12 3 -25 31 -40 31 -26 0 -24 25 3 44 28 20 55 19 93
-3z m-1565 -15 c0 -12 -31 -76 -40 -81 -14 -9 -130 25 -130 38 0 6 3 7 7 4 3
-4 12 2 20 13 16 22 44 26 75 9 16 -9 24 -7 36 5 15 15 32 21 32 12z m3360
-16 c8 -5 12 -11 9 -14 -11 -11 -738 -105 -816 -106 -22 0 -32 23 -14 34 4 3
77 12 162 21 189 19 560 64 574 70 19 7 70 5 85 -5z m420 -14 c0 -2 -7 -6 -15
-10 -8 -3 -15 -1 -15 4 0 6 7 10 15 10 8 0 15 -2 15 -4z m-3525 -32 c35 -9 73
-25 84 -35 17 -16 18 -23 9 -50 -6 -17 -17 -33 -25 -36 -13 -5 -220 51 -232
63 -8 8 69 74 86 74 8 0 43 -7 78 -16z m-460 -54 c6 -5 33 -14 60 -20 28 -6
59 -15 70 -20 11 -5 88 -30 170 -55 83 -26 156 -48 163 -50 14 -5 17 -35 2
-35 -5 0 -57 15 -115 34 -132 43 -166 51 -174 39 -3 -6 -41 -13 -84 -16 l-79
-7 3 38 c4 48 -3 58 -42 66 -35 7 -59 23 -59 38 0 12 69 1 85 -12z m925 -140
c0 -5 -4 -10 -10 -10 -5 0 -10 5 -10 10 0 6 5 10 10 10 6 0 10 -4 10 -10z
m-1405 -112 c-17 -110 -16 -123 5 -156 27 -43 68 -59 181 -72 136 -15 303 -71
439 -147 63 -35 129 -79 145 -97 17 -18 54 -52 84 -75 76 -59 88 -62 -332 88
-109 39 -210 71 -226 71 -16 0 -44 12 -64 28 -20 16 -76 44 -124 62 -86 32
-461 190 -535 226 -43 20 -48 31 -15 39 17 5 372 49 434 54 6 1 10 -9 8 -21z
m3795 -93 c7 -9 11 -17 8 -20 -6 -6 -174 -19 -168 -12 10 11 105 46 126 46 12
1 27 -6 34 -14z m-2695 -525 c18 -8 18 -9 -5 -8 -14 0 -38 4 -55 8 l-30 8 35
0 c19 0 44 -3 55 -8z"></path>
<path d="M1690 1715 c0 -5 24 -16 68 -29 35 -11 26 11 -9 23 -34 12 -59 14
-59 6z"></path>
<path d="M2236 2562 c-3 -5 -11 -42 -17 -83 -14 -91 -23 -102 -69 -89 -19 6
-60 10 -91 10 l-57 0 -17 -75 -16 -75 -42 0 c-41 0 -154 14 -209 26 -16 3 -28
1 -28 -4 0 -12 46 -22 285 -60 102 -16 187 -25 196 -21 12 6 18 29 23 80 7 65
28 122 78 214 8 14 8 20 -1 23 -6 2 -11 14 -11 27 0 25 -15 41 -24 27z"></path>
<path d="M1026 2512 c-9 -16 4 -41 25 -47 10 -4 19 -11 19 -16 0 -5 5 -9 10
-9 6 0 10 14 10 30 0 22 -5 30 -18 30 -10 0 -23 5 -29 11 -7 7 -13 7 -17 1z"></path>
<path d="M5730 2504 c0 -8 5 -12 10 -9 6 3 10 10 10 16 0 5 -4 9 -10 9 -5 0
-10 -7 -10 -16z"></path>
<path d="M6930 2420 c0 -5 11 -10 25 -10 14 0 25 5 25 10 0 6 -11 10 -25 10
-14 0 -25 -4 -25 -10z"></path>
<path d="M1035 2390 c-8 -13 20 -24 41 -16 20 8 9 26 -16 26 -10 0 -22 -5 -25
-10z"></path>
<path d="M425 2379 c-132 -3 -279 -7 -327 -8 -59 -1 -88 -5 -88 -12 0 -9 53
-10 203 -6 111 4 338 10 505 13 166 4 302 11 302 16 0 9 -221 8 -595 -3z"></path>
<path d="M5405 2354 c-129 -19 -505 -61 -755 -84 -118 -11 -262 -25 -320 -30
-363 -35 -544 -50 -598 -50 -34 0 -62 -4 -62 -9 0 -27 140 -18 980 64 436 43
900 103 900 117 0 10 -34 8 -145 -8z"></path>
<path d="M1025 2331 c-7 -13 20 -164 35 -191 6 -11 18 -20 26 -20 12 0 14 7 8
33 -4 17 -15 65 -23 106 -15 70 -31 95 -46 72z"></path>
<path d="M1390 2321 c0 -5 14 -12 30 -15 17 -3 44 -9 60 -12 44 -8 37 13 -7
25 -47 13 -83 14 -83 2z"></path>
<path d="M1613 2278 c2 -7 14 -13 27 -13 13 0 25 6 28 13 2 8 -7 12 -28 12
-21 0 -30 -4 -27 -12z"></path>
<path d="M5470 2230 c0 -5 7 -10 15 -10 8 0 15 5 15 10 0 6 -7 10 -15 10 -8 0
-15 -4 -15 -10z"></path>
<path d="M5380 2220 c0 -5 9 -10 20 -10 11 0 20 5 20 10 0 6 -9 10 -20 10 -11
0 -20 -4 -20 -10z"></path>
<path d="M5300 2210 c0 -5 11 -10 25 -10 14 0 25 5 25 10 0 6 -11 10 -25 10
-14 0 -25 -4 -25 -10z"></path>
<path d="M5210 2200 c0 -5 16 -10 35 -10 19 0 35 5 35 10 0 6 -16 10 -35 10
-19 0 -35 -4 -35 -10z"></path>
<path d="M5771 2197 c-8 -11 -5 -21 14 -43 30 -35 32 -77 5 -122 -41 -67 -15
-72 29 -6 38 56 42 117 10 158 -23 29 -41 33 -58 13z"></path>
<path d="M4835 2165 c-159 -18 -332 -36 -382 -40 -51 -4 -93 -12 -93 -17 0
-12 106 -5 410 28 392 43 420 47 420 56 0 12 -34 9 -355 -27z"></path>
<path d="M1830 2170 c0 -5 5 -10 10 -10 6 0 10 5 10 10 0 6 -4 10 -10 10 -5 0
-10 -4 -10 -10z"></path>
<path d="M1930 2150 c0 -5 9 -10 20 -10 11 0 20 5 20 10 0 6 -9 10 -20 10 -11
0 -20 -4 -20 -10z"></path>
<path d="M2000 2140 c0 -5 9 -10 20 -10 11 0 20 5 20 10 0 6 -9 10 -20 10 -11
0 -20 -4 -20 -10z"></path>
<path d="M2060 2130 c0 -5 7 -10 15 -10 8 0 15 5 15 10 0 6 -7 10 -15 10 -8 0
-15 -4 -15 -10z"></path>
<path d="M2110 2121 c0 -10 80 -24 89 -16 10 10 -23 25 -56 25 -18 0 -33 -4
-33 -9z"></path>
<path d="M6310 2020 c0 -6 27 -10 60 -10 33 0 60 4 60 10 0 6 -27 10 -60 10
-33 0 -60 -4 -60 -10z"></path>
<path d="M6580 2010 c0 -6 27 -10 60 -10 33 0 60 4 60 10 0 6 -27 10 -60 10
-33 0 -60 -4 -60 -10z"></path>
<path d="M6820 2000 c0 -6 32 -10 75 -10 43 0 75 4 75 10 0 6 -32 10 -75 10
-43 0 -75 -4 -75 -10z"></path>
<path d="M6720 1960 c0 -5 18 -10 40 -10 22 0 40 5 40 10 0 6 -18 10 -40 10
-22 0 -40 -4 -40 -10z"></path>
<path d="M6880 1950 c0 -6 27 -10 60 -10 33 0 60 4 60 10 0 6 -27 10 -60 10
-33 0 -60 -4 -60 -10z"></path>
<path d="M1133 1113 c-117 -5 -104 -23 16 -23 119 0 221 10 221 21 0 9 -58 9
-237 2z"></path>
<path d="M920 1090 c0 -5 20 -10 45 -10 25 0 45 5 45 10 0 6 -20 10 -45 10
-25 0 -45 -4 -45 -10z"></path>
<path d="M6923 109 c-55 -21 -93 -58 -93 -90 0 -17 9 -19 85 -19 l85 0 0 65
c0 74 0 74 -77 44z"></path>
</g>
</svg>