 <svg version="1.0" xmlns="http://www.w3.org/2000/svg" width="700.000000pt" height="392.000000pt" viewBox="0 0 700.000000 392.000000" preserveAspectRatio="xMidYMid meet">
<metadata>
Created by potrace 1.12, written by Peter Selinger 2001-2015
</metadata>
<g transform="translate(0.000000,392.000000) scale(0.100000,-0.100000)" fill="#000000" stroke="none">
<path d="M0 3248 l1 -673 73 79 74 79 173 9 c250 13 791 7 797 -9 2 -7 12 -13
23 -13 14 0 19 -7 19 -25 0 -14 7 -28 16 -32 11 -4 14 -13 9 -30 l-6 -25 33
25 c18 13 43 29 55 36 19 10 20 8 16 -12 -9 -33 -23 -47 -49 -47 -13 0 -24 -4
-24 -9 0 -5 19 -37 41 -71 31 -46 39 -64 30 -73 -6 -6 -11 -15 -11 -19 0 -11
73 -10 104 1 17 7 27 6 34 -2 10 -13 52 -191 52 -219 0 -10 7 -18 15 -18 9 0
15 9 15 22 0 38 62 207 79 213 23 10 267 23 616 35 921 30 1121 43 1268 81 22
6 64 15 95 20 103 18 156 28 207 39 28 6 101 14 163 19 121 10 148 21 132 52
-16 28 -194 183 -288 251 -136 96 -218 131 -372 158 -36 6 -85 16 -110 22 -86
20 -196 29 -440 34 -267 7 -357 -1 -530 -42 -124 -30 -143 -36 -238 -80 -40
-19 -77 -34 -81 -34 -5 0 -14 -6 -20 -14 -7 -8 -35 -26 -64 -40 -48 -23 -132
-82 -283 -195 -32 -25 -65 -51 -72 -58 -8 -7 -22 -18 -33 -23 -29 -16 -25 17
4 40 43 34 279 190 287 190 5 0 10 4 12 8 2 4 33 27 71 50 135 85 208 124 267
142 25 7 50 17 57 22 15 12 56 23 203 57 265 61 528 81 1168 88 l513 6 6 28
c3 15 15 36 27 47 23 22 86 39 86 24 0 -26 -36 -75 -66 -90 -19 -8 -34 -19
-34 -23 0 -10 151 -2 161 8 4 4 11 137 15 295 7 280 7 286 28 292 11 3 618 6
1349 6 l1327 0 0 35 0 35 -3500 0 -3500 0 0 -672z m1138 574 c2 -14 -2 -22
-11 -22 -17 0 -30 27 -21 41 9 16 29 4 32 -19z m-123 -22 c35 -36 37 -40 18
-40 -13 0 -32 14 -47 33 -47 61 -28 65 29 7z m-618 -64 c82 -83 97 -109 69
-119 -14 -6 -58 41 -132 138 -43 56 -47 65 -32 65 7 0 50 -38 95 -84z m3523
35 c0 -26 -183 -196 -201 -186 -12 8 6 42 40 76 14 14 41 47 59 73 28 40 37
46 67 46 19 0 35 -4 35 -9z m-2063 -226 c-28 -26 -35 -45 -17 -45 6 0 10 -7
10 -15 0 -16 -77 -55 -109 -55 -28 0 -71 24 -77 43 -14 43 78 96 166 97 l55 0
-28 -25z m171 -86 c29 -31 49 -36 108 -24 63 14 77 -62 14 -78 -19 -5 -44 -17
-55 -26 -11 -10 -35 -27 -53 -37 -27 -15 -36 -16 -52 -6 -18 11 -22 9 -32 -14
-8 -17 -31 -35 -68 -51 -30 -13 -66 -30 -80 -37 -53 -29 -156 -56 -212 -56
-32 0 -58 -4 -58 -9 0 -15 -30 -41 -48 -41 -11 0 -2 15 28 45 31 31 52 45 71
45 35 0 46 34 18 58 -32 28 -24 63 24 98 23 17 57 36 76 43 19 6 42 18 50 25
9 8 59 29 110 46 52 17 102 35 110 40 9 5 17 10 18 10 1 0 15 -14 31 -31z
m237 -179 c36 -14 28 -29 -32 -65 -28 -16 -70 -45 -94 -64 -24 -18 -69 -44
-99 -58 -30 -14 -70 -33 -88 -41 -31 -15 -36 -15 -69 4 -20 10 -42 25 -49 31
-20 20 -4 52 35 74 20 11 54 30 76 44 22 13 52 27 67 30 15 3 32 13 39 21 6 8
30 14 53 15 22 1 52 5 66 9 36 11 65 11 95 0z m-730 -59 c7 -12 -12 -24 -25
-16 -11 7 -4 25 10 25 5 0 11 -4 15 -9z m242 -160 c-16 -78 -31 -95 -97 -115
-70 -21 -131 -26 -136 -11 -6 20 185 155 219 155 16 0 18 -5 14 -29z"></path>
<path d="M1722 3484 c-32 -14 -36 -34 -5 -34 18 0 73 31 73 42 0 12 -31 8 -68
-8z"></path>
<path d="M1960 3440 c0 -5 5 -10 10 -10 6 0 10 5 10 10 0 6 -4 10 -10 10 -5 0
-10 -4 -10 -10z"></path>
<path d="M2030 3420 c0 -5 5 -10 10 -10 6 0 10 5 10 10 0 6 -4 10 -10 10 -5 0
-10 -4 -10 -10z"></path>
<path d="M1930 3380 c-13 -9 -13 -11 0 -19 17 -12 30 -5 30 15 0 16 -9 18 -30
4z"></path>
<path d="M1718 3280 c-56 -29 -75 -46 -64 -57 11 -11 146 62 146 80 0 13 -24
6 -82 -23z"></path>
<path d="M6810 3770 c0 -6 38 -10 95 -10 57 0 95 4 95 10 0 6 -38 10 -95 10
-57 0 -95 -4 -95 -10z"></path>
<path d="M6250 3140 c0 -113 4 -180 10 -180 6 0 10 67 10 180 0 113 -4 180
-10 180 -6 0 -10 -67 -10 -180z"></path>
<path d="M4420 3123 c-19 -7 -72 -21 -116 -32 -89 -21 -127 -37 -119 -51 3 -5
31 -18 63 -30 31 -12 86 -35 122 -52 36 -16 83 -38 105 -48 77 -34 122 -54
338 -156 120 -56 220 -104 222 -106 2 -2 -42 -16 -98 -32 -56 -15 -129 -36
-162 -46 -33 -9 -87 -25 -120 -34 -33 -10 -87 -28 -120 -41 -33 -13 -82 -31
-108 -39 -94 -31 -177 -75 -177 -95 0 -18 123 -130 240 -218 92 -69 138 -90
268 -122 20 -5 62 -16 92 -24 30 -8 98 -20 150 -26 78 -9 215 -32 346 -57 24
-4 109 -88 109 -107 0 -7 -13 -12 -30 -12 -16 0 -36 -4 -44 -9 -7 -5 -79 -15
-160 -22 -168 -15 -248 -30 -258 -48 -5 -7 -18 -18 -30 -24 -38 -21 -141 -234
-173 -362 -6 -25 -13 -52 -16 -61 -6 -23 60 -66 131 -85 52 -13 93 -13 315 -4
l255 10 42 30 c44 32 86 37 115 12 19 -16 14 -31 -21 -69 -28 -30 -74 -41
-216 -53 -66 -6 -199 -20 -295 -30 -96 -11 -213 -24 -260 -29 -47 -6 -172 -13
-277 -17 l-193 -7 0 69 c0 75 -11 126 -41 191 -10 24 -19 46 -19 50 -1 11 -31
72 -54 108 -112 176 -163 235 -266 311 -145 106 -341 129 -485 56 -145 -73
-246 -260 -257 -477 l-3 -50 -67 -3 -68 -3 -52 -64 c-77 -93 -96 -100 -232
-86 -61 7 -147 18 -191 26 -44 8 -123 19 -175 25 -52 6 -171 22 -265 35 -93
13 -213 29 -265 35 -92 10 -237 31 -350 50 -30 5 -95 14 -145 20 -129 16 -132
17 -137 45 -5 22 -1 25 31 30 20 3 50 10 66 15 17 5 90 7 168 3 117 -5 139 -4
150 9 7 9 36 18 72 22 33 3 128 13 210 21 83 8 202 22 265 31 63 9 131 17 150
18 52 4 152 25 174 37 11 7 66 9 135 8 103 -3 116 -2 119 14 3 15 -8 17 -120
16 -68 0 -159 -5 -203 -10 -44 -6 -165 -12 -270 -15 -104 -2 -242 -8 -305 -13
-63 -6 -171 -10 -240 -11 -198 -1 -348 -17 -377 -40 -45 -35 -65 -69 -59 -96
7 -25 6 -25 -51 -22 l-58 3 -12 75 c-11 69 -37 158 -70 237 -7 17 -13 35 -13
40 0 5 -11 32 -25 59 -14 27 -25 54 -25 60 0 19 -85 141 -126 182 -80 80 -177
106 -267 72 -28 -11 -74 -23 -102 -26 -88 -9 -95 -12 -95 -38 0 -40 11 -56 36
-56 13 0 24 -1 24 -3 0 -2 -11 -26 -24 -53 -13 -27 -30 -69 -37 -93 l-13 -44
-48 53 c-26 30 -48 62 -48 72 0 27 30 112 44 123 21 16 29 54 15 71 -15 18
-100 11 -136 -12 -21 -13 -27 -12 -63 12 -25 17 -59 29 -90 32 l-50 5 0 -1077
0 -1076 3500 0 3500 0 0 56 0 56 -52 -5 c-29 -2 -116 -12 -192 -21 -77 -9
-156 -13 -175 -9 l-36 7 55 14 c30 7 97 17 148 22 91 8 123 17 92 28 -8 3 -33
25 -54 49 -33 36 -46 43 -76 43 -47 0 -140 25 -190 50 -26 13 -53 41 -77 75
-20 31 -34 57 -32 59 2 2 44 22 92 46 59 27 107 59 143 94 61 59 69 86 26 86
-16 0 -37 7 -48 15 -10 8 -35 15 -55 15 -19 0 -40 5 -46 11 -7 7 -57 10 -134
9 -68 0 -143 -1 -166 -1 -43 0 -103 24 -103 41 0 6 7 10 15 10 8 0 15 5 15 11
0 7 -10 9 -24 7 -18 -4 -28 2 -40 24 -10 15 -24 28 -33 28 -31 0 -123 32 -118
41 13 20 158 79 181 73 19 -5 26 -1 35 20 7 14 15 26 19 26 4 0 10 14 14 30 8
44 26 37 26 -11 0 -40 0 -40 36 -37 30 2 40 9 55 38 10 19 20 38 22 43 2 6 12
4 23 -3 22 -14 22 -13 288 51 44 10 89 19 100 19 12 0 34 7 50 15 15 8 34 15
42 15 7 0 16 10 19 23 7 26 77 57 128 57 l27 0 0 341 0 340 -132 -6 c-73 -4
-138 -8 -145 -10 -6 -2 -26 26 -45 62 -18 35 -39 69 -45 75 -7 6 -13 28 -13
49 0 41 -20 56 -21 17 l0 -23 -9 23 c-5 12 -14 22 -19 22 -5 0 -23 22 -40 49
-36 56 -61 75 -117 90 -27 7 -46 22 -63 47 -31 45 -87 74 -145 74 -43 0 -82
22 -71 39 2 4 48 11 102 15 54 4 121 13 148 20 48 13 50 14 47 46 -3 26 -1 31
14 28 10 -2 25 -17 34 -33 8 -17 16 -32 18 -35 2 -2 7 2 13 10 17 26 -11 169
-36 190 -11 9 -45 17 -162 36 l-33 5 0 114 c0 106 -8 142 -26 113 -4 -6 -6
-58 -5 -115 l2 -105 -38 3 c-21 1 -47 -2 -58 -7 -33 -14 -78 -9 -124 14 -25
12 -51 22 -58 22 -7 0 -21 4 -31 9 -46 22 -90 41 -122 50 -19 6 -62 20 -95 31
-55 20 -187 60 -309 95 -65 19 -84 38 -34 34 52 -5 66 12 39 47 -30 39 -28 70
7 77 41 9 70 33 56 47 -9 9 -18 8 -38 -5 -25 -17 -31 -17 -99 -2 -94 22 -869
29 -927 10z m697 -35 c-3 -10 -55 -12 -228 -10 -158 2 -235 0 -262 -9 -30 -10
-42 -10 -62 1 -14 7 -25 17 -25 22 0 4 131 8 291 8 228 0 290 -3 286 -12z m63
-537 c0 -23 -5 -30 -27 -34 -78 -15 -123 -30 -134 -43 -18 -22 -46 -17 -51 11
-4 20 0 25 26 31 17 3 37 11 45 17 17 14 100 45 124 46 12 1 17 -7 17 -28z
m-292 -108 c4 -26 -29 -47 -61 -39 -36 8 -60 -19 -67 -71 -4 -36 -10 -49 -23
-51 -20 -4 -46 24 -47 49 0 9 -10 23 -22 31 -22 15 -22 15 12 31 18 9 38 17
45 17 6 0 17 6 23 13 15 15 101 45 122 43 8 -1 16 -11 18 -23z m290 21 c22 -5
29 -10 25 -21 -5 -13 2 -15 48 -9 43 5 66 2 114 -15 65 -24 90 -25 513 -15
178 4 192 3 171 -12 -25 -17 -305 -35 -514 -32 -108 1 -125 -1 -164 -22 -36
-19 -50 -34 -74 -83 -52 -109 -65 -130 -79 -133 -7 -1 -38 30 -68 69 -30 40
-81 99 -112 133 -60 64 -70 86 -40 86 11 0 27 9 38 21 12 13 27 19 41 16 13
-2 28 2 34 9 13 16 23 17 67 8z m-548 -108 c0 -7 11 -18 25 -24 26 -12 33 -44
16 -71 -7 -11 -11 -8 -16 10 -4 13 -19 38 -32 56 -14 18 -22 37 -18 43 8 13
25 3 25 -14z m-80 -121 c0 -8 -4 -15 -8 -15 -13 0 -32 23 -32 37 0 11 5 11 20
3 11 -6 20 -17 20 -25z m1614 14 c-3 -5 -10 -7 -15 -3 -5 3 -7 10 -3 15 3 5
10 7 15 3 5 -3 7 -10 3 -15z m-1319 -89 c21 -24 140 -90 160 -90 8 0 43 -13
77 -30 34 -16 68 -30 77 -30 11 0 12 -3 4 -11 -8 -8 -21 -8 -45 -1 -18 5 -57
10 -86 11 -29 0 -62 6 -73 12 -11 6 -38 12 -59 14 -75 8 -185 82 -166 113 3 5
19 7 35 4 22 -3 33 0 37 12 8 21 17 20 39 -4z m1320 -120 c3 -5 -1 -10 -10
-10 -9 0 -13 5 -10 10 3 6 8 10 10 10 2 0 7 -4 10 -10z m78 3 c-7 -2 -21 -2
-30 0 -10 3 -4 5 12 5 17 0 24 -2 18 -5z m-5377 -65 c47 -50 67 -88 62 -114
-3 -15 -10 -8 -31 28 -15 25 -35 52 -43 59 -19 16 -47 69 -36 69 4 0 26 -19
48 -42z m5316 -108 c2 -6 23 -6 58 -1 36 6 59 5 68 -1 7 -7 34 -8 67 -4 35 4
55 2 55 -4 0 -5 -13 -10 -30 -10 -16 0 -39 -4 -52 -9 -32 -13 -176 -30 -353
-42 -82 -6 -174 -13 -203 -16 -29 -3 -65 -2 -80 2 -49 12 -2 23 178 40 236 22
276 28 273 43 -3 14 14 16 19 2z m535 -22 c-3 -8 -6 -5 -6 6 -1 11 2 17 5 13
3 -3 4 -12 1 -19z m-39 -65 c25 23 32 21 32 -7 0 -27 -31 -42 -107 -50 -23 -2
-46 -6 -50 -9 -10 -7 -261 -34 -433 -47 -74 -6 -178 -17 -230 -25 -132 -21
-239 -20 -270 2 -25 18 -23 18 105 30 72 6 168 12 214 12 46 1 111 5 145 11
93 15 203 31 281 41 86 10 160 28 192 44 20 11 31 10 64 -3 36 -14 41 -14 57
1z m-2753 -86 c96 -66 205 -216 205 -286 l0 -24 -19 24 c-10 13 -30 47 -44 74
-30 60 -126 168 -179 201 -21 13 -38 29 -38 35 0 14 37 2 75 -24z m-445 -60
c0 -2 -12 -14 -27 -28 l-28 -24 24 28 c23 25 31 32 31 24z m415 -71 c20 -15
20 -15 -5 -16 -14 0 -35 -3 -47 -6 -18 -5 -23 -2 -23 13 0 44 26 47 75 9z
m-3515 -28 c0 -53 -12 -63 -49 -44 -53 28 -34 63 42 75 4 0 7 -14 7 -31z m253
19 c10 -27 -5 -67 -24 -67 -25 0 -34 25 -21 56 12 26 37 32 45 11z m5171 -146
c7 -10 -17 -21 -45 -21 -24 0 -25 17 -1 23 29 8 41 7 46 -2z m-1792 -78 c17
-15 17 -17 2 -35 -18 -19 -64 -25 -64 -8 0 13 30 60 38 60 3 0 14 -7 24 -17z
m53 -115 c5 -21 3 -28 -7 -28 -32 0 -53 53 -25 63 16 6 24 -3 32 -35z m-505
22 c0 -5 -2 -10 -4 -10 -3 0 -8 5 -11 10 -3 6 -1 10 4 10 6 0 11 -4 11 -10z
m3230 -25 c0 -8 -7 -15 -15 -15 -16 0 -20 12 -8 23 11 12 23 8 23 -8z m-2746
-64 c11 -12 17 -24 14 -27 -10 -9 -78 24 -78 39 0 33 28 28 64 -12z m-71 -109
c9 -10 20 -40 23 -65 l7 -47 -31 0 c-40 0 -52 22 -45 83 6 50 19 59 46 29z
m-273 -2 c0 -5 -8 -10 -19 -10 -10 0 -24 -7 -31 -15 -13 -15 -40 -21 -40 -8 0
3 7 15 17 25 17 19 73 25 73 8z m-40 -73 c0 -2 -14 -16 -32 -33 l-32 -29 25
32 c20 27 39 41 39 30z m340 -82 c0 -8 -4 -15 -10 -15 -5 0 -10 7 -10 15 0 8
5 15 10 15 6 0 10 -7 10 -15z m1442 -2 c24 -21 23 -33 -3 -33 -11 0 -30 -6
-42 -12 -58 -33 -80 -34 -132 -9 -29 13 -77 26 -112 29 -72 5 -75 22 -5 23 26
0 67 4 92 8 84 15 182 13 202 -6z m21 -103 c5 -4 11 -34 14 -66 5 -51 2 -62
-16 -78 -17 -16 -21 -31 -21 -83 0 -89 -23 -80 -32 12 -4 38 -9 79 -13 92 -3
13 -1 23 5 23 5 0 10 -7 10 -15 0 -8 7 -15 15 -15 24 0 18 49 -11 87 -30 39
-47 43 -38 8 8 -34 -16 -25 -39 15 l-17 29 32 4 c39 5 100 -2 111 -13z"></path>
<path d="M5460 3020 c0 -5 9 -10 19 -10 11 0 23 -4 26 -10 3 -5 17 -10 29 -10
13 0 29 -7 36 -15 7 -8 19 -15 26 -15 8 0 23 -4 34 -10 11 -5 29 -14 40 -20
11 -5 31 -10 44 -10 14 0 28 -4 31 -10 3 -5 20 -16 38 -24 47 -20 100 -45 117
-55 8 -5 26 -13 40 -18 26 -11 83 -39 162 -81 30 -16 54 -22 65 -17 15 6 12
10 -17 24 -20 9 -49 26 -64 39 -16 12 -35 22 -42 22 -13 0 -34 9 -74 32 -8 4
-22 11 -30 14 -8 3 -34 15 -57 25 -24 10 -49 19 -57 19 -7 0 -19 7 -26 15 -7
8 -21 15 -31 15 -10 0 -21 5 -24 10 -3 6 -15 10 -25 10 -10 0 -38 10 -62 23
-24 12 -63 28 -88 36 -25 7 -53 17 -62 22 -23 12 -48 11 -48 -1z"></path>
<path d="M5502 2948 c6 -18 28 -21 28 -4 0 9 -7 16 -16 16 -9 0 -14 -5 -12
-12z"></path>
<path d="M1023 2551 c-103 -15 -133 -24 -122 -36 3 -2 45 2 94 10 50 8 107 15
127 15 42 0 68 8 68 21 0 12 -35 10 -167 -10z"></path>
<path d="M6430 2409 c-14 -4 -42 -11 -62 -14 -57 -9 -45 -23 15 -17 55 5 87
17 87 32 0 11 -5 11 -40 -1z"></path>
<path d="M1590 2350 c0 -22 5 -40 10 -40 6 0 10 18 10 40 0 22 -4 40 -10 40
-5 0 -10 -18 -10 -40z"></path>
<path d="M3301 2370 c-18 -4 -40 -15 -49 -24 -22 -22 0 -28 68 -19 46 7 55 12
55 28 0 23 -23 28 -74 15z"></path>
<path d="M2083 2320 c-43 -17 -27 -33 27 -27 56 7 73 14 65 28 -8 11 -63 11
-92 -1z"></path>
<path d="M3435 2279 c-33 -16 -61 -19 -164 -17 -80 1 -126 -2 -128 -9 -7 -21
190 -44 210 -24 6 6 32 11 57 11 34 0 52 5 65 20 28 31 6 40 -40 19z"></path>
<path d="M2244 2250 c-6 -6 -65 -11 -137 -12 -70 0 -127 -4 -127 -7 0 -13 42
-32 84 -37 26 -4 72 0 117 10 72 17 99 30 99 47 0 12 -24 11 -36 -1z"></path>
<path d="M1410 2221 c0 -6 5 -13 10 -16 6 -3 10 1 10 9 0 9 -4 16 -10 16 -5 0
-10 -4 -10 -9z"></path>
<path d="M6580 2190 c0 -22 5 -40 10 -40 6 0 10 18 10 40 0 22 -4 40 -10 40
-5 0 -10 -18 -10 -40z"></path>
<path d="M3360 1890 c0 -5 5 -10 10 -10 6 0 10 5 10 10 0 6 -4 10 -10 10 -5 0
-10 -4 -10 -10z"></path>
<path d="M1740 1413 c0 -10 208 -28 218 -18 12 12 -11 16 -112 22 -68 4 -106
2 -106 -4z"></path>
<path d="M1990 1390 c0 -5 18 -10 40 -10 22 0 40 5 40 10 0 6 -18 10 -40 10
-22 0 -40 -4 -40 -10z"></path>
<path d="M3080 1365 c0 -8 5 -15 10 -15 6 0 10 7 10 15 0 8 -4 15 -10 15 -5 0
-10 -7 -10 -15z"></path>
<path d="M2240 1360 c0 -5 7 -10 15 -10 8 0 15 5 15 10 0 6 -7 10 -15 10 -8 0
-15 -4 -15 -10z"></path>
<path d="M2320 1360 c0 -5 23 -10 50 -10 28 0 50 5 50 10 0 6 -22 10 -50 10
-27 0 -50 -4 -50 -10z"></path>
<path d="M1970 1320 c0 -5 16 -10 35 -10 19 0 35 5 35 10 0 6 -16 10 -35 10
-19 0 -35 -4 -35 -10z"></path>
<path d="M2210 1300 c0 -5 5 -10 10 -10 6 0 10 5 10 10 0 6 -4 10 -10 10 -5 0
-10 -4 -10 -10z"></path>
<path d="M2330 1270 c0 -5 9 -10 20 -10 11 0 20 5 20 10 0 6 -9 10 -20 10 -11
0 -20 -4 -20 -10z"></path>
<path d="M6190 740 c0 -5 18 -10 40 -10 22 0 40 5 40 10 0 6 -18 10 -40 10
-22 0 -40 -4 -40 -10z"></path>
<path d="M6870 150 c0 -5 9 -10 20 -10 11 0 20 5 20 10 0 6 -9 10 -20 10 -11
0 -20 -4 -20 -10z"></path>
</g>
</svg>