 <svg version="1.0" xmlns="http://www.w3.org/2000/svg" width="700.000000pt" height="383.000000pt" viewBox="0 0 700.000000 383.000000" preserveAspectRatio="xMidYMid meet">
<metadata>
Created by potrace 1.12, written by Peter Selinger 2001-2015
</metadata>
<g transform="translate(0.000000,383.000000) scale(0.100000,-0.100000)" fill="#000000" stroke="none">
<path d="M5146 3618 c-20 -39 -13 -48 13 -17 23 27 25 35 12 44 -5 3 -17 -9
-25 -27z"></path>
<path d="M4530 3573 c-13 -3 -29 -12 -35 -20 -7 -9 -18 -14 -26 -11 -25 9 -67
-21 -103 -74 -29 -44 -56 -99 -56 -112 0 -2 14 -6 32 -10 l32 -6 -29 -29 -30
-29 -170 10 c-374 21 -1241 -14 -1265 -51 -7 -12 -82 -42 -88 -37 -2 3 -11 -1
-18 -9 -8 -8 -21 -12 -29 -9 -9 4 -15 0 -15 -9 0 -15 -61 -57 -82 -57 -6 0
-25 -10 -42 -23 -17 -12 -56 -36 -86 -51 -30 -16 -68 -40 -85 -53 -60 -47
-131 -93 -143 -93 -5 0 -29 -19 -53 -43 -24 -23 -73 -67 -109 -97 -36 -30 -86
-74 -113 -97 -58 -51 -107 -64 -271 -72 -90 -4 -121 -9 -124 -20 -4 -12 34
-13 259 -6 145 5 579 9 964 10 386 1 706 5 713 9 6 4 75 11 152 15 82 5 146
13 153 20 6 6 24 11 39 11 24 0 35 10 71 68 59 95 57 92 112 173 27 41 52 79
54 84 2 6 21 36 43 67 21 31 38 61 38 66 0 5 11 19 25 32 14 13 32 35 39 49
34 66 44 81 81 123 22 25 60 55 85 68 25 12 56 31 69 41 13 11 34 19 47 19 12
0 25 4 28 9 10 16 90 23 315 30 135 4 226 10 228 16 1 6 -2 17 -7 25 -8 13
-11 13 -22 -2 -12 -14 -29 -15 -148 -8 -155 9 -266 3 -297 -17 -25 -17 -34 -7
-31 34 4 62 -24 80 -102 66z"></path>
<path d="M5490 3520 c0 -5 10 -10 21 -10 20 0 48 -24 49 -42 0 -4 -15 -8 -32
-10 -24 -2 -33 -8 -33 -21 0 -23 61 -46 120 -47 22 -1 58 -7 80 -15 49 -18 55
-18 55 -2 0 17 -102 117 -120 117 -19 0 -87 24 -96 33 -11 11 -44 8 -44 -3z"></path>
<path d="M3055 3500 c-3 -5 -17 -10 -30 -10 -13 0 -27 -5 -30 -10 -4 -6 -22
-17 -42 -25 -19 -8 -61 -37 -93 -65 -32 -27 -62 -50 -66 -50 -13 -1 -89 -68
-84 -74 7 -6 123 27 180 51 25 11 87 32 138 48 77 24 92 32 92 49 0 12 3 38 6
59 7 37 7 37 -29 37 -20 0 -39 -4 -42 -10z"></path>
<path d="M4760 3350 c-97 -13 -128 -21 -141 -36 -6 -8 -18 -14 -26 -14 -23 0
-94 -53 -148 -111 -68 -73 -104 -121 -151 -203 -90 -158 -104 -184 -135 -241
-17 -33 -40 -72 -50 -87 -11 -14 -19 -31 -19 -37 0 -7 -16 -45 -35 -86 -61
-128 -67 -151 -50 -192 17 -39 9 -39 145 -13 30 6 80 15 110 20 125 20 215 44
240 65 8 7 55 16 105 20 49 4 116 16 149 26 33 11 78 22 100 25 23 3 57 9 76
14 19 5 69 14 110 20 41 7 95 19 119 27 35 13 65 14 150 8 172 -13 239 -10
361 17 63 14 140 29 170 33 30 4 63 14 72 22 9 8 21 12 27 9 19 -12 77 21 107
60 33 42 74 125 74 148 0 23 -82 126 -181 227 -91 92 -188 167 -246 190 -35
14 -159 39 -194 39 -15 0 -32 7 -39 15 -9 10 -32 15 -74 15 -33 0 -79 5 -101
10 -55 13 -446 20 -525 10z m644 -600 c14 -5 26 -16 26 -25 0 -12 16 -15 90
-15 58 0 104 -5 127 -15 19 -8 49 -15 65 -15 43 0 33 -29 -17 -46 -122 -44
-237 -54 -437 -38 -87 7 -88 7 -88 33 0 15 6 39 13 54 10 23 18 27 57 27 77 0
118 11 123 31 6 22 7 22 41 9z m-759 -45 c64 -22 123 -54 134 -72 8 -14 12
-15 22 -6 9 9 9 16 1 25 -8 10 9 17 86 32 53 10 100 23 104 30 11 16 38 -57
38 -103 l0 -39 -52 -10 c-29 -6 -87 -17 -128 -26 -41 -9 -178 -21 -304 -28
l-228 -13 -9 23 c-14 36 -11 90 8 143 l17 48 76 6 c41 3 82 8 90 9 25 5 103
-5 145 -19z"></path>
<path d="M4650 2550 c0 -5 9 -10 20 -10 11 0 20 5 20 10 0 6 -9 10 -20 10 -11
0 -20 -4 -20 -10z"></path>
<path d="M2595 3214 c-94 -46 -211 -112 -269 -151 -26 -18 -51 -33 -55 -33 -4
0 -16 -10 -27 -21 -10 -12 -35 -32 -54 -45 -90 -60 -133 -93 -182 -139 -29
-28 -73 -63 -97 -80 -24 -16 -50 -40 -58 -52 -9 -13 -22 -23 -29 -23 -8 0 -14
-7 -14 -15 0 -8 5 -15 10 -15 12 0 113 81 200 158 30 27 80 66 110 87 30 21
66 47 80 59 32 29 128 96 136 96 4 0 27 15 53 34 25 19 71 47 101 63 30 16 71
39 90 51 19 12 42 22 51 22 19 0 44 26 32 33 -4 3 -39 -10 -78 -29z"></path>
<path d="M6281 2653 c-21 -18 -21 -19 -4 -63 9 -25 37 -73 60 -107 47 -66 69
-73 79 -24 3 14 9 34 15 43 24 45 2 92 -38 82 -11 -3 -24 -1 -27 5 -4 6 -16
11 -26 11 -22 0 -36 18 -23 31 5 5 24 1 45 -11 39 -21 59 -13 30 12 -46 40
-79 47 -111 21z m69 -93 c0 -5 -4 -10 -10 -10 -5 0 -10 5 -10 10 0 6 5 10 10
10 6 0 10 -4 10 -10z m64 -9 c5 -7 -11 -65 -22 -81 -2 -2 -7 2 -12 10 -11 17
-13 64 -3 73 9 10 31 9 37 -2z"></path>
<path d="M3738 2499 c-37 -38 -47 -59 -30 -59 8 0 45 38 70 72 26 34 -5 24
-40 -13z"></path>
<path d="M5883 2437 c-39 -18 -25 -26 35 -20 60 6 69 9 59 19 -11 11 -71 12
-94 1z"></path>
<path d="M3605 2430 c-3 -5 -24 -10 -45 -10 -21 0 -42 -4 -45 -10 -3 -5 -25
-10 -49 -10 -23 0 -47 -5 -54 -12 -6 -6 -27 -12 -47 -12 -45 -2 -51 -20 -7
-24 31 -3 41 -18 23 -38 -12 -13 -22 -74 -13 -74 17 0 32 26 32 56 0 37 38 74
75 74 12 0 28 7 35 15 7 9 29 15 51 15 21 0 41 5 44 10 3 6 24 10 46 10 21 0
39 5 39 10 0 6 -18 10 -39 10 -22 0 -43 -4 -46 -10z"></path>
<path d="M5825 2390 c-11 -17 15 -40 44 -40 15 0 33 -6 40 -12 10 -11 15 -9
29 9 9 11 26 23 36 25 11 1 21 9 24 16 6 18 -53 15 -68 -3 -16 -20 -59 -19
-81 1 -12 11 -19 12 -24 4z"></path>
<path d="M3200 2345 c-30 -7 -95 -18 -145 -25 -49 -7 -99 -16 -110 -21 -19 -8
-61 -14 -300 -40 -49 -6 -128 -14 -175 -20 -208 -24 -330 -28 -876 -28 -505
-1 -583 1 -594 14 -7 8 -20 15 -30 15 -10 0 -23 7 -31 16 -9 11 -22 14 -42 10
-17 -3 -36 -1 -44 6 -10 8 -17 8 -25 0 -9 -9 -7 -12 9 -12 12 0 25 -4 28 -10
3 -5 17 -10 30 -10 13 0 27 -4 30 -10 3 -5 28 -20 56 -31 53 -23 55 -26 37
-64 -10 -22 -8 -28 10 -45 22 -21 37 -27 28 -11 -3 5 25 9 62 9 37 0 58 -2 47
-5 -11 -2 -30 -6 -42 -9 -13 -2 -23 -9 -23 -14 0 -6 38 -10 90 -10 91 0 132
13 184 59 23 20 194 23 217 4 10 -8 27 -9 49 -4 57 13 80 -7 43 -35 -14 -9
-15 -16 -7 -24 9 -9 18 -8 35 3 17 10 60 15 149 16 234 3 328 27 395 101 13
14 31 20 62 20 23 0 43 -3 43 -8 0 -17 -114 -136 -160 -167 -49 -33 -50 -33
-227 -45 -98 -6 -214 -10 -258 -8 -70 3 -80 5 -77 21 4 21 -11 22 -28 2 -7 -8
-19 -15 -27 -15 -11 0 -13 13 -10 66 4 62 3 65 -17 60 -12 -3 -30 2 -40 10
-21 15 -72 19 -80 6 -2 -4 -6 -34 -7 -67 -3 -54 -1 -60 18 -63 16 -2 26 7 44
45 29 59 28 58 35 50 8 -8 -35 -137 -46 -137 -5 0 -12 5 -15 10 -11 19 -52 11
-64 -12 -9 -19 -11 -5 -8 70 4 110 -10 121 -49 38 -40 -85 -48 -89 -139 -77
-42 6 -100 11 -130 11 -76 0 -97 20 -102 95 -2 32 -6 61 -8 64 -13 13 -29 -24
-32 -76 -7 -121 -5 -114 -38 -106 -80 18 -104 -1 -67 -54 11 -16 23 -44 27
-63 19 -89 72 -152 143 -170 101 -26 928 -41 1020 -19 26 7 53 16 59 22 7 5
48 27 90 49 43 21 110 56 148 78 39 21 83 45 99 54 16 9 40 16 53 16 12 0 23
5 23 10 0 13 -44 13 -84 1 -17 -5 -62 -15 -101 -21 -38 -7 -92 -19 -120 -27
-36 -11 -123 -16 -318 -20 -240 -5 -267 -4 -261 10 14 37 60 44 309 46 158 1
279 7 355 17 164 23 240 28 253 15 14 -14 64 -14 72 -1 3 6 26 10 49 10 25 0
49 6 55 14 6 7 35 17 64 20 28 4 70 10 92 13 22 3 44 9 50 14 5 5 22 9 38 9
15 0 38 5 50 12 22 11 72 24 135 35 18 3 35 9 38 14 3 5 16 9 28 9 13 0 29 7
36 15 7 8 20 15 30 15 26 0 97 70 104 103 4 15 4 27 0 27 -17 0 -63 -43 -66
-62 -3 -25 -70 -68 -105 -68 -12 0 -34 -6 -50 -14 -41 -20 -96 -36 -126 -36
-14 0 -29 -4 -32 -10 -3 -5 -19 -10 -36 -10 -16 0 -37 -4 -47 -10 -18 -10
-221 -50 -251 -50 -30 1 32 29 65 30 16 0 34 4 40 9 11 12 85 32 143 38 32 4
45 10 48 24 6 22 16 24 42 7 15 -9 24 -8 45 5 14 9 31 17 38 17 27 0 87 60 94
94 6 37 32 48 89 39 43 -7 80 33 70 76 -4 17 -10 31 -15 31 -23 0 -60 -21 -60
-34 0 -7 -12 -21 -26 -31 -25 -16 -26 -16 -20 2 3 10 8 30 12 46 5 24 11 27
45 27 28 0 39 4 39 15 0 18 -26 18 -100 0z m-20 -55 c-8 -5 -21 -10 -29 -10
-18 0 -111 -43 -111 -52 0 -4 5 -10 10 -13 15 -9 12 -25 -5 -25 -8 0 -15 -4
-15 -10 0 -5 9 -10 20 -10 11 0 23 -7 27 -16 10 -26 -11 -49 -43 -49 -27 0
-29 3 -32 41 -2 31 -9 44 -27 54 -13 7 -31 10 -40 6 -13 -5 -16 0 -13 22 3 24
7 27 38 26 19 0 37 3 40 6 3 4 25 14 50 22 51 18 155 24 130 8z m-443 -109
c13 -11 30 -18 38 -15 7 3 16 1 19 -5 4 -6 -17 -13 -54 -17 -33 -3 -63 -7 -67
-8 -12 -2 -22 53 -10 58 25 10 50 5 74 -13z m-127 -21 c0 -5 -15 -10 -32 -10
-25 0 -29 3 -18 10 20 13 50 13 50 0z m297 -12 c-3 -8 -6 -5 -6 6 -1 11 2 17
5 13 3 -3 4 -12 1 -19z m-347 -42 c0 -17 -22 -26 -61 -26 -19 0 -29 -5 -29
-15 0 -38 99 -48 136 -14 13 12 20 28 17 37 -5 10 -3 13 6 8 7 -5 27 0 46 10
30 16 34 16 49 2 17 -17 11 -28 -14 -28 -9 0 -25 -9 -36 -21 -42 -47 -107 -61
-172 -38 -26 9 -35 7 -61 -12 -33 -25 -111 -33 -118 -12 -2 7 12 22 31 35 20
13 38 31 42 41 3 9 14 17 25 17 11 0 22 7 25 15 8 21 114 22 114 1z m230 -16
c0 -5 -9 -10 -21 -10 -11 0 -17 5 -14 10 3 6 13 10 21 10 8 0 14 -4 14 -10z
m-1440 -151 c0 -6 -4 -7 -10 -4 -5 3 -10 11 -10 16 0 6 5 7 10 4 6 -3 10 -11
10 -16z m-167 -6 c70 -3 124 -10 120 -14 -12 -12 -302 6 -333 20 -21 10 -17
11 30 6 30 -3 113 -8 183 -12z m997 7 c42 -26 -67 -38 -357 -39 -176 -1 -202
1 -197 14 5 12 35 15 173 16 134 1 296 9 356 17 6 1 17 -2 25 -8z m-1230 -55
c34 -12 85 -16 213 -16 171 1 180 -1 236 -42 24 -18 23 -18 -80 -12 -57 3
-147 7 -199 10 -151 8 -190 16 -239 54 -19 14 -39 29 -44 32 -5 4 -7 12 -3 17
4 7 18 4 39 -8 18 -11 53 -26 77 -35z m627 -81 c-3 -3 -12 -4 -19 -1 -8 3 -5
6 6 6 11 1 17 -2 13 -5z"></path>
<path d="M2410 2040 c0 -5 5 -10 10 -10 6 0 10 5 10 10 0 6 -4 10 -10 10 -5 0
-10 -4 -10 -10z"></path>
<path d="M5075 2280 c-16 -16 -24 -33 -20 -40 5 -7 -4 -22 -21 -35 -24 -20
-27 -27 -18 -42 6 -10 24 -20 40 -21 16 -2 37 -10 46 -19 18 -16 38 -10 38 12
0 7 19 24 43 37 35 19 42 28 42 53 0 29 -1 30 -45 29 -25 -1 -55 -5 -67 -9
-27 -9 -31 10 -7 36 27 30 -2 30 -31 -1z m128 -55 c3 -15 -83 -54 -120 -55
-54 0 -36 32 24 45 18 3 35 11 39 16 7 13 54 7 57 -6z"></path>
<path d="M780 2167 c-16 -34 -20 -60 -18 -112 2 -42 8 -70 15 -72 9 -3 11 9 6
44 -3 31 1 72 11 112 9 35 14 66 12 69 -3 2 -14 -16 -26 -41z"></path>
<path d="M865 2200 c-3 -5 3 -10 14 -10 12 0 21 5 21 10 0 6 -6 10 -14 10 -8
0 -18 -4 -21 -10z"></path>
<path d="M860 2126 c0 -18 35 -22 45 -6 3 6 2 10 -4 10 -5 0 -16 3 -25 6 -11
4 -16 1 -16 -10z"></path>
<path d="M6087 2122 c-10 -10 -17 -23 -17 -29 0 -6 -15 -29 -32 -51 -60 -73
-103 -163 -137 -286 -48 -170 -61 -228 -61 -259 0 -58 -13 -66 -160 -91 -74
-13 -153 -29 -175 -35 -22 -6 -73 -13 -112 -17 -52 -5 -73 -11 -73 -20 0 -10
-14 -14 -45 -14 -41 0 -253 -34 -510 -81 -104 -20 -160 -29 -265 -44 -33 -5
-50 -2 -65 9 -19 15 -19 15 10 16 17 0 46 5 65 11 42 12 128 29 192 36 26 3
52 11 59 19 7 9 31 14 65 14 30 0 54 5 54 10 0 6 -24 10 -54 10 -30 0 -58 -4
-61 -10 -3 -5 -25 -10 -48 -10 -24 0 -51 -6 -62 -14 -11 -7 -45 -16 -75 -19
-100 -12 -175 -25 -203 -36 -24 -10 -29 -8 -36 12 -5 12 -12 99 -15 192 l-7
170 -46 105 c-58 131 -79 166 -138 221 -26 24 -72 68 -103 97 l-55 52 -87 0
c-101 0 -180 -26 -180 -60 0 -10 -33 -51 -73 -92 -75 -76 -153 -189 -183 -268
-9 -25 -20 -49 -24 -55 -11 -15 -56 -162 -70 -230 -7 -33 -16 -71 -21 -85 -5
-14 -17 -68 -28 -120 -30 -151 -44 -172 -121 -185 -25 -4 -189 -8 -366 -8
l-320 0 -55 37 c-29 21 -56 41 -59 45 -3 4 -20 18 -39 31 -18 12 -66 56 -105
96 -40 40 -83 75 -97 78 -13 2 -96 7 -184 11 -88 3 -176 10 -195 15 -34 9 -37
13 -48 68 -7 32 -12 70 -12 84 l0 25 -147 7 c-186 7 -491 11 -497 5 -3 -2 -1
-38 5 -79 5 -43 5 -76 0 -79 -5 -3 -65 -4 -132 -1 -132 6 -169 0 -169 -26 0
-15 -35 -110 -69 -186 -13 -31 -21 -38 -45 -38 -16 0 -38 8 -48 17 -33 29 -43
3 -23 -59 10 -29 19 -59 21 -66 2 -6 14 -12 26 -12 13 0 56 -11 97 -23 69 -22
74 -25 87 -62 7 -22 14 -48 14 -57 0 -9 12 -23 27 -30 14 -7 35 -29 46 -48 19
-36 105 -130 119 -130 14 0 58 -43 58 -57 0 -7 -7 -13 -15 -13 -8 0 -15 -4
-15 -9 0 -15 42 -41 65 -41 12 0 55 -9 96 -21 178 -49 239 -58 503 -69 144 -6
306 -15 361 -20 55 -5 217 -16 360 -25 143 -8 312 -20 375 -26 134 -13 151
-15 370 -24 164 -7 251 -2 525 29 123 14 180 28 354 82 11 4 11 8 3 16 -8 8
-15 8 -27 -2 -25 -21 -19 14 8 43 32 35 94 70 102 57 3 -5 -3 -10 -14 -10 -11
0 -23 -4 -26 -10 -11 -18 87 -11 160 11 83 24 85 24 203 40 93 13 124 29 55
29 -37 0 -142 -14 -193 -26 -21 -5 -19 -1 14 25 39 32 47 34 121 46 22 4 45
11 51 16 20 16 203 44 494 75 129 13 228 17 185 7 -11 -3 -24 -9 -29 -14 -6
-5 -18 -9 -28 -9 -10 0 -18 -5 -18 -11 0 -7 11 -9 33 -5 17 4 56 9 85 13 59 6
68 20 20 30 -32 7 -32 7 -8 14 14 4 45 7 70 7 25 0 37 -2 28 -5 -28 -7 -21
-23 10 -23 45 0 102 12 102 21 0 5 -17 10 -37 10 -33 1 -29 3 21 12 46 8 60 7
66 -4 7 -10 14 -11 32 -2 13 7 57 14 98 17 41 3 102 10 135 15 33 6 121 13
195 16 119 6 142 10 190 33 44 22 60 38 91 88 20 34 42 86 49 115 7 30 16 59
20 64 4 6 8 43 8 83 1 84 8 112 27 112 20 0 24 9 36 96 8 57 21 94 44 134 54
91 57 230 3 157 -34 -47 -34 -46 -58 98 -7 39 -16 78 -21 87 -5 10 -9 27 -9
38 0 26 -45 112 -70 135 -11 10 -20 23 -20 30 0 6 -13 23 -28 38 -23 22 -37
27 -78 27 -37 0 -56 -5 -67 -18z m68 -322 c3 -5 14 -10 25 -10 10 0 20 -7 23
-15 7 -17 -9 -30 -18 -15 -7 11 -55 3 -70 -13 -7 -6 -6 -11 3 -14 8 -3 38 -28
67 -55 39 -36 55 -59 60 -86 4 -20 11 -43 17 -49 12 -14 4 -43 -12 -43 -5 0
-10 18 -10 40 0 26 -7 48 -19 61 -18 20 -18 20 -35 -5 -9 -14 -16 -38 -16 -53
-1 -15 -10 -46 -21 -68 -18 -36 -20 -37 -14 -10 3 17 7 57 9 90 2 33 7 77 11
98 6 29 4 37 -8 37 -15 0 -26 -28 -27 -70 l0 -25 -19 24 -19 24 -17 -36 c-15
-33 -16 -45 -5 -104 7 -38 19 -80 28 -94 9 -16 12 -34 8 -45 -7 -17 -9 -17
-21 7 -8 15 -21 29 -30 33 -8 3 -15 14 -15 25 0 11 -5 23 -10 26 -15 9 -1 128
17 138 7 5 10 13 7 19 -4 6 0 16 8 22 8 6 29 24 48 39 l33 28 -24 17 c-13 9
-28 16 -32 14 -15 -5 4 43 25 61 23 19 44 22 53 7z m-2235 -200 c8 -5 11 -10
5 -10 -5 0 -17 5 -25 10 -8 5 -10 10 -5 10 6 0 17 -5 25 -10z m98 -179 c24
-20 50 -52 58 -71 9 -19 20 -43 25 -52 15 -29 10 -52 -12 -66 -21 -13 -21 -13
-15 32 7 42 5 48 -29 83 l-35 38 -29 -33 c-26 -30 -54 -121 -63 -202 -2 -14
-9 -25 -18 -25 -19 0 -26 51 -9 71 12 15 20 77 19 152 -1 24 4 50 11 58 17 21
0 34 -34 27 -28 -6 -28 -6 -23 -72 3 -36 3 -57 0 -47 -4 10 -14 32 -23 47
l-18 29 -25 -28 c-29 -31 -52 -71 -45 -79 3 -2 15 2 27 9 18 11 23 10 36 -7
28 -37 0 -120 -32 -94 -7 6 -15 6 -18 1 -6 -11 16 -76 35 -99 36 -46 51 -93
28 -93 -6 0 -26 16 -43 35 -18 19 -37 35 -44 35 -6 0 -20 13 -31 29 -34 47
-25 137 20 211 5 8 16 29 25 45 17 32 93 96 128 106 38 12 90 -4 134 -40z
m2242 29 c0 -6 9 -24 21 -39 18 -24 20 -38 16 -97 -12 -151 -19 -184 -38 -184
-15 0 -19 -8 -19 -34 0 -84 -53 -159 -109 -152 -28 3 -65 32 -58 46 2 3 12 23
22 45 18 37 19 38 23 15 7 -51 11 -55 36 -31 45 42 51 108 21 209 -5 13 -3 22
3 22 18 0 42 -42 42 -72 0 -66 34 -14 47 72 12 75 -5 120 -45 120 -22 0 -31 7
-44 35 -17 39 -10 50 27 41 13 -3 27 -2 30 4 8 13 25 13 25 0z m-5014 -62 c9
-9 11 -22 6 -43 -8 -29 -11 -30 -64 -31 -70 -2 -82 5 -69 37 5 13 12 32 15 43
5 16 13 18 52 13 25 -2 52 -11 60 -19z m89 1 c4 -5 0 -18 -9 -28 -9 -10 -16
-25 -16 -34 0 -22 -20 -33 -31 -16 -9 15 -2 57 14 77 12 15 34 16 42 1z m75
-14 c10 -13 10 -19 -3 -33 -13 -14 -14 -21 -5 -30 18 -18 -8 -15 -37 4 -31 20
-32 48 -2 62 30 14 33 14 47 -3z m132 -23 c4 -37 24 -38 57 -3 28 30 51 40 51
23 0 -12 -62 -68 -82 -75 -10 -4 -24 -4 -32 -1 -18 7 -40 59 -33 79 9 22 35 7
39 -23z m4612 14 c-3 -8 -1 -17 5 -21 18 -11 13 -45 -6 -45 -25 0 -46 47 -30
66 16 18 38 18 31 0z m-108 -18 c8 -12 -24 -40 -41 -35 -5 2 -11 13 -13 25 -3
18 2 22 22 22 14 0 28 -5 32 -12z m-4571 -8 c-3 -5 -13 -10 -21 -10 -8 0 -14
5 -14 10 0 6 9 10 21 10 11 0 17 -4 14 -10z m-129 -91 c33 -9 48 -9 58 0 11
10 20 10 37 1 12 -7 37 -10 57 -6 36 5 77 -9 67 -24 -3 -5 -60 -7 -128 -4 -67
3 -138 5 -157 5 -40 -1 -66 12 -56 28 9 14 65 14 122 0z m4714 -74 c30 0 35 4
44 33 8 29 36 46 36 21 0 -98 -99 -203 -115 -121 -3 15 -10 42 -14 59 -5 18
-6 43 -3 55 6 20 7 18 12 -12 5 -32 8 -35 40 -35z m-1950 -41 c0 -7 10 -18 21
-25 21 -11 22 -16 15 -120 -3 -60 -12 -121 -19 -136 -11 -26 -12 -24 -14 37
-2 36 -8 89 -15 119 l-12 53 -47 -5 c-34 -4 -51 -2 -59 8 -20 24 -4 45 35 45
30 0 35 3 35 23 0 20 4 23 30 19 17 -2 30 -10 30 -18z m-133 0 c-3 -3 -12 -4
-19 -1 -8 3 -5 6 6 6 11 1 17 -2 13 -5z m1578 -15 c17 -5 58 -13 90 -17 59 -7
59 -7 70 -48 5 -23 15 -48 22 -55 6 -8 13 -28 15 -44 l3 -30 -70 -5 c-91 -6
-836 -2 -940 5 -111 8 -195 6 -215 -5 -11 -6 -30 -6 -50 0 -24 7 -38 6 -48 -2
-11 -10 -16 -8 -23 5 -12 20 -50 22 -67 5 -10 -10 -15 -10 -22 2 -15 23 -12
30 11 30 12 0 35 6 52 14 18 8 48 17 67 20 19 3 98 17 175 32 144 27 184 34
318 53 43 6 82 13 86 15 4 3 48 10 97 17 49 7 109 15 134 20 55 9 253 2 295
-12z m-1640 -35 c-9 -9 -18 -14 -21 -11 -9 9 6 27 22 27 13 0 13 -2 -1 -16z
m-2785 -48 c124 -9 322 -21 440 -26 579 -25 670 -33 670 -62 0 -10 -281 -6
-755 10 -158 5 -213 4 -221 -5 -8 -9 -57 -10 -192 -6 -178 6 -182 6 -199 -16
-17 -21 -20 -21 -58 -8 -37 13 -41 18 -46 58 -10 70 1 82 74 76 34 -3 163 -12
287 -21z m2788 0 c-1 -13 3 -31 11 -39 26 -33 -16 -74 -45 -45 -19 19 -9 88
12 88 8 0 14 5 14 10 0 6 3 10 6 10 3 0 4 -11 2 -24z m-212 -26 c19 0 18 -39
-1 -46 -8 -4 -15 -10 -15 -15 0 -5 7 -9 15 -9 21 0 19 -15 -6 -31 -19 -13 -20
-17 -7 -74 l13 -60 48 -3 c43 -3 48 -1 67 30 11 18 20 41 20 51 0 19 8 21 29
8 12 -8 11 -17 -7 -61 -12 -29 -22 -59 -22 -66 0 -8 -3 -14 -8 -14 -4 0 -12
-10 -17 -22 -6 -13 -20 -24 -33 -26 -13 -2 -26 -10 -29 -18 -10 -27 -28 -14
-51 39 -31 69 -44 126 -49 220 -5 89 0 112 23 103 9 -3 22 -6 30 -6z m124 -60
c0 -5 -2 -10 -4 -10 -3 0 -8 5 -11 10 -3 6 -1 10 4 10 6 0 11 -4 11 -10z m150
-59 c0 -11 5 -23 10 -26 6 -3 10 -17 10 -31 0 -14 4 -34 10 -44 5 -10 12 -51
14 -91 5 -67 3 -76 -20 -107 -14 -18 -37 -37 -50 -42 -13 -5 -24 -14 -24 -19
0 -13 -66 -3 -106 15 l-32 14 17 35 c20 42 31 44 31 6 0 -39 12 -45 43 -21 14
11 35 20 46 20 12 0 21 6 21 14 0 7 9 33 19 57 16 36 18 53 11 92 -5 26 -14
56 -20 66 -16 30 -13 81 5 81 8 0 15 -9 15 -19z m-80 -11 c0 -5 -4 -10 -10
-10 -5 0 -10 5 -10 10 0 6 5 10 10 10 6 0 10 -4 10 -10z m-2106 -69 c7 -11
172 -21 497 -29 234 -6 269 -9 286 -24 25 -23 30 -22 36 1 4 16 17 19 83 23
44 3 82 3 87 1 4 -2 7 -37 7 -77 l0 -73 -182 -22 c-101 -11 -204 -21 -230 -21
-26 0 -59 -5 -75 -11 -43 -17 -424 -12 -465 6 l-33 14 29 1 c16 0 69 5 118 11
105 14 122 35 21 25 -38 -3 -120 -11 -183 -17 -63 -6 -125 -15 -138 -20 -41
-16 -44 1 -9 40 19 21 54 70 77 110 39 66 61 84 74 62z m2296 -75 c-8 -8 -13
-7 -20 4 -16 25 -12 58 8 62 12 3 18 -4 20 -26 2 -15 -2 -34 -8 -40z m144
-195 c7 -11 -18 -21 -52 -20 l-27 1 30 13 c36 17 42 18 49 6z"></path>
<path d="M6090 980 c0 -5 7 -10 15 -10 8 0 15 5 15 10 0 6 -7 10 -15 10 -8 0
-15 -4 -15 -10z"></path>
<path d="M1165 1370 c-4 -6 7 -10 25 -10 18 0 29 4 25 10 -3 6 -15 10 -25 10
-10 0 -22 -4 -25 -10z"></path>
<path d="M810 1002 c0 -12 58 -27 67 -18 9 9 0 15 -35 22 -20 4 -32 2 -32 -4z"></path>
<path d="M960 990 c0 -5 5 -10 10 -10 6 0 10 5 10 10 0 6 -4 10 -10 10 -5 0
-10 -4 -10 -10z"></path>
<path d="M1070 980 c0 -5 25 -10 55 -10 30 0 55 5 55 10 0 6 -25 10 -55 10
-30 0 -55 -4 -55 -10z"></path>
<path d="M2680 700 c0 -5 6 -10 14 -10 8 0 18 5 21 10 3 6 -3 10 -14 10 -12 0
-21 -4 -21 -10z"></path>
<path d="M2390 680 c0 -5 25 -10 55 -10 30 0 55 5 55 10 0 6 -25 10 -55 10
-30 0 -55 -4 -55 -10z"></path>
<path d="M827 2084 c-10 -11 -8 -54 2 -54 14 0 25 40 14 51 -5 5 -12 6 -16 3z"></path>
<path d="M3113 1843 c-19 -7 -16 -23 3 -23 9 0 46 -25 81 -55 56 -48 93 -68
93 -50 0 15 -79 83 -110 95 -19 8 -39 19 -45 26 -5 6 -16 10 -22 7z"></path>
<path d="M2750 1810 c0 -5 5 -10 10 -10 6 0 10 5 10 10 0 6 -4 10 -10 10 -5 0
-10 -4 -10 -10z"></path>
<path d="M4300 1750 c0 -5 5 -10 10 -10 6 0 10 5 10 10 0 6 -4 10 -10 10 -5 0
-10 -4 -10 -10z"></path>
<path d="M2500 1580 c0 -5 16 -10 35 -10 19 0 35 5 35 10 0 6 -16 10 -35 10
-19 0 -35 -4 -35 -10z"></path>
<path d="M5670 1470 c0 -5 14 -10 30 -10 17 0 30 5 30 10 0 6 -13 10 -30 10
-16 0 -30 -4 -30 -10z"></path>
<path d="M583 1456 c3 -7 2 -17 -2 -22 -4 -5 -5 -49 -2 -99 5 -71 9 -90 21
-90 18 0 26 41 11 58 -7 10 -9 103 -2 127 4 13 31 -66 31 -90 0 -39 18 -83 30
-75 5 3 10 20 10 36 0 16 7 46 15 67 15 34 15 38 -1 49 -10 7 -25 13 -34 13
-9 0 -25 9 -35 20 -21 23 -50 27 -42 6z"></path>
<path d="M5547 1454 c-12 -12 4 -24 33 -24 34 0 60 9 60 21 0 10 -83 12 -93 3z"></path>
<path d="M5420 1420 c0 -5 20 -10 45 -10 25 0 45 5 45 10 0 6 -20 10 -45 10
-25 0 -45 -4 -45 -10z"></path>
<path d="M2950 1404 c-124 -7 -291 -21 -372 -30 -80 -9 -158 -14 -172 -10 -20
5 -28 2 -33 -10 -7 -18 17 -40 166 -154 94 -72 152 -100 207 -100 33 0 42 4
82 40 10 8 30 21 45 27 28 13 35 41 15 61 -18 18 -27 15 -38 -13 -11 -30 -45
-33 -60 -6 -18 34 -12 69 15 87 40 26 32 44 -18 44 -95 0 -141 -53 -115 -132
12 -34 21 -45 46 -52 36 -10 43 -26 12 -26 -12 0 -39 18 -60 39 -31 31 -40 47
-40 74 0 72 77 119 188 115 57 -2 71 -6 92 -27 14 -15 34 -30 43 -36 45 -25
-20 -160 -81 -167 -15 -2 -25 -7 -22 -13 7 -14 187 -11 233 4 52 17 56 28 118
280 5 20 3 20 -251 5z"></path>
<path d="M5286 1395 c-11 -8 -16 -18 -13 -22 4 -4 13 -1 19 5 7 7 31 12 55 12
24 0 43 5 43 10 0 15 -83 11 -104 -5z"></path>
<path d="M5170 1375 c0 -10 11 -15 35 -15 24 0 35 5 35 15 0 10 -11 15 -35 15
-24 0 -35 -5 -35 -15z"></path>
<path d="M5040 1350 c0 -5 18 -10 40 -10 22 0 40 5 40 10 0 6 -18 10 -40 10
-22 0 -40 -4 -40 -10z"></path>
<path d="M4910 1330 c0 -5 20 -10 45 -10 25 0 45 5 45 10 0 6 -20 10 -45 10
-25 0 -45 -4 -45 -10z"></path>
<path d="M2840 1295 c0 -9 8 -18 18 -21 9 -3 25 -10 35 -15 29 -16 33 -2 7 26
-26 28 -60 33 -60 10z"></path>
<path d="M2311 1293 c1 -12 100 -95 106 -89 3 3 -16 26 -43 50 -47 44 -65 54
-63 39z"></path>
<path d="M610 1220 c-13 -9 -13 -11 0 -20 19 -12 35 -8 35 10 0 18 -16 22 -35
10z"></path>
<path d="M2430 1183 c0 -13 116 -102 151 -117 45 -18 119 -30 119 -19 0 5 -27
15 -61 22 -47 11 -76 26 -129 67 -68 54 -80 61 -80 47z"></path>
<path d="M4968 663 c-41 -4 -53 -23 -15 -23 33 0 67 11 67 21 0 5 -3 8 -7 7
-5 -1 -25 -3 -45 -5z"></path>
<path d="M4770 630 c-8 -5 -11 -12 -8 -16 10 -9 38 3 38 16 0 12 -10 13 -30 0z"></path>
<path d="M4608 593 c-16 -2 -28 -9 -28 -15 0 -6 12 -8 31 -4 17 3 35 6 40 6 5
0 9 5 9 10 0 10 -3 10 -52 3z"></path>
</g>
</svg>