 <svg version="1.0" xmlns="http://www.w3.org/2000/svg" width="700.000000pt" height="393.000000pt" viewBox="0 0 700.000000 393.000000" preserveAspectRatio="xMidYMid meet">
<metadata>
Created by potrace 1.12, written by Peter Selinger 2001-2015
</metadata>
<g transform="translate(0.000000,393.000000) scale(0.100000,-0.100000)" fill="#000000" stroke="none">
<path d="M4567 3734 c-3 -3 0 -16 7 -29 9 -21 18 -25 54 -25 31 0 42 -4 39
-12 -2 -7 -11 -12 -21 -10 -20 4 -21 -12 0 -29 8 -7 24 -29 34 -50 l19 -37
-582 6 c-700 6 -1426 -17 -1721 -54 -52 -7 -53 -5 -31 49 5 12 2 17 -9 17 -9
0 -16 6 -16 13 0 21 22 37 52 37 15 0 28 5 28 10 0 6 6 10 14 10 7 0 16 8 19
18 2 9 8 26 13 36 7 17 4 19 -31 13 -36 -6 -75 -31 -75 -49 0 -4 -17 -34 -37
-66 -20 -31 -46 -72 -57 -89 -12 -18 -25 -33 -31 -33 -16 -1 -45 -47 -47 -74
-1 -15 -7 -26 -13 -26 -5 0 -3 -5 5 -10 12 -8 12 -10 -5 -10 -15 0 -17 -3 -7
-9 10 -6 9 -10 -7 -14 -13 -3 -21 -13 -21 -26 0 -30 -2 -35 -16 -46 -16 -12
-61 -119 -114 -270 -21 -60 -45 -123 -54 -140 -9 -16 -16 -36 -16 -43 0 -7 -7
-15 -15 -18 -11 -5 -12 -11 -4 -25 13 -25 25 -17 33 22 3 17 16 52 29 77 13
26 29 66 37 90 24 76 21 37 -5 -64 -14 -55 -24 -108 -21 -118 3 -11 -4 -32
-15 -48 -18 -25 -20 -41 -17 -136 l3 -107 -43 1 c-56 1 -53 -10 6 -27 l47 -13
-43 -4 c-23 -2 -42 -7 -42 -12 0 -4 48 -20 108 -34 171 -40 203 -47 255 -50
55 -4 87 -28 117 -86 31 -61 34 -94 10 -115 -17 -16 -20 -26 -14 -64 4 -25 13
-61 20 -79 10 -25 11 -34 1 -37 -7 -2 -26 -8 -43 -13 -35 -11 -84 -5 -84 10 0
6 -10 8 -22 5 -12 -4 -27 -2 -33 3 -6 5 -37 11 -70 14 -33 3 -82 13 -108 22
-36 13 -51 14 -60 5 -18 -18 4 -31 62 -36 29 -2 58 -9 65 -14 6 -6 21 -10 31
-10 66 1 166 -28 173 -48 2 -8 -6 -13 -22 -13 -14 0 -26 -4 -26 -9 0 -4 33
-11 73 -15 39 -4 80 -9 90 -12 9 -3 17 -1 17 5 0 6 -8 11 -17 11 -13 1 -10 5
10 16 15 8 27 21 27 29 0 9 6 12 15 9 9 -4 15 0 15 8 0 19 -20 38 -42 38 -13
0 -18 8 -18 29 0 16 -7 34 -15 41 -18 15 -19 53 -3 83 6 12 14 35 17 51 4 16
11 31 17 33 35 12 194 -153 194 -201 -1 -11 -7 -32 -15 -46 -8 -14 -14 -37
-15 -51 0 -14 -23 -64 -51 -110 -88 -147 -269 -538 -269 -583 0 -9 11 -16 28
-18 21 -2 27 -8 26 -28 0 -17 8 -29 25 -37 20 -9 21 -12 8 -13 -23 0 -69 24
-86 44 -10 12 -33 16 -89 16 l-75 0 5 43 c3 23 40 116 81 207 124 267 13 99
-164 -250 -60 -118 -108 -199 -134 -226 -36 -38 -46 -43 -100 -48 -79 -9 -172
-25 -201 -36 -23 -9 -23 -10 -8 -47 9 -21 22 -45 29 -53 10 -11 14 -73 17
-255 l3 -240 -510 -6 c-280 -3 -651 -7 -823 -8 l-313 -1 3 -92 c3 -87 4 -93
23 -90 52 8 161 8 166 0 3 -5 15 -10 27 -11 21 -1 21 -1 2 -19 -11 -11 -20
-20 -20 -22 0 -8 276 -3 287 6 7 5 21 7 32 3 10 -3 22 -1 26 5 4 6 16 8 27 4
13 -4 24 -1 29 7 6 10 9 10 9 2 0 -7 -8 -16 -17 -22 -12 -6 41 -9 161 -10 98
0 176 3 172 6 -3 3 3 13 15 21 11 8 23 11 26 8 4 -3 2 -6 -4 -6 -6 0 -13 -7
-17 -15 -8 -22 48 -20 70 2 13 13 19 14 22 5 2 -6 10 -12 18 -12 11 0 13 7 8
27 -6 22 -4 25 10 20 10 -4 23 -7 29 -7 7 0 3 -7 -7 -15 -11 -8 -16 -18 -13
-22 4 -3 85 -8 180 -11 146 -3 175 -2 185 11 11 13 10 15 -6 10 -12 -3 -19 1
-19 9 0 8 9 14 20 14 11 -1 22 5 25 13 3 9 0 11 -8 6 -9 -5 -11 -4 -6 3 11 18
26 14 27 -5 0 -15 2 -15 9 2 5 11 9 15 9 8 2 -22 44 -36 109 -38 45 -1 65 2
69 12 3 7 9 10 14 7 5 -3 7 -9 4 -14 -10 -16 37 -23 52 -7 14 14 14 15 -2 14
-10 -1 -19 3 -21 8 -2 6 16 10 41 11 35 1 41 -2 30 -10 -13 -10 -13 -12 2 -22
24 -15 65 0 57 21 -4 10 0 15 15 15 12 0 21 -4 21 -9 0 -4 11 -7 25 -6 14 2
23 -1 19 -6 -3 -5 0 -9 6 -9 6 0 8 -4 5 -10 -6 -10 -3 -11 55 -17 172 -15 210
-15 210 2 0 9 5 13 11 10 6 -4 22 3 35 16 l25 24 -10 -28 c-6 -16 -11 -29 -11
-31 0 -1 36 -3 81 -5 65 -2 79 0 73 11 -6 10 -5 10 7 2 8 -6 28 -11 44 -9 44
3 47 4 40 15 -5 9 16 15 38 11 5 -1 6 3 2 9 -3 6 -11 7 -17 4 -6 -4 -8 -2 -5
4 12 17 47 1 47 -22 1 -19 2 -19 11 -3 5 9 17 17 26 17 12 0 13 3 3 14 -6 8
-19 12 -28 9 -14 -4 -14 -3 -3 5 17 12 41 5 58 -15 6 -8 16 -12 22 -9 5 4 12
2 16 -4 4 -6 10 -8 15 -5 5 3 26 -3 47 -14 35 -17 61 -19 253 -19 137 -1 219
3 227 10 8 7 13 7 13 0 0 -6 91 -10 253 -10 138 0 246 2 240 5 -19 7 -16 36 3
29 9 -3 12 -2 9 5 -4 6 -13 8 -21 5 -9 -3 -14 1 -15 12 0 10 -3 12 -6 5 -2 -7
-11 -13 -20 -13 -13 0 -12 2 1 15 13 13 19 14 36 3 17 -11 22 -11 30 2 8 13
13 9 12 -10 0 -3 24 -5 53 -5 29 0 51 3 48 8 -2 4 -1 7 4 7 4 0 26 5 48 10 36
8 38 7 20 -6 -11 -8 -25 -12 -32 -10 -7 3 -15 1 -18 -4 -6 -10 14 -15 53 -11
12 1 25 -5 28 -14 3 -8 10 -12 15 -9 5 3 11 -1 14 -8 4 -10 34 -14 109 -16 88
-3 104 -1 110 13 3 9 11 13 17 9 8 -5 9 -3 4 6 -5 9 -2 10 13 6 11 -4 23 -2
27 4 3 6 11 8 16 5 5 -4 6 2 2 12 -3 10 -3 15 1 11 5 -4 20 -2 34 3 22 8 23 8
12 -6 -11 -13 -10 -14 5 -9 12 5 16 4 12 -3 -4 -7 7 -13 28 -17 24 -5 33 -11
28 -21 -3 -11 2 -15 18 -15 12 0 20 3 16 6 -10 10 26 42 41 36 10 -3 13 -1 8
6 -5 8 1 12 16 11 13 0 34 3 47 7 14 4 22 3 19 -2 -11 -17 55 -14 69 4 8 9 11
11 7 3 -3 -7 -1 -17 6 -21 8 -5 3 -10 -14 -14 -25 -6 -37 -26 -16 -26 6 0 10
5 10 10 0 6 5 10 11 10 6 0 22 9 35 19 21 16 30 18 55 9 23 -8 29 -15 26 -29
-3 -11 -1 -17 3 -14 5 3 11 1 15 -5 3 -5 25 -9 48 -9 23 1 34 3 25 6 -10 2
-18 9 -18 15 0 6 -11 8 -25 6 -14 -3 -25 -2 -25 2 0 12 26 19 48 13 11 -2 23
0 26 6 4 5 13 8 21 4 11 -4 13 0 8 13 -6 18 -5 18 13 3 22 -18 60 -22 86 -8
12 6 18 6 18 -1 0 -5 24 -11 53 -11 28 -1 42 -4 30 -6 -28 -5 -30 -23 -3 -23
11 0 20 -4 20 -10 0 -6 33 -10 80 -10 47 0 80 4 80 10 0 6 10 11 23 11 16 1
18 2 5 6 -10 2 -18 9 -18 14 0 6 4 8 9 5 5 -4 11 -1 13 6 3 7 11 9 24 3 33
-14 56 -16 48 -4 -4 8 -1 8 13 1 11 -6 25 -7 35 -1 23 13 47 1 54 -27 6 -22
11 -24 65 -24 46 0 62 4 78 21 18 20 21 20 50 6 17 -9 29 -11 26 -6 -4 5 -2 9
3 9 6 0 12 -7 16 -15 4 -12 27 -15 117 -15 98 0 110 2 99 15 -14 17 -19 15 80
21 99 6 113 5 121 -8 4 -7 11 -10 14 -6 4 3 18 0 33 -8 20 -10 29 -11 41 -1
10 8 13 8 8 1 -9 -16 125 -16 135 0 6 8 8 8 8 -1 0 -8 51 -12 185 -13 162 0
184 1 179 15 -5 11 1 15 23 15 16 0 34 -5 39 -10 7 -7 19 -8 37 -1 26 10 40
-2 15 -12 -7 -3 26 -6 75 -6 l87 -1 0 152 0 151 -152 -6 c-84 -4 -418 -7 -743
-8 l-590 0 -5 248 c-4 222 -3 250 12 271 19 26 42 91 35 98 -2 2 -39 11 -81
19 -79 15 -143 42 -166 70 -21 25 -69 47 -96 43 -23 -3 -34 13 -132 187 -112
199 -230 395 -238 395 -6 0 -12 13 79 -170 44 -87 81 -174 84 -197 l6 -43 -74
6 c-74 6 -75 6 -87 -20 -33 -74 -111 -81 -1022 -95 -355 -6 -782 -13 -949 -17
-225 -5 -302 -4 -297 5 5 8 87 11 279 11 150 0 468 5 707 10 239 5 579 12 755
16 321 6 439 14 458 33 5 5 10 20 11 33 1 17 8 24 29 26 16 2 27 9 27 18 0 42
-171 383 -276 550 -40 63 -64 113 -64 131 0 15 -9 42 -20 58 -11 17 -20 39
-20 49 0 34 73 128 135 173 l59 43 12 -38 c6 -21 19 -52 29 -69 16 -27 16 -32
2 -54 -8 -13 -18 -39 -22 -57 -4 -21 -12 -32 -20 -28 -17 6 -35 -13 -35 -37 0
-13 5 -17 15 -13 11 4 15 -1 15 -17 0 -13 6 -30 13 -39 11 -15 28 -14 190 10
97 14 177 30 177 34 0 11 -23 10 -112 -2 -122 -17 -159 -19 -155 -6 2 6 17 12
33 14 16 2 36 6 44 9 8 3 24 6 35 7 27 1 33 36 6 36 -11 0 -23 -5 -26 -10 -4
-6 -10 -8 -15 -5 -5 3 -19 1 -32 -4 -16 -6 -40 -5 -67 2 -38 10 -41 14 -36 37
4 14 13 38 21 55 10 19 11 31 4 33 -5 2 -7 14 -4 26 3 15 -2 28 -15 40 -27 25
-26 49 4 113 27 60 72 93 124 93 19 0 48 4 65 9 17 5 77 21 133 35 133 34 159
44 146 57 -7 7 -28 6 -67 -4 -73 -20 -64 -5 11 17 32 10 68 21 80 26 13 5 30
7 39 3 15 -6 17 0 11 54 -7 70 -4 73 91 73 61 0 234 36 274 56 32 17 78 74 78
98 0 10 5 26 10 36 13 24 -1 33 -31 22 -18 -7 -20 -11 -8 -18 14 -9 -374 -47
-398 -39 -19 6 -16 91 3 120 9 14 26 25 38 25 11 0 35 7 51 16 40 21 182 57
220 56 63 -2 106 -104 50 -118 -41 -10 -30 -27 13 -19 52 9 56 16 42 74 -23
96 -24 96 -213 96 -161 0 -166 -1 -191 -24 -28 -27 -42 -80 -53 -211 -8 -84
-8 -85 -36 -88 -16 -2 -30 -9 -33 -17 -6 -14 27 -85 57 -124 25 -32 24 -40 -8
-52 -20 -7 -33 -7 -45 0 -13 8 -19 7 -27 -7 -11 -19 -18 -16 -23 13 -2 12 2
19 10 18 6 -2 12 4 12 13 0 8 -5 12 -11 9 -6 -4 -13 2 -16 14 -7 26 -19 27
-26 2 -3 -13 -20 -24 -48 -31 -103 -28 -188 -42 -246 -42 -35 0 -63 -4 -63 -9
0 -5 16 -9 35 -9 l35 0 -39 -35 c-33 -30 -45 -35 -89 -35 -46 0 -53 3 -78 35
-26 34 -28 35 -98 35 -49 0 -66 3 -56 10 13 8 13 10 0 10 -8 0 -77 1 -155 3
-128 2 -140 1 -139 -15 2 -16 -8 -18 -71 -18 -45 0 -75 4 -77 11 -5 14 -321
13 -326 -1 -5 -13 -42 -13 -42 0 0 6 -12 10 -27 9 -16 0 -22 -3 -15 -6 6 -2
12 -9 12 -14 0 -13 -58 -11 -62 1 -5 15 -401 16 -406 1 -2 -7 -40 -11 -103
-11 -59 0 -98 4 -94 9 9 16 -32 23 -74 11 -22 -6 -58 -8 -80 -4 -25 4 -41 3
-41 -4 0 -5 -9 -12 -20 -15 -11 -3 -18 0 -17 7 3 18 -88 20 -106 1 -9 -8 -24
-15 -35 -15 -40 0 -83 -23 -98 -52 -15 -29 -19 -30 -64 -26 -79 8 -155 68 -84
68 13 0 24 4 24 9 0 5 -33 9 -72 8 -40 0 -110 7 -155 17 -45 9 -92 18 -104 19
-11 1 -25 9 -30 19 -11 21 -15 150 -5 167 11 17 26 13 26 -8 0 -30 51 -60 142
-83 76 -19 89 -20 165 -8 68 11 90 11 123 0 30 -10 87 -12 241 -7 144 5 206 3
219 -5 14 -9 85 -9 292 0 150 7 434 12 630 12 227 0 359 4 363 10 4 6 86 10
213 10 178 0 212 2 242 18 32 16 42 16 112 4 65 -10 88 -10 148 2 84 18 151
52 165 84 6 15 16 21 28 18 20 -5 22 7 3 23 -9 7 -13 27 -11 56 2 25 0 45 -5
45 -4 0 -13 20 -19 44 -6 24 -14 51 -18 61 -4 12 -3 16 4 12 6 -4 16 -27 23
-52 7 -25 17 -45 21 -45 15 0 10 21 -26 118 -60 159 -92 222 -112 222 -15 0
-16 2 -3 10 12 8 12 10 -5 10 -17 0 -17 2 -5 10 8 5 10 10 3 10 -6 0 -9 8 -6
18 2 10 -3 24 -11 31 -9 8 -16 22 -16 33 0 10 -11 29 -23 41 -13 12 -27 34
-31 50 -3 15 -12 27 -19 27 -6 0 -28 24 -47 53 -19 28 -51 75 -72 103 -21 28
-38 55 -38 61 0 18 -34 40 -72 46 -20 3 -38 3 -41 1z m-2177 -104 c0 -5 -4
-10 -10 -10 -5 0 -10 5 -10 10 0 6 5 10 10 10 6 0 10 -4 10 -10z m2307 -5 c3
-9 3 -19 -1 -22 -7 -7 -36 16 -36 28 0 15 30 10 37 -6z m33 -51 c0 -8 -4 -12
-10 -9 -5 3 -10 10 -10 16 0 5 5 9 10 9 6 0 10 -7 10 -16z m-1020 -150 c0 -8
-7 -14 -15 -14 -25 0 0 -37 30 -44 14 -4 38 -20 54 -36 28 -30 28 -30 147 -30
176 0 354 -17 374 -35 9 -8 21 -15 26 -15 6 0 21 -19 34 -42 18 -33 20 -40 6
-29 -14 12 -19 12 -25 2 -4 -7 -32 -14 -62 -17 -72 -6 -147 -32 -162 -55 -6
-10 -17 -19 -24 -19 -28 0 -63 -25 -72 -52 -6 -16 -16 -67 -22 -113 -11 -79
-13 -84 -38 -87 -14 -2 -51 3 -81 10 -117 29 -160 34 -315 38 -177 5 -302 -13
-380 -55 -38 -20 -114 -29 -116 -13 0 4 -2 21 -3 37 -13 153 -31 199 -88 225
-24 11 -58 31 -76 44 -27 21 -130 44 -158 36 -4 -1 -11 6 -16 15 -9 15 -11 15
-24 -2 -9 -13 -13 -14 -14 -4 0 7 15 28 33 45 43 41 105 53 337 66 260 16 259
16 323 -12 l57 -25 -61 -7 c-34 -3 -66 -3 -73 1 -6 3 -6 0 2 -8 8 -9 46 -15
117 -17 113 -5 308 15 299 29 -3 5 -17 8 -32 7 -74 -5 -102 2 -112 26 -5 13
-23 32 -40 42 l-31 19 48 22 c27 12 60 22 76 23 32 0 37 20 5 20 -35 0 -56 16
-41 31 10 10 18 10 38 -1 22 -12 28 -12 42 3 18 18 33 14 33 -9z m1139 -174
c104 -234 127 -323 99 -390 -14 -33 -19 -36 -61 -38 -25 -1 -49 3 -52 8 -3 5
-10 36 -15 67 -18 112 -32 144 -71 163 -23 12 -41 32 -52 57 -27 64 -28 80
-13 139 17 63 15 74 -9 54 -13 -11 -20 -9 -40 10 -50 47 -25 96 56 108 51 8
55 7 76 -16 12 -14 49 -87 82 -162z m-2421 103 c17 -37 16 -43 -15 -75 l-26
-27 -13 25 c-7 13 -11 31 -7 39 3 9 -1 15 -11 15 -21 0 -20 -15 4 -85 11 -32
20 -74 20 -94 -1 -54 -34 -118 -73 -141 -29 -17 -36 -29 -46 -77 -6 -31 -11
-70 -11 -87 0 -45 -11 -55 -61 -62 -61 -8 -74 9 -74 95 1 77 58 256 130 408
l44 93 63 0 c59 0 64 -2 76 -27z m-361 -305 c-3 -8 -6 -5 -6 6 -1 11 2 17 5
13 3 -3 4 -12 1 -19z m2968 -23 c4 -21 3 -25 -3 -15 -15 24 -26 67 -14 55 6
-5 13 -23 17 -40z m-80 -266 c9 -29 -21 -69 -69 -93 -35 -17 -44 -17 -134 -5
-53 7 -101 12 -107 10 -44 -15 -106 -20 -275 -26 -107 -3 -265 -10 -350 -15
-85 -6 -263 -9 -395 -9 -132 1 -319 -4 -415 -10 -172 -11 -295 -7 -306 10 -4
8 -126 4 -169 -6 -11 -2 -80 0 -153 4 -118 7 -135 11 -157 31 -13 13 -22 27
-19 31 3 5 100 9 217 9 179 -1 214 -3 229 -17 12 -11 21 -13 30 -6 24 19 230
33 573 38 187 3 381 7 430 10 50 2 137 0 195 -4 74 -6 158 -4 286 7 135 12
200 13 253 6 63 -9 74 -8 87 7 9 10 13 23 9 29 -10 16 83 2 113 -16 26 -17 42
-11 42 17 0 16 7 19 39 19 32 0 41 -4 46 -21z m-729 -4 c-11 -8 -29 -15 -40
-16 -65 -2 -189 2 -241 9 l-60 7 100 6 c55 3 136 6 180 7 72 1 78 0 61 -13z
m-1058 -10 c-3 -3 -30 -8 -59 -10 -30 -2 -91 -7 -136 -10 -84 -6 -123 -1 -123
16 0 5 68 9 162 9 89 0 159 -2 156 -5z m-960 -35 c14 -23 52 -27 52 -5 0 18
12 19 28 3 9 -9 12 -9 12 0 0 7 9 12 20 12 25 0 96 -68 84 -80 -5 -5 -44 -14
-86 -21 -72 -12 -81 -11 -125 7 -79 32 -100 104 -31 104 22 0 37 -7 46 -20z
m3012 -65 c0 -5 -5 -3 -10 5 -5 8 -10 20 -10 25 0 6 5 3 10 -5 5 -8 10 -19 10
-25z m-3210 -235 c8 -5 11 -10 5 -10 -5 0 -17 5 -25 10 -8 5 -10 10 -5 10 6 0
17 -5 25 -10z m2764 -8 c3 -5 -38 -46 -90 -93 -141 -123 -254 -258 -254 -300
0 -10 24 -60 54 -111 29 -51 61 -109 71 -128 l18 -35 -21 19 c-12 10 -54 67
-93 126 -40 60 -80 111 -91 113 -34 9 -25 34 90 250 26 49 29 62 19 78 -16 25
120 26 -1565 -7 l-292 -6 -6 -24 c-5 -18 12 -55 65 -148 70 -124 85 -166 57
-166 -8 0 -39 -42 -69 -92 -101 -171 -131 -185 -47 -21 28 53 50 106 50 117 0
44 -113 172 -257 293 -57 48 -102 88 -100 90 2 2 271 5 598 7 625 5 1481 23
1684 35 66 5 132 9 147 10 15 0 29 -3 32 -7z m-398 -131 c-8 -13 -219 -20
-951 -32 -410 -6 -679 -7 -694 -1 -16 6 172 12 530 17 500 7 1055 19 1102 23
10 1 16 -2 13 -7z m-762 -71 c14 0 6 -13 -33 -56 -28 -30 -51 -64 -51 -75 0
-18 6 -20 83 -17 l82 3 3 32 c2 23 -5 40 -30 68 l-33 38 32 -16 c38 -20 63
-53 63 -85 0 -35 -27 -80 -59 -96 -38 -20 -120 -30 -176 -21 -56 8 -125 64
-125 101 0 75 96 140 190 129 19 -3 43 -5 54 -5z m689 -61 c-22 -22 -541 -40
-528 -19 4 6 69 11 158 11 126 1 335 11 372 17 5 1 4 -3 -2 -9z m-973 -30 c0
-11 -510 -12 -528 0 -7 4 109 8 258 8 148 0 270 -3 270 -8z m906 -120 c-36
-22 -528 -40 -540 -20 -3 5 111 13 257 18 144 5 271 10 282 11 19 1 19 1 1 -9z
m-846 -29 c-19 -12 -477 -12 -505 0 -12 5 90 9 250 9 178 1 265 -3 255 -9z
m1355 -20 c3 -5 1 -10 -4 -10 -6 0 -11 5 -11 10 0 6 2 10 4 10 3 0 8 -4 11
-10z m-470 -97 c-19 -15 -19 -15 5 -8 54 15 70 17 86 11 37 -14 -4 -20 -154
-23 -86 -1 -285 -7 -442 -12 -316 -12 -850 -14 -899 -5 -70 14 -20 19 171 15
219 -3 1025 16 1148 29 41 4 82 8 90 8 11 1 9 -3 -5 -15z m222 -119 c5 -15
-163 -24 -401 -22 l-191 1 140 9 c77 4 192 12 255 17 142 10 192 9 197 -5z
m-1408 -40 c2 -2 -100 -4 -228 -4 -136 0 -230 4 -227 9 6 8 445 3 455 -5z
m723 9 c-40 -2 -103 -2 -140 0 -37 2 -4 3 73 3 77 0 107 -2 67 -3z m-634 -10
c-10 -2 -26 -2 -35 0 -10 3 -2 5 17 5 19 0 27 -2 18 -5z m105 0 c-13 -2 -35
-2 -50 0 -16 2 -5 4 22 4 28 0 40 -2 28 -4z m-816 -589 c-3 -3 -12 -4 -19 -1
-8 3 -5 6 6 6 11 1 17 -2 13 -5z m2150 -480 c28 -11 58 -26 66 -32 8 -7 32
-14 53 -16 l39 -4 1 -93 c1 -52 2 -101 3 -109 1 -8 12 -27 26 -42 20 -22 22
-27 9 -32 -9 -3 -569 -9 -1246 -13 l-1230 -6 20 32 c17 29 19 45 15 135 l-6
103 33 7 c19 3 59 18 89 33 38 17 85 29 144 35 83 9 90 9 111 -11 18 -17 35
-21 84 -21 33 0 64 5 67 10 10 16 83 12 111 -6 22 -15 67 -16 487 -9 254 4
503 10 552 13 50 2 139 4 200 3 129 -2 151 2 160 30 6 19 13 20 83 17 44 -3
99 -13 129 -24z m-2937 -528 c0 -2 -7 -7 -16 -10 -8 -3 -12 -2 -9 4 6 10 25
14 25 6z m164 -11 c-4 -8 -11 -15 -16 -15 -6 0 -5 6 2 15 7 8 14 15 16 15 2 0
1 -7 -2 -15z m2132 -10 c1 -14 -2 -25 -7 -25 -10 0 -12 33 -2 43 3 4 7 7 7 7
1 0 2 -11 2 -25z m2814 15 c0 -5 -2 -10 -4 -10 -3 0 -8 5 -11 10 -3 6 -1 10 4
10 6 0 11 -4 11 -10z m-6570 -4 c0 -3 -4 -8 -10 -11 -5 -3 -10 -1 -10 4 0 6 5
11 10 11 6 0 10 -2 10 -4z m4740 -6 c0 -5 -7 -7 -15 -4 -8 4 -15 8 -15 10 0 2
7 4 15 4 8 0 15 -4 15 -10z m-2700 -4 c0 -3 -4 -8 -10 -11 -5 -3 -10 -1 -10 4
0 6 5 11 10 11 6 0 10 -2 10 -4z m4497 -11 c0 -8 -7 -15 -15 -15 -12 0 -12 3
-2 15 7 8 13 15 15 15 1 0 2 -7 2 -15z m-6277 -5 c0 -5 -2 -10 -4 -10 -3 0 -8
5 -11 10 -3 6 -1 10 4 10 6 0 11 -4 11 -10z m1715 -1 c11 -17 2 -18 -19 -3
-17 12 -17 14 -4 14 9 0 20 -5 23 -11z m2065 7 c0 -11 -19 -15 -25 -6 -3 5 1
10 9 10 9 0 16 -2 16 -4z m890 -6 c0 -5 -2 -10 -4 -10 -3 0 -8 5 -11 10 -3 6
-1 10 4 10 6 0 11 -4 11 -10z m85 -6 c-9 -9 -19 -13 -23 -10 -3 4 0 11 8 16
24 15 33 11 15 -6z m-4591 -2 c3 -5 -1 -9 -9 -9 -8 0 -12 4 -9 9 3 4 7 8 9 8
2 0 6 -4 9 -8z m1183 2 c-3 -3 -12 -4 -19 -1 -8 3 -5 6 6 6 11 1 17 -2 13 -5z
m257 -2 c3 -5 -1 -9 -9 -9 -8 0 -12 4 -9 9 7 10 11 10 18 0z m766 -18 c0 -8
-5 -12 -10 -9 -6 4 -8 11 -5 16 9 14 15 11 15 -7z m2945 6 c7 -12 -2 -12 -30
0 -19 8 -19 9 2 9 12 1 25 -3 28 -9z m-2592 -7 c-7 -2 -19 -2 -25 0 -7 3 -2 5
12 5 14 0 19 -2 13 -5z m67 3 c0 -2 -7 -7 -16 -10 -8 -3 -12 -2 -9 4 6 10 25
14 25 6z"></path>
<path d="M4690 3361 c0 -12 5 -21 10 -21 6 0 10 6 10 14 0 8 -4 18 -10 21 -5
3 -10 -3 -10 -14z"></path>
<path d="M4737 3232 c-21 -23 -22 -62 -2 -88 15 -18 15 -16 10 24 -6 34 -4 42
9 42 21 0 28 16 12 29 -10 8 -17 6 -29 -7z"></path>
<path d="M4870 2885 c0 -8 5 -15 10 -15 6 0 10 7 10 15 0 8 -4 15 -10 15 -5 0
-10 -7 -10 -15z"></path>
<path d="M2282 3185 c-7 -14 -12 -31 -12 -38 1 -16 35 -57 48 -57 19 0 24 57
7 89 -19 38 -28 39 -43 6z m30 -47 c-15 -15 -26 -4 -18 18 5 13 9 15 18 6 9
-9 9 -15 0 -24z"></path>
<path d="M2226 3021 c-4 -5 -2 -12 3 -15 5 -4 12 -2 15 3 4 5 2 12 -3 15 -5 4
-12 2 -15 -3z"></path>
<path d="M3493 2188 c-104 -22 -127 -153 -33 -185 44 -15 114 -16 163 -2 59
16 43 29 -35 29 -111 0 -144 16 -103 50 8 7 15 19 15 27 0 8 11 29 26 48 29
39 24 45 -33 33z"></path>
<path d="M4520 3690 c0 -5 4 -10 9 -10 6 0 13 5 16 10 3 6 -1 10 -9 10 -9 0
-16 -4 -16 -10z"></path>
<path d="M4427 3673 c-4 -3 -273 -7 -599 -8 -396 -2 -694 -8 -897 -19 -167
-10 -310 -15 -317 -12 -20 8 -134 -15 -134 -27 0 -12 322 -4 605 15 99 6 440
11 818 10 556 0 651 -2 665 -15 21 -18 62 -31 62 -19 0 21 -83 62 -125 62 -24
0 -47 5 -50 10 -7 12 -19 13 -28 3z"></path>
<path d="M2486 3662 c-3 -6 -1 -14 5 -17 15 -10 25 3 12 16 -7 7 -13 7 -17 1z"></path>
<path d="M2415 3560 c-10 -11 -16 -21 -14 -21 17 -6 129 -6 129 -1 0 4 -15 12
-32 18 -18 6 -40 14 -49 18 -9 4 -22 -1 -34 -14z"></path>
<path d="M1545 2973 c-67 -8 -76 -14 -95 -56 -11 -23 -20 -56 -20 -73 0 -33 6
-38 65 -55 l30 -8 -34 28 c-35 28 -35 29 -22 70 14 50 27 56 134 64 72 6 77 5
77 -13 0 -14 11 -23 40 -31 53 -16 68 -35 70 -89 3 -78 1 -92 -12 -83 -7 4
-83 10 -168 14 -85 3 -162 10 -172 13 -13 6 -16 2 -14 -23 2 -33 44 -84 86
-106 35 -18 187 -48 240 -46 72 1 79 -4 72 -51 -3 -30 -2 -39 6 -34 7 4 12 13
12 20 0 8 7 19 15 26 18 15 65 98 65 116 0 9 -13 12 -42 11 l-43 -2 -2 129
c-2 179 -3 181 -149 182 -60 1 -122 0 -139 -3z"></path>
<path d="M5100 2872 c0 -23 27 -62 44 -62 18 0 18 1 3 18 -10 10 -17 23 -17
29 0 6 -7 13 -15 17 -8 3 -15 2 -15 -2z"></path>
<path d="M4532 2533 c-6 -3 -10 -9 -6 -14 7 -12 44 -12 44 0 0 11 -21 19 -38
14z"></path>
<path d="M4590 2530 c0 -5 5 -10 10 -10 6 0 10 5 10 10 0 6 -4 10 -10 10 -5 0
-10 -4 -10 -10z"></path>
<path d="M4040 2520 c-22 -5 -23 -7 -7 -13 28 -11 97 -8 97 3 0 6 -3 11 -7 12
-23 4 -61 4 -83 -2z"></path>
<path d="M2470 2495 c13 -16 50 -21 50 -6 0 5 -10 11 -22 15 -36 9 -41 7 -28
-9z"></path>
<path d="M2978 2493 c7 -3 16 -2 19 1 4 3 -2 6 -13 5 -11 0 -14 -3 -6 -6z"></path>
<path d="M5326 2441 c-3 -5 12 -20 34 -35 46 -31 52 -22 12 17 -30 29 -38 32
-46 18z"></path>
<path d="M5096 2387 c-88 -23 -158 -46 -157 -52 2 -5 9 -19 17 -29 12 -18 14
-17 39 13 21 24 35 31 63 31 21 0 43 -4 51 -9 10 -7 24 -2 44 15 37 31 68 30
106 -2 17 -14 31 -21 31 -15 0 18 -24 91 -30 90 -3 0 -77 -19 -164 -42z"></path>
<path d="M1725 2370 c-10 -11 -15 -20 -11 -20 14 0 46 21 46 30 0 16 -16 11
-35 -10z"></path>
<path d="M1833 2358 c-13 -16 -34 -80 -29 -85 2 -2 15 7 29 21 33 32 82 35
113 5 18 -17 26 -19 42 -10 37 20 79 13 110 -19 l30 -30 17 26 c9 14 15 27 13
28 -6 5 -300 76 -313 76 -1 0 -7 -6 -12 -12z"></path>
<path d="M5334 2324 c16 -110 16 -110 82 -168 l63 -57 -5 71 c-6 83 -23 142
-43 148 -10 3 -12 0 -7 -14 16 -41 37 -136 34 -152 -3 -14 -12 -9 -45 23 -40
38 -43 44 -50 114 -5 49 -13 76 -22 79 -11 4 -12 -5 -7 -44z"></path>
<path d="M5158 2326 c-12 -28 2 -76 22 -76 5 0 11 11 11 25 3 46 4 50 18 50
10 0 15 -11 15 -33 1 -48 21 -39 21 11 0 41 -1 42 -37 45 -32 3 -40 -1 -50
-22z"></path>
<path d="M4870 2304 c0 -14 -4 -22 -10 -19 -5 3 -10 1 -10 -4 0 -6 4 -11 10
-11 5 0 12 -11 16 -25 3 -14 10 -22 15 -19 5 3 19 7 30 9 12 3 24 6 26 9 9 8
-13 60 -26 64 -10 3 -11 0 -2 -17 12 -22 7 -41 -10 -41 -5 0 -9 7 -9 15 0 8
-4 15 -10 15 -5 0 -10 7 -10 16 0 8 5 12 10 9 6 -3 10 -2 10 3 0 6 -7 12 -15
16 -11 4 -15 -2 -15 -20z"></path>
<path d="M5001 2296 l-23 -24 23 -31 c13 -18 33 -34 45 -37 29 -7 73 22 81 54
14 56 -82 85 -126 38z m92 -33 c7 -35 2 -43 -28 -43 -30 0 -37 12 -29 45 9 36
50 35 57 -2z"></path>
<path d="M1739 2308 c0 -1 -1 -35 -2 -75 -2 -69 -4 -74 -41 -112 -22 -22 -43
-38 -47 -36 -7 5 -23 -25 -16 -31 2 -2 31 23 65 54 61 57 62 58 64 115 0 31 1
62 2 69 1 10 -23 26 -25 16z"></path>
<path d="M1895 2288 c-11 -6 -27 -14 -35 -18 -19 -9 -25 -39 -11 -53 8 -8 14
-7 23 4 7 8 22 22 32 29 18 14 19 13 12 -12 -5 -21 -3 -28 8 -28 23 0 29 36
10 65 -9 14 -17 25 -18 24 0 0 -10 -5 -21 -11z"></path>
<path d="M4798 2276 c-10 -7 -18 -16 -18 -19 0 -9 33 5 48 20 19 18 -6 17 -30
-1z"></path>
<path d="M5275 2275 c-3 -8 -7 -22 -9 -29 -6 -19 -68 -31 -93 -17 -16 8 -24 5
-45 -20 -30 -34 -79 -39 -116 -13 -27 19 -27 19 -35 -23 -5 -25 -3 -33 8 -33
8 0 15 -7 15 -15 0 -8 5 -15 10 -15 6 0 10 5 10 10 0 6 10 10 23 8 12 -1 46 2
75 6 41 7 52 13 52 27 0 10 5 21 10 24 6 3 10 -3 10 -15 0 -22 6 -22 66 1 22
8 44 55 44 95 0 27 -18 33 -25 9z"></path>
<path d="M2166 2250 c-28 -33 -31 -47 -17 -69 7 -10 15 -11 37 -3 18 6 22 11
12 11 -11 1 -19 10 -19 21 -1 11 -2 26 -3 33 -1 6 5 12 12 12 6 0 12 4 13 8 2
20 -10 16 -35 -13z"></path>
<path d="M1981 2244 c-26 -33 -26 -35 4 -68 32 -35 67 -34 99 5 32 38 32 47 1
61 -14 6 -25 15 -25 20 0 4 -13 8 -29 8 -20 0 -36 -9 -50 -26z m77 -25 c22
-35 -25 -68 -55 -38 -14 14 -6 39 13 39 8 0 14 5 14 10 0 17 14 11 28 -11z"></path>
<path d="M2276 2241 c-8 -13 9 -22 26 -16 11 5 15 -3 14 -32 -1 -21 4 -39 9
-40 6 -2 10 18 10 44 0 43 -2 47 -27 50 -14 2 -29 -1 -32 -6z"></path>
<path d="M4760 2226 c0 -16 6 -26 15 -26 8 0 15 5 15 11 0 6 -7 17 -15 25 -13
14 -15 13 -15 -10z"></path>
<path d="M1646 2231 c-11 -18 -19 -121 -9 -121 6 0 13 19 16 43 3 23 9 52 13
65 6 21 -9 32 -20 13z"></path>
<path d="M2205 2229 c-4 -6 -5 -13 -2 -16 7 -7 27 6 27 18 0 12 -17 12 -25 -2z"></path>
<path d="M1806 2203 c-12 -31 -5 -61 18 -76 31 -20 81 -26 81 -9 0 6 4 11 10
10 5 -2 8 -10 7 -19 -2 -13 10 -18 55 -25 32 -4 70 -7 86 -5 15 1 27 -2 27 -7
0 -5 33 -14 73 -21 39 -7 80 -17 90 -22 12 -7 17 -5 17 5 0 8 -19 18 -44 25
-25 6 -48 15 -51 21 -3 5 -15 10 -25 10 -15 0 -21 9 -26 40 -4 22 -8 40 -10
40 -2 0 -13 -9 -24 -20 -29 -29 -81 -26 -119 6 -24 20 -34 23 -50 15 -31 -17
-51 -13 -81 18 -22 22 -30 25 -34 14z"></path>
<path d="M5320 2146 c-6 -8 -32 -25 -56 -36 -24 -12 -44 -28 -44 -35 0 -8 -9
-11 -25 -7 -24 4 -35 -11 -16 -23 31 -19 161 62 161 100 0 19 -4 19 -20 1z"></path>
<path d="M2160 2130 c0 -5 5 -10 10 -10 6 0 10 5 10 10 0 6 -4 10 -10 10 -5 0
-10 -4 -10 -10z"></path>
<path d="M4870 2130 c0 -5 4 -10 9 -10 6 0 13 5 16 10 3 6 -1 10 -9 10 -9 0
-16 -4 -16 -10z"></path>
<path d="M4913 2116 c-48 -24 -57 -42 -15 -32 15 4 39 10 55 13 29 6 34 15 15
31 -9 7 -26 3 -55 -12z"></path>
<path d="M2205 2110 c-7 -12 2 -30 16 -30 12 0 12 27 0 35 -5 3 -12 1 -16 -5z"></path>
<path d="M1773 2068 c20 -49 117 -89 117 -48 0 6 -17 18 -37 27 -21 8 -51 24
-66 35 l-28 20 14 -34z"></path>
<path d="M4644 2045 c-9 -14 -13 -29 -9 -33 7 -7 45 34 45 49 0 18 -20 9 -36
-16z"></path>
<path d="M5364 2050 c3 -8 9 -23 12 -32 4 -10 10 -18 15 -18 14 0 10 13 -12
40 -11 14 -18 18 -15 10z"></path>
<path d="M5113 2038 c2 -7 12 -13 22 -13 10 0 20 6 23 13 2 7 -6 12 -23 12
-17 0 -25 -5 -22 -12z"></path>
<path d="M5050 2025 c0 -21 30 -31 40 -14 11 17 3 29 -21 29 -10 0 -19 -7 -19
-15z"></path>
<path d="M1610 2020 c0 -5 5 -10 10 -10 6 0 10 5 10 10 0 6 -4 10 -10 10 -5 0
-10 -4 -10 -10z"></path>
<path d="M1913 2013 c-7 -2 -13 -11 -13 -20 0 -20 34 -12 38 10 3 17 -3 20
-25 10z"></path>
<path d="M2430 2014 c0 -3 9 -17 19 -30 12 -16 22 -21 26 -14 4 6 -1 20 -11
31 -17 18 -34 25 -34 13z"></path>
<path d="M4965 2013 c-11 -3 -26 -10 -33 -16 -11 -8 -10 -12 3 -20 11 -6 22
-4 33 7 12 10 22 12 32 6 17 -11 30 -4 30 16 0 14 -25 17 -65 7z"></path>
<path d="M1721 1974 c-23 -30 -26 -40 -11 -49 9 -6 44 64 36 72 -2 2 -13 -8
-25 -23z"></path>
<path d="M5161 1977 c-1 -28 0 -29 42 -22 60 9 77 15 77 26 0 11 -11 11 -67 0
-35 -7 -43 -5 -46 8 -3 9 -5 3 -6 -12z"></path>
<path d="M5070 1940 c0 -5 5 -10 10 -10 6 0 10 5 10 10 0 6 -4 10 -10 10 -5 0
-10 -4 -10 -10z"></path>
<path d="M1826 1931 c-9 -15 35 -31 85 -31 38 0 52 13 25 23 -34 13 -104 18
-110 8z"></path>
<path d="M5336 1901 c-3 -4 -56 -9 -118 -10 -109 -1 -191 -18 -230 -47 -7 -6
-43 -23 -81 -38 -67 -28 -92 -46 -63 -46 17 0 39 -34 29 -44 -3 -3 -19 -6 -35
-6 -41 0 -34 -17 12 -31 30 -9 57 -31 106 -86 58 -64 78 -79 164 -120 110 -51
114 -57 180 -215 17 -42 38 -82 46 -89 25 -20 15 -38 -28 -50 -65 -19 -68 -29
-9 -29 34 0 58 -5 65 -14 15 -20 136 -27 136 -9 0 7 -12 19 -27 25 l-28 11 25
10 c23 8 26 16 30 66 13 189 -25 495 -80 651 -22 61 -75 102 -94 71z m-189
-277 c-3 -3 -12 -4 -19 -1 -8 3 -5 6 6 6 11 1 17 -2 13 -5z m124 -14 c80 -14
87 -18 98 -58 8 -28 7 -32 -9 -32 -10 0 -21 4 -24 9 -3 5 -19 11 -34 13 -22 3
-29 0 -28 -11 1 -10 -7 -16 -19 -16 -11 -1 -26 -4 -33 -9 -9 -5 -15 -1 -19 13
-4 16 -9 19 -18 11 -16 -13 -26 0 -20 28 2 13 -3 22 -16 25 -10 3 -17 1 -13
-4 3 -5 -2 -9 -10 -9 -10 0 -13 6 -10 15 4 8 17 15 30 15 15 0 24 6 24 16 0
10 6 14 18 10 9 -3 46 -10 83 -16z m-261 -10 c0 -5 -2 -10 -4 -10 -3 0 -8 5
-11 10 -3 6 -1 10 4 10 6 0 11 -4 11 -10z m90 -15 c0 -8 -4 -15 -10 -15 -5 0
-10 7 -10 15 0 8 5 15 10 15 6 0 10 -7 10 -15z m265 -185 c-3 -5 -15 -10 -26
-10 -10 0 -19 5 -19 10 0 6 12 10 26 10 14 0 23 -4 19 -10z"></path>
<path d="M5190 1578 c0 -36 4 -35 14 5 4 16 2 27 -4 27 -5 0 -10 -14 -10 -32z"></path>
<path d="M5220 1575 c0 -28 21 -33 40 -11 6 8 19 17 28 19 9 2 5 3 -10 2 -16
-1 -28 2 -28 7 0 4 -7 8 -15 8 -9 0 -15 -9 -15 -25z"></path>
<path d="M2480 1880 c0 -5 5 -10 10 -10 6 0 10 5 10 10 0 6 -4 10 -10 10 -5 0
-10 -4 -10 -10z"></path>
<path d="M1744 1873 c-38 -7 -54 -38 -73 -139 -26 -136 -34 -212 -36 -329 -1
-55 -5 -153 -10 -217 l-8 -118 44 -20 44 -20 -35 3 -35 2 -6 -65 c-3 -36 -4
-67 -2 -69 7 -10 15 10 20 49 5 33 11 43 32 51 14 5 33 13 42 18 8 5 46 12 83
16 44 5 63 11 55 16 -8 5 -23 9 -35 9 -11 0 -28 6 -38 13 -17 12 -16 16 13 72
17 33 47 97 67 142 l37 82 84 42 c94 45 145 86 199 160 20 27 43 49 53 49 9 0
27 8 40 17 23 16 23 17 5 24 -10 4 -37 5 -60 2 -38 -5 -43 -3 -73 36 -19 23
-55 53 -82 66 -66 34 -276 115 -291 114 -7 -1 -23 -4 -34 -6z m214 -307 c-15
-11 -15 -16 -4 -38 14 -27 3 -64 -16 -52 -6 4 -14 1 -18 -6 -10 -17 -58 -19
-71 -4 -7 8 -21 9 -47 3 -54 -12 -61 -11 -57 10 10 55 40 69 195 94 14 2 27 5
30 5 3 1 -3 -4 -12 -12z m39 -57 c1 -19 -1 -25 -4 -14 -3 11 -9 24 -14 30 -13
13 -11 27 4 23 6 -3 13 -20 14 -39z m43 32 c0 -6 -4 -13 -10 -16 -5 -3 -10 1
-10 9 0 9 5 16 10 16 6 0 10 -4 10 -9z m-245 -191 c17 -7 14 -9 -13 -9 -20 -1
-31 3 -27 9 7 12 13 12 40 0z"></path>
<path d="M1917 1553 c-2 -5 0 -21 4 -38 7 -29 7 -29 8 8 1 35 -3 46 -12 30z"></path>
<path d="M1865 1540 c-24 -5 -27 -7 -12 -13 10 -4 16 -11 12 -16 -8 -14 15
-25 27 -13 5 5 8 18 6 29 -2 15 -9 17 -33 13z"></path>
<path d="M1805 1520 c3 -5 11 -10 16 -10 6 0 7 5 4 10 -3 6 -11 10 -16 10 -6
0 -7 -4 -4 -10z"></path>
<path d="M2170 1870 c0 -5 7 -10 15 -10 8 0 15 5 15 10 0 6 -7 10 -15 10 -8 0
-15 -4 -15 -10z"></path>
<path d="M4687 1823 c2 -10 16 -31 29 -48 l25 -30 -21 43 c-23 45 -41 64 -33
35z"></path>
<path d="M1871 44 c0 -11 3 -14 6 -6 3 7 2 16 -1 19 -3 4 -6 -2 -5 -13z"></path>
<path d="M1900 35 c-18 -21 -3 -32 16 -13 10 9 12 18 6 22 -5 3 -15 -1 -22 -9z"></path>
<path d="M3826 30 c-13 -4 -16 -9 -9 -13 7 -4 14 -3 18 2 3 6 12 8 20 4 8 -3
15 -3 15 0 0 10 -25 14 -44 7z"></path>
<path d="M4300 25 c-14 -8 -20 -14 -14 -15 5 0 19 7 30 15 24 18 16 19 -16 0z"></path>
<path d="M4980 30 c0 -5 5 -10 11 -10 5 0 7 5 4 10 -3 6 -8 10 -11 10 -2 0 -4
-4 -4 -10z"></path>
<path d="M2600 21 c0 -6 3 -11 8 -12 4 0 26 -2 50 -4 23 -2 42 -1 42 4 0 4
-12 7 -27 8 -16 0 -38 3 -50 7 -14 5 -23 3 -23 -3z"></path>
<path d="M4887 19 c7 -7 15 -10 18 -7 3 3 -2 9 -12 12 -14 6 -15 5 -6 -5z"></path>
<path d="M4657 13 c-3 -5 5 -8 18 -8 13 0 21 3 18 7 -6 10 -30 10 -36 1z"></path>
</g>
</svg>