 <svg version="1.0" xmlns="http://www.w3.org/2000/svg" width="700.000000pt" height="525.000000pt" viewBox="0 0 700.000000 525.000000" preserveAspectRatio="xMidYMid meet">
<metadata>
Created by potrace 1.12, written by Peter Selinger 2001-2015
</metadata>
<g transform="translate(0.000000,525.000000) scale(0.100000,-0.100000)" fill="#000000" stroke="none">
<path d="M6765 5050 c-11 -5 -43 -6 -71 -3 -46 5 -52 3 -67 -21 -12 -18 -26
-26 -46 -26 -16 0 -31 4 -33 8 -1 5 -37 12 -79 15 l-76 6 1 -42 c1 -39 -1 -42
-27 -45 -22 -3 -30 1 -34 17 -6 25 -42 38 -53 20 -5 -6 -6 -18 -3 -26 3 -7 0
-13 -6 -13 -6 0 -11 -5 -11 -11 0 -6 8 -8 19 -4 25 8 46 -21 46 -64 0 -43 -10
-53 -41 -39 -25 12 -48 65 -39 90 4 10 -1 17 -15 21 -19 5 -20 10 -14 43 l7
37 -79 -8 c-88 -8 -164 -35 -164 -60 0 -8 -7 -18 -15 -21 -8 -3 -19 -23 -25
-44 -18 -67 -31 -70 -162 -34 -15 5 -17 0 -12 -25 5 -26 3 -32 -20 -42 -35
-16 -70 0 -84 40 -10 27 -8 32 9 42 11 5 29 9 41 7 12 -2 23 2 25 8 6 18 -44
71 -74 79 -23 5 -32 1 -53 -23 -33 -38 -54 -44 -77 -23 -23 22 -71 32 -81 17
-4 -6 -23 -20 -43 -30 -37 -19 -37 -19 -73 2 -44 26 -67 27 -108 6 -30 -16
-31 -17 -13 -30 15 -12 17 -18 7 -39 -14 -31 -44 -33 -73 -4 -17 17 -27 19
-65 13 -39 -6 -47 -3 -71 20 -28 28 -52 33 -71 14 -18 -18 -15 -25 13 -32 34
-9 34 -50 0 -72 -25 -16 -28 -16 -73 9 -35 19 -48 33 -50 52 -4 30 -23 41 -49
27 -22 -12 -44 -2 -86 36 -21 20 -30 23 -39 14 -9 -9 -9 -18 0 -37 7 -15 10
-31 7 -36 -9 -14 -57 -11 -74 5 -22 20 -173 25 -195 7 -11 -10 -31 -12 -65 -7
-44 6 -52 4 -75 -19 -32 -31 -46 -31 -76 0 -25 27 -50 33 -50 12 0 -7 -6 -21
-13 -31 -13 -18 -16 -18 -81 4 -37 12 -70 28 -73 36 -7 18 -43 18 -43 0 0 -8
12 -23 27 -34 29 -21 24 -42 -11 -42 -13 0 -45 -9 -70 -21 -39 -17 -51 -29
-66 -65 -21 -49 -51 -59 -72 -24 -8 12 -24 20 -40 20 -16 0 -42 13 -63 31 -44
39 -82 35 -131 -14 -40 -38 -41 -43 -13 -50 19 -5 21 -11 15 -38 -3 -18 -10
-36 -16 -39 -5 -3 -5 -21 2 -45 6 -22 11 -56 12 -75 0 -19 5 -38 9 -41 5 -4
-7 -16 -27 -28 -21 -14 -36 -31 -36 -42 0 -11 -7 -22 -15 -25 -9 -4 -15 -19
-15 -35 0 -24 -4 -29 -25 -29 -14 0 -25 -4 -25 -10 0 -5 12 -10 28 -10 37 0
232 -34 312 -55 87 -22 247 -99 346 -167 60 -41 88 -54 106 -51 15 3 29 -2 37
-11 12 -14 10 -16 -9 -16 -16 0 2 -20 76 -82 53 -46 142 -127 198 -181 96 -93
103 -98 136 -93 19 3 63 8 98 12 38 4 62 11 61 18 -1 6 -1 20 0 31 2 19 3 18
11 -2 12 -29 34 -31 25 -3 -10 31 2 40 35 28 38 -13 39 -35 3 -44 -16 -4 -37
-13 -48 -20 -11 -7 -62 -19 -114 -26 -87 -13 -93 -15 -77 -30 9 -9 16 -19 16
-22 0 -3 -26 -6 -59 -6 -51 0 -63 4 -101 34 -26 20 -50 32 -61 29 -10 -3 -30
4 -45 16 -15 12 -33 21 -40 21 -8 0 -16 11 -20 25 -3 14 -12 25 -20 25 -8 0
-14 5 -14 11 0 20 -29 39 -59 39 -24 0 -31 4 -31 19 0 12 -14 23 -43 35 -48
18 -81 21 -72 6 3 -5 2 -10 -4 -10 -5 0 -11 10 -13 23 -2 16 -10 22 -28 22
-19 0 -26 6 -28 24 -3 17 -6 20 -12 11 -6 -10 -15 -10 -37 -2 -23 7 -32 7 -39
-4 -8 -13 -16 -13 -59 0 -78 22 -95 25 -89 15 3 -5 1 -9 -5 -9 -5 0 -11 5 -13
12 -3 7 -32 11 -88 10 -81 -1 -84 -2 -111 -34 -23 -28 -28 -31 -34 -16 -6 15
-9 16 -22 3 -19 -19 -82 -20 -89 -1 -6 15 -74 18 -74 4 0 -4 -8 -8 -18 -8 -10
0 -23 -5 -29 -11 -6 -6 -17 -8 -24 -4 -7 5 -25 9 -41 10 -22 2 -28 -2 -28 -16
0 -12 -7 -19 -20 -19 -10 0 -53 -5 -93 -11 -66 -10 -74 -13 -70 -30 5 -16 0
-19 -31 -19 -26 0 -36 -4 -36 -16 0 -12 -6 -15 -25 -10 -18 5 -25 2 -25 -8 0
-9 -16 -16 -45 -20 -48 -8 -71 -26 -33 -26 13 0 29 -4 37 -9 11 -7 10 -13 -8
-32 -12 -13 -24 -34 -27 -46 -4 -13 -11 -23 -18 -23 -6 0 -5 -4 3 -9 10 -7 1
-11 -30 -14 -89 -11 -296 -29 -354 -32 -33 -2 -62 -4 -65 -5 -3 -1 -66 -2
-141 -3 -143 -1 -176 6 -235 50 -17 13 -38 23 -47 23 -10 0 -17 7 -17 16 0 30
-53 69 -88 66 -18 -2 -32 -7 -32 -13 0 -5 -11 -9 -25 -9 -19 0 -25 -5 -26 -22
-1 -29 -8 -4 -39 135 -38 168 -32 99 7 -96 21 -102 35 -188 33 -190 -3 -3 -25
-8 -49 -12 -31 -5 -42 -4 -37 4 4 6 12 8 18 5 8 -5 9 -1 4 11 -3 10 -14 47
-23 82 -20 82 -27 77 -9 -8 l13 -64 -48 -3 -47 -3 1 -47 2 -47 -43 -9 c-33 -8
-41 -14 -36 -25 3 -9 7 -21 7 -28 0 -7 3 -11 7 -10 10 3 137 -73 151 -90 7 -8
15 -31 19 -51 l7 -37 12 30 c14 35 7 83 -20 137 -10 20 -19 44 -19 51 0 21 81
30 117 13 15 -8 60 -17 98 -20 l70 -5 -55 13 c-83 21 -17 18 78 -3 45 -10 82
-14 82 -9 0 4 -4 8 -8 8 -5 0 -51 9 -103 20 -52 10 -130 22 -174 25 -78 6
-103 14 -92 32 3 5 104 10 224 11 120 1 256 4 303 7 102 7 1077 48 1630 70
217 8 489 20 604 25 172 8 212 7 225 -3 26 -22 99 -48 106 -37 3 6 2 10 -2 10
-5 0 -18 6 -28 14 -16 12 -12 12 31 5 63 -10 163 -10 189 1 13 5 26 3 36 -6 9
-8 42 -19 73 -25 53 -9 60 -9 80 10 16 15 25 17 40 9 13 -7 36 -7 77 1 58 12
144 7 164 -9 6 -5 24 -10 40 -13 20 -3 12 -5 -25 -7 -30 -1 -102 -5 -160 -9
l-105 -6 90 -49 c65 -36 115 -73 180 -137 66 -64 94 -85 105 -80 8 5 43 11 78
15 56 5 62 4 62 -13 0 -34 24 -43 53 -21 21 17 24 26 20 59 -3 21 0 47 6 58
15 29 -16 55 -60 52 -55 -4 -89 0 -89 11 0 6 30 10 69 10 71 0 85 7 86 42 0
23 20 23 21 0 1 -9 2 -22 3 -29 1 -13 82 -24 196 -25 86 -1 105 -6 84 -19 -8
-5 -37 -6 -66 -2 -28 3 -90 2 -137 -2 -83 -7 -86 -8 -79 -28 4 -12 8 -35 9
-52 1 -28 4 -30 35 -27 18 1 38 7 44 12 15 13 123 22 129 11 7 -11 -30 -36
-66 -45 -41 -10 -34 -23 14 -29 24 -3 44 -11 46 -16 5 -16 16 -14 56 10 30 18
34 24 26 40 -10 17 -7 19 21 19 18 0 37 -7 43 -15 9 -13 24 -13 101 -4 50 6
111 9 138 6 l47 -6 0 39 c0 29 4 40 15 40 10 0 15 -10 15 -30 0 -35 9 -37 70
-15 50 18 80 19 80 4 0 -20 58 -69 83 -69 14 0 41 7 62 16 24 10 51 13 74 9
25 -4 42 -1 56 9 11 9 29 16 39 16 18 0 18 -1 4 -12 -8 -7 -18 -27 -21 -45 -5
-27 -3 -32 18 -37 13 -3 42 2 69 14 l46 19 0 156 0 155 -150 0 c-93 0 -150 4
-150 10 0 6 10 10 23 11 12 0 74 2 137 3 63 2 121 4 128 5 9 1 12 160 12 758
0 634 -2 754 -13 739 -10 -14 -21 -17 -43 -13 -16 3 -51 10 -77 15 -62 12 -76
25 -53 51 17 19 17 20 -3 30 -22 12 -19 12 -46 1z m-787 -172 c-2 -6 -10 -14
-16 -16 -7 -2 -10 2 -6 12 7 18 28 22 22 4z m527 2 c9 -15 -14 -40 -36 -40
-22 0 -23 4 -9 31 12 21 35 25 45 9z m-1058 -83 c1 -17 -3 -27 -12 -27 -17 0
-34 30 -28 48 9 23 37 8 40 -21z m-773 -1081 c32 -8 64 -20 72 -27 11 -12 -3
-14 -92 -13 -58 1 -108 4 -111 8 -4 3 -19 6 -34 6 -34 0 -80 20 -73 31 8 14
173 10 238 -5z m342 -73 c21 -27 17 -36 -13 -30 -16 2 -37 1 -48 -3 -21 -7
-75 6 -75 19 0 30 115 41 136 14z m-3309 -145 c-3 -7 -5 -2 -5 12 0 14 2 19 5
13 2 -7 2 -19 0 -25z m4691 -31 c4 -20 -21 -32 -44 -23 -15 6 -15 8 1 26 21
23 38 21 43 -3z m-4681 -9 c-3 -8 -6 -5 -6 6 -1 11 2 17 5 13 3 -3 4 -12 1
-19z m1843 15 c-47 -2 -274 -12 -505 -23 -435 -21 -1174 -47 -1282 -46 -33 1
-59 4 -56 9 2 4 88 7 191 7 103 0 266 5 362 10 96 5 256 14 355 19 99 6 304
13 455 17 151 3 277 8 279 10 2 2 68 3 145 2 92 -1 111 -3 56 -5z m2328 -11
c4 -14 7 -13 -73 -18 -33 -3 -67 -5 -75 -6 -61 -5 -94 14 -51 30 33 12 194 7
199 -6z m252 2 c0 -9 -7 -14 -17 -12 -25 5 -28 28 -4 28 12 0 21 -6 21 -16z
m180 -4 c12 -8 11 -10 -7 -10 -13 0 -23 5 -23 10 0 13 11 13 30 0z m140 0 c0
-5 -9 -10 -21 -10 -11 0 -17 5 -14 10 3 6 13 10 21 10 8 0 14 -4 14 -10z m170
-10 c0 -5 -4 -10 -10 -10 -5 0 -10 5 -10 10 0 6 5 10 10 10 6 0 10 -4 10 -10z
m-210 -77 c0 -5 -5 -15 -10 -23 -8 -12 -10 -11 -10 8 0 12 5 22 10 22 6 0 10
-3 10 -7z m0 -58 c20 -24 -3 -40 -53 -40 -41 0 -42 -1 -39 -32 2 -30 0 -33
-27 -33 -37 0 -59 24 -41 45 18 21 3 33 -45 37 -75 6 -41 23 50 26 50 1 97 4
105 6 29 7 38 6 50 -9z"></path>
<path d="M5765 4981 c-7 -12 12 -24 25 -16 11 7 4 25 -10 25 -5 0 -11 -4 -15
-9z"></path>
<path d="M1427 4012 c37 -38 77 -138 124 -311 18 -68 35 -119 37 -113 6 20
-78 296 -111 361 -17 36 -43 72 -57 80 -21 13 -20 11 7 -17z"></path>
<path d="M1621 3824 c0 -11 3 -14 6 -6 3 7 2 16 -1 19 -3 4 -6 -2 -5 -13z"></path>
<path d="M1146 3744 c-4 -14 -5 -28 -3 -31 3 -2 8 8 11 23 4 14 5 28 3 31 -3
2 -8 -8 -11 -23z"></path>
<path d="M4270 3740 c0 -18 82 -100 100 -100 10 0 21 -6 23 -12 4 -10 8 -10
16 2 13 19 11 22 -56 67 -81 54 -83 55 -83 43z"></path>
<path d="M1096 3705 c-3 -9 -6 -22 -5 -28 0 -7 5 -1 10 12 5 13 8 26 5 28 -2
2 -6 -3 -10 -12z"></path>
<path d="M1126 3669 c-8 -42 0 -50 9 -9 4 17 5 34 2 36 -2 3 -7 -10 -11 -27z"></path>
<path d="M1690 3626 c0 -9 7 -12 20 -9 11 3 20 9 20 14 0 5 -9 9 -20 9 -11 0
-20 -6 -20 -14z"></path>
<path d="M1778 3633 c7 -3 16 -2 19 1 4 3 -2 6 -13 5 -11 0 -14 -3 -6 -6z"></path>
<path d="M4490 3598 c41 -45 50 -53 50 -45 0 2 -21 23 -47 47 l-48 45 45 -47z"></path>
<path d="M1410 3577 c0 -2 7 -18 15 -33 33 -64 35 -64 -171 -64 -126 0 -192 4
-207 12 -22 12 -21 12 8 19 19 5 2 7 -45 6 -68 -2 -75 -4 -78 -23 -4 -31 21
-46 75 -42 l48 3 -47 25 c-26 13 -45 26 -43 28 1 2 25 -8 53 -23 48 -25 56
-26 245 -28 107 -1 199 1 203 5 9 10 -23 93 -42 108 -7 7 -14 10 -14 7z"></path>
<path d="M5215 3205 c-38 -13 -55 -22 -36 -19 42 8 142 42 121 43 -8 0 -46
-11 -85 -24z"></path>
<path d="M347 3142 c-17 -18 -23 -42 -11 -42 3 0 14 5 25 11 16 8 26 7 46 -6
13 -9 27 -15 29 -12 10 10 -10 39 -37 52 -35 19 -33 19 -52 -3z"></path>
<path d="M807 3133 c-1 -1 -57 -3 -124 -4 l-122 -2 -16 -31 c-8 -17 -19 -38
-24 -46 -28 -52 -31 -64 -25 -96 7 -39 24 -56 24 -23 0 36 39 87 96 125 52 34
56 36 144 35 63 -1 107 -7 148 -21 31 -11 64 -22 72 -24 31 -8 73 -27 69 -31
-2 -2 -31 3 -64 11 -33 7 -68 14 -78 14 -35 0 15 -37 59 -44 43 -8 110 -43
100 -53 -3 -3 -12 0 -20 7 -9 6 -37 14 -63 16 -26 3 -68 11 -93 19 -56 17
-136 17 -172 -1 -33 -17 -68 -61 -62 -78 3 -7 -8 -27 -23 -43 -16 -17 -27 -36
-25 -43 3 -7 1 -10 -4 -7 -5 3 -18 -22 -29 -56 -10 -34 -22 -66 -26 -70 -3 -5
-3 -25 2 -45 5 -20 8 -50 8 -67 -1 -33 -1 -34 -40 165 -24 122 -70 270 -99
318 -26 43 -56 40 -87 -8 -12 -19 -27 -41 -33 -48 -15 -17 -27 -467 -13 -484
6 -7 13 -26 17 -41 6 -27 9 -28 63 -25 38 2 57 -1 60 -9 3 -7 -2 -13 -11 -13
-8 0 -39 -9 -69 -20 l-53 -20 6 -50 c6 -44 20 -81 20 -52 0 7 8 12 18 12 9 0
40 25 69 57 28 32 54 55 57 52 3 -3 -12 -30 -33 -59 -21 -30 -55 -85 -74 -122
-35 -66 -35 -68 -22 -113 8 -25 17 -51 21 -57 4 -6 22 41 40 105 19 64 45 137
59 163 36 68 34 125 -6 176 -31 39 -32 39 -47 17 -11 -16 -12 -23 -3 -29 8 -4
-4 -11 -30 -18 -24 -6 -45 -9 -47 -7 -6 6 30 68 50 84 18 15 17 18 -27 76 -45
61 -50 78 -39 147 8 48 21 40 30 -17 4 -27 10 -42 17 -38 6 3 7 1 3 -6 -7 -10
-1 -24 39 -98 19 -36 82 -110 87 -103 3 3 2 28 0 55 -4 38 -7 45 -13 30 -6
-17 -8 -17 -8 -3 -1 11 -6 15 -15 12 -14 -6 -53 79 -95 208 l-22 67 23 40 c13
23 29 41 36 41 7 0 11 -4 8 -9 -3 -5 0 -11 7 -14 39 -15 82 -192 92 -376 7
-130 -6 -329 -23 -340 -10 -6 -22 -81 -26 -159 -1 -17 -6 -36 -11 -41 -12 -12
-2 136 14 218 13 63 8 79 -6 24 -68 -256 -66 -246 -47 -260 17 -12 17 -13 -3
-13 -14 0 -26 12 -38 40 -12 27 -23 39 -33 35 -7 -3 -16 -5 -18 -5 -2 0 -4 -5
-4 -11 0 -8 4 -8 14 0 11 9 15 8 20 -5 9 -23 8 -24 -14 -24 -12 0 -20 -7 -20
-16 0 -14 -3 -14 -15 -4 -11 9 -15 9 -15 1 0 -13 -83 -11 -96 2 -4 3 -16 2
-26 -4 -19 -10 -18 -12 12 -30 17 -11 51 -22 76 -26 24 -3 44 -10 44 -14 0 -5
10 -9 23 -9 12 -1 40 -9 62 -20 22 -10 70 -27 108 -37 37 -9 67 -21 67 -25 0
-4 6 -5 14 -2 8 3 17 1 21 -5 3 -6 17 -11 30 -11 13 0 26 -4 30 -9 3 -5 20
-13 38 -16 17 -4 43 -13 57 -20 29 -15 58 -25 64 -22 2 1 13 -6 23 -16 11 -9
23 -14 28 -10 4 5 5 2 0 -6 -6 -11 -3 -13 13 -9 13 4 25 1 30 -8 4 -7 19 -15
32 -18 14 -2 25 -5 25 -6 0 -1 14 -3 31 -5 54 -4 64 -19 19 -27 -94 -19 -107
-20 -101 -9 7 11 -12 14 -71 11 -18 -1 -33 3 -33 9 0 6 7 11 15 11 8 0 15 8
15 18 0 9 -3 13 -8 7 -10 -14 -64 -15 -81 -2 -12 10 -13 9 -6 -3 4 -8 -4 -4
-18 9 -14 13 -37 24 -51 24 -14 0 -27 6 -30 13 -3 8 -12 11 -20 8 -8 -3 -17
-1 -20 5 -12 18 -34 1 -29 -22 l5 -22 -16 23 c-10 12 -22 22 -27 22 -5 0 -23
10 -39 22 -25 18 -33 20 -55 10 -21 -10 -25 -9 -25 4 0 13 -3 14 -13 5 -8 -6
-17 -8 -20 -4 -4 3 1 12 11 19 15 13 15 14 -8 11 -16 -1 -24 3 -22 11 1 8 -2
11 -7 8 -5 -4 -21 -2 -34 3 -27 10 -79 -6 -74 -23 3 -10 137 -56 137 -47 0 3
6 -2 13 -11 15 -19 94 -38 83 -19 -11 18 2 13 25 -10 16 -16 18 -23 8 -35 -13
-16 2 -19 18 -3 8 8 17 7 34 -5 13 -9 31 -16 41 -16 11 0 15 -5 12 -14 -3 -7
2 -16 11 -19 12 -5 14 -1 9 18 -3 14 -4 25 -2 25 2 0 31 -13 63 -30 32 -16 72
-31 88 -32 15 -1 31 -6 34 -12 3 -5 -8 -7 -25 -4 -20 3 -33 0 -36 -9 -3 -7
-14 -13 -25 -13 -15 0 -19 5 -16 20 2 12 -2 23 -11 27 -21 8 -31 -6 -14 -18
12 -9 12 -10 -3 -5 -10 3 -21 6 -23 6 -3 0 -2 5 1 10 3 6 -1 10 -9 10 -8 0
-17 -4 -20 -9 -3 -4 -17 -6 -31 -3 -24 4 -55 -12 -55 -28 0 -5 10 -6 21 -3 18
5 20 3 14 -17 -6 -20 -4 -22 14 -17 19 5 20 3 9 -10 -10 -12 -9 -17 5 -28 9
-6 14 -15 10 -18 -10 -11 -25 -8 -18 3 3 5 -1 10 -9 10 -9 0 -16 -4 -16 -10 0
-5 -6 -10 -14 -10 -14 0 -17 -43 -3 -56 13 -14 27 7 17 27 -13 24 4 26 26 4 9
-8 28 -15 44 -15 16 0 30 -5 32 -11 3 -9 9 -9 26 0 19 10 21 9 15 -6 -3 -10
-8 -21 -10 -25 -5 -9 -53 12 -53 24 0 16 -18 8 -55 -27 -21 -19 -43 -31 -48
-28 -6 3 -1 10 10 14 12 4 24 13 28 19 8 13 -43 3 -64 -14 -11 -8 -13 -8 -7 2
4 6 3 12 -3 12 -5 0 -13 -5 -16 -10 -3 -6 -11 -10 -16 -10 -6 0 -8 3 -6 8 3 4
-12 7 -33 7 -21 0 -36 -3 -33 -7 2 -5 -10 -8 -26 -8 -17 0 -31 5 -31 11 0 8
-5 8 -15 -1 -24 -20 -19 -43 8 -34 30 10 69 6 78 -7 4 -8 8 -8 13 0 7 11 66
11 66 -1 0 -4 15 -7 33 -7 17 0 52 0 77 0 25 0 68 1 95 3 44 3 47 2 23 -7 -23
-9 -28 -17 -28 -44 0 -31 -2 -33 -27 -27 -16 4 -32 14 -37 22 -7 12 -11 9 -21
-15 -12 -28 -17 -31 -62 -30 -26 0 -58 -3 -70 -7 -17 -6 -22 -4 -18 7 4 9 24
14 61 15 74 2 83 10 38 37 -21 13 -43 20 -49 17 -5 -4 -20 -5 -32 -3 -13 1
-23 -2 -23 -8 0 -5 13 -8 28 -6 16 2 35 -1 43 -6 10 -6 3 -9 -23 -10 -21 -1
-43 -2 -50 -3 -6 -1 -12 9 -13 22 -1 12 2 22 7 22 4 0 8 5 8 11 0 8 -5 8 -15
-1 -8 -7 -12 -16 -9 -21 3 -5 0 -9 -5 -9 -6 0 -11 -7 -11 -15 0 -8 -4 -15 -10
-15 -5 0 -10 -9 -10 -20 0 -11 6 -20 14 -20 38 0 27 -40 -11 -43 -24 -1 -48
-33 -33 -42 6 -3 10 1 10 9 0 9 5 16 11 16 5 0 8 -4 5 -9 -8 -13 16 -20 49
-13 24 4 27 2 22 -12 -4 -10 -7 -20 -7 -22 0 -2 -5 -4 -11 -4 -5 0 -7 5 -4 10
3 6 -4 10 -15 10 -16 0 -20 -5 -16 -15 8 -23 -26 -19 -47 5 -9 11 -17 26 -17
32 0 9 -3 9 -12 0 -7 -7 -27 -12 -45 -12 -27 0 -33 -4 -33 -21 0 -18 -2 -20
-16 -8 -12 10 -17 10 -23 1 -4 -7 -25 -13 -47 -15 -30 -2 -48 -11 -73 -36
l-33 -34 -18 23 c-13 17 -19 20 -23 9 -4 -10 -6 -10 -6 -1 -1 6 -5 12 -11 12
-5 0 -9 -17 -8 -37 1 -36 3 -38 32 -37 17 1 33 2 36 4 3 1 19 3 37 5 43 3 66
13 59 24 -3 4 4 17 17 27 12 10 16 12 9 4 -6 -8 -12 -18 -12 -22 0 -11 48 -10
55 2 3 5 37 7 83 4 42 -3 92 -6 110 -5 42 1 42 -17 0 -21 l-33 -3 23 -23 c12
-12 18 -22 13 -22 -5 0 -11 -9 -14 -19 -3 -14 -11 -18 -26 -14 -12 3 -18 10
-14 17 4 6 -1 5 -10 -3 -9 -7 -26 -11 -36 -8 -11 3 -29 -2 -40 -10 -18 -12
-21 -12 -21 1 0 8 5 18 10 21 6 3 10 13 10 21 0 11 -7 13 -28 8 -54 -12 -55
-13 -31 -35 15 -13 18 -19 8 -16 -9 3 -21 1 -26 -4 -5 -5 -38 -11 -73 -13 -52
-4 -69 -1 -85 13 -48 42 -55 37 -55 -43 0 -50 4 -76 13 -80 9 -5 9 -7 0 -12
-10 -4 -13 -95 -13 -405 l0 -399 3500 0 3500 0 0 1083 0 1083 -37 11 -38 10
38 2 37 1 0 334 c0 374 4 354 -74 336 -23 -5 -59 -7 -79 -3 -25 4 -37 2 -37
-6 0 -7 -8 -10 -18 -7 -9 3 -55 8 -102 11 -47 3 -114 8 -150 12 -36 3 -69 6
-73 5 -17 -4 -54 -4 -97 2 -25 3 -76 7 -115 10 -96 5 -421 35 -528 48 -59 7
-94 17 -109 29 -25 22 -38 24 -38 7 -1 -7 -9 3 -20 22 -25 45 -25 38 0 -32 11
-31 17 -64 14 -73 -8 -21 -98 -65 -199 -98 -191 -63 -328 -83 -774 -116 -1002
-75 -1697 -75 -2258 -1 -173 23 -217 36 -253 72 -33 33 -63 114 -58 160 l3 33
170 -1 c1196 -7 1337 -6 1685 10 580 26 942 51 1175 82 61 7 116 14 124 14 8
0 12 3 9 6 -3 3 -70 -2 -149 -11 -79 -9 -156 -14 -171 -11 -15 3 -30 1 -33 -4
-8 -13 -115 -13 -115 0 0 6 -5 10 -11 10 -6 0 -9 -7 -5 -15 4 -12 -4 -15 -42
-14 -36 1 -41 3 -22 8 59 16 -14 24 -224 22 -121 -1 -247 -2 -278 -2 -31 1
-60 -4 -63 -9 -8 -12 -56 -2 -70 15 -12 14 -115 26 -115 14 0 -5 5 -9 10 -9 6
0 10 -4 10 -10 0 -5 -17 -10 -37 -10 -21 0 -80 -3 -130 -6 -76 -4 -93 -8 -93
-21 0 -9 7 -21 17 -28 24 -18 -211 -27 -644 -24 -583 3 -793 10 -793 26 0 7
-8 13 -18 13 -10 0 -22 4 -27 8 -12 10 -75 28 -132 37 -34 5 -45 3 -62 -14
-22 -22 -41 -27 -41 -11 0 15 -32 12 -76 -6 -20 -9 -55 -14 -76 -12 -21 2 -38
2 -38 0 0 -1 9 -20 20 -42 24 -47 24 -50 5 -50 -8 0 -21 10 -28 23 -80 129
-94 148 -115 153 -28 8 -87 -22 -108 -54 -16 -24 -30 -24 -99 1 -35 12 -42 12
-53 0 -22 -23 -120 -1 -362 80 -62 21 -215 49 -223 40z m658 -137 c19 -8 35
-20 35 -26 0 -17 -61 -2 -85 21 -18 17 -18 19 -2 19 10 0 33 -7 52 -14z m3098
-3 c-7 -2 -19 -2 -25 0 -7 3 -2 5 12 5 14 0 19 -2 13 -5z m-190 -10 c-7 -2
-19 -2 -25 0 -7 3 -2 5 12 5 14 0 19 -2 13 -5z m-3506 -27 c3 -3 -12 -6 -35
-6 -24 0 -42 -5 -42 -11 0 -7 10 -9 25 -5 14 4 25 2 25 -4 0 -5 -9 -10 -20
-10 -21 0 -28 -19 -7 -21 6 -1 -6 -7 -28 -14 -36 -12 -37 -14 -12 -14 23 -1
28 -5 25 -23 -4 -29 -58 -45 -75 -22 -10 13 -25 20 -55 23 -8 1 12 71 26 90 6
7 19 17 31 21 22 9 132 6 142 -4z m3116 7 c-7 -2 -19 -2 -25 0 -7 3 -2 5 12 5
14 0 19 -2 13 -5z m-3053 -19 c0 -2 -9 -4 -20 -4 -11 0 -20 4 -20 9 0 5 9 7
20 4 11 -3 20 -7 20 -9z m2843 9 c-7 -2 -21 -2 -30 0 -10 3 -4 5 12 5 17 0 24
-2 18 -5z m-1944 -117 c16 -47 40 -156 35 -156 -2 0 -22 39 -44 87 -22 48 -48
95 -56 104 -15 17 -14 17 20 7 26 -8 38 -19 45 -42z m-939 24 c0 -5 -2 -10 -4
-10 -3 0 -8 5 -11 10 -3 6 -1 10 4 10 6 0 11 -4 11 -10z m816 -85 c51 -51 108
-233 119 -376 l5 -64 -13 65 c-9 52 -16 65 -29 64 -16 -2 -18 8 -18 85 0 75
-4 94 -30 149 -48 102 -61 63 -36 -108 3 -19 -1 -10 -9 20 -8 30 -17 83 -21
118 -6 57 -9 63 -28 60 -20 -3 -21 -8 -19 -83 2 -44 7 -89 12 -100 5 -11 17
-42 26 -70 10 -27 33 -78 52 -113 19 -34 33 -68 31 -74 -4 -12 -78 133 -123
242 -36 86 -42 159 -14 188 26 29 64 28 95 -3z m504 -169 c0 -2 -7 -7 -16 -10
-8 -3 -12 -2 -9 4 6 10 25 14 25 6z m698 -3 c-10 -2 -28 -2 -40 0 -13 2 -5 4
17 4 22 1 32 -1 23 -4z m-729 -103 c1 -44 -3 -88 -8 -98 -5 -10 -11 -78 -13
-150 -2 -124 -9 -161 -21 -109 -9 40 -7 341 2 381 8 31 23 54 37 56 1 0 2 -36
3 -80z m-1234 -22 c105 -27 253 -99 313 -153 38 -35 56 -62 90 -142 23 -55 42
-103 42 -107 0 -4 -15 -5 -32 -2 -18 3 5 -7 50 -21 l84 -27 -6 -30 c-4 -17
-10 -34 -15 -39 -14 -14 -113 22 -136 49 -15 17 -70 40 -200 83 -245 80 -465
162 -465 173 0 17 33 21 74 10 55 -14 58 -8 4 11 l-43 14 28 13 c24 12 30 11
52 -10 20 -19 32 -22 71 -17 26 2 41 2 35 -2 -6 -4 -9 -15 -5 -24 3 -9 10 -15
14 -12 5 3 12 0 16 -6 7 -12 -23 -9 -71 6 -16 5 -17 4 -5 -3 16 -11 456 -162
470 -162 19 0 -103 110 -152 138 -87 50 -287 124 -349 129 -66 6 -105 -12
-152 -71 -25 -33 -29 -34 -60 -24 -45 15 -50 21 -35 52 10 23 17 27 39 22 24
-5 28 -1 39 38 15 53 63 114 103 131 36 15 96 10 202 -17z m692 -111 c42 -43
73 -80 70 -83 -7 -8 -112 73 -157 122 -19 20 -29 33 -21 29 11 -6 12 -1 7 31
l-7 39 16 -30 c9 -16 50 -65 92 -108z m140 41 c-3 -7 -5 -2 -5 12 0 14 2 19 5
13 2 -7 2 -19 0 -25z m-1200 -10 c-3 -7 -5 -2 -5 12 0 14 2 19 5 13 2 -7 2
-19 0 -25z m28 -34 c12 15 13 14 11 -8 -1 -23 -3 -24 -20 -12 -11 7 -22 19
-24 27 -2 8 2 5 9 -5 11 -18 13 -18 24 -2z m1234 -126 c-2 -78 -2 -80 -9 -33
-12 72 -11 115 0 115 6 0 9 -33 9 -82z m-271 -32 c18 -16 31 -18 94 -12 113
10 116 -7 6 -34 -51 -12 -108 -29 -125 -36 l-33 -13 0 97 0 97 19 -40 c10 -22
28 -48 39 -59z m4721 48 c10 -9 -35 -3 -49 6 -11 8 -7 9 15 4 17 -4 32 -8 34
-10z m-4499 -4 c0 -5 -2 -10 -4 -10 -3 0 -8 5 -11 10 -3 6 -1 10 4 10 6 0 11
-4 11 -10z m4557 -6 c-3 -3 -12 -4 -19 -1 -8 3 -5 6 6 6 11 1 17 -2 13 -5z
m182 -10 c8 -8 -115 -2 -139 7 -16 5 5 6 55 2 44 -3 82 -7 84 -9z m94 -14 c-9
-9 -73 -1 -73 9 0 4 18 5 41 3 22 -3 37 -8 32 -12z m-5549 -5 c-7 -16 -24 -21
-24 -6 0 8 7 13 27 20 1 1 0 -6 -3 -14z m5715 -11 c2 -2 -21 -3 -52 -3 -31 1
-54 5 -51 10 4 8 93 1 103 -7z m121 -14 c0 -6 -15 -10 -34 -8 -19 1 -32 6 -30
10 8 12 64 10 64 -2z m-1280 -141 c0 -7 -86 -27 -228 -54 -162 -29 -726 -83
-1267 -120 -749 -51 -1547 -74 -1919 -56 -133 6 -251 14 -264 18 -20 5 -22 10
-16 37 3 17 9 34 13 37 3 4 56 1 116 -7 61 -7 164 -16 230 -19 l120 -7 -45
-24 c-25 -13 -41 -23 -37 -24 4 0 31 12 59 26 51 26 55 26 181 19 93 -5 141
-12 171 -26 49 -22 144 -24 514 -9 773 32 1696 101 2067 155 84 13 103 19 120
39 13 16 41 31 75 39 49 13 58 13 83 -1 15 -9 27 -19 27 -23z m-3955 -70 c-26
-45 -60 -111 -75 -147 l-27 -64 -22 79 c-11 44 -20 90 -20 104 1 13 6 2 11
-26 15 -82 26 -84 68 -12 50 87 101 159 107 154 2 -3 -17 -42 -42 -88z m79 40
c-9 -24 -35 -120 -58 -212 l-43 -169 -29 27 c-16 15 -24 24 -18 21 15 -7 58
88 105 239 43 135 48 149 55 142 2 -2 -3 -24 -12 -48z m393 19 c-3 -8 -6 -5
-6 6 -1 11 2 17 5 13 3 -3 4 -12 1 -19z m-334 -58 c3 -34 2 -47 -3 -35 -8 19
-14 103 -6 94 2 -2 6 -29 9 -59z m-286 13 c-3 -10 -5 -4 -5 12 0 17 2 24 5 18
2 -7 2 -21 0 -30z m244 -158 c-7 -143 -8 -150 -9 -59 -2 93 7 228 14 221 1 -1
-1 -74 -5 -162z m-1441 -31 c0 -2 -9 -4 -20 -4 -11 0 -20 4 -20 9 0 5 9 7 20
4 11 -3 20 -7 20 -9z m1270 -99 c0 -5 -5 -3 -10 5 -5 8 -10 20 -10 25 0 6 5 3
10 -5 5 -8 10 -19 10 -25z m-910 -10 c0 -8 -4 -15 -9 -15 -13 0 -22 16 -14 24
11 11 23 6 23 -9z m343 -72 c-7 -2 -19 -2 -25 0 -7 3 -2 5 12 5 14 0 19 -2 13
-5z m-413 -29 c0 -8 -19 -13 -24 -6 -3 5 1 9 9 9 8 0 15 -2 15 -3z m35 -23
c-3 -6 -11 -11 -16 -11 -5 0 -4 6 3 14 14 16 24 13 13 -3z m118 -11 c-12 -5
-26 -17 -32 -27 -6 -10 -11 -13 -11 -6 0 7 -7 10 -17 6 -10 -4 -14 -2 -10 4 4
6 1 14 -5 17 -7 3 -1 3 14 1 15 -2 30 1 33 6 4 5 16 9 28 8 l22 0 -22 -9z m47
-20 c-6 -11 -13 -20 -16 -20 -2 0 0 9 6 20 6 11 13 20 16 20 2 0 0 -9 -6 -20z
m-174 -5 c-10 -8 -24 -11 -30 -8 -6 4 0 10 14 14 36 10 37 10 16 -6z m339 -5
c-3 -6 4 -10 16 -10 12 0 20 -3 16 -6 -10 -10 -58 5 -52 16 3 6 11 10 16 10 6
0 7 -4 4 -10z m-305 -4 c0 -2 -6 -9 -14 -15 -11 -9 -16 -9 -22 0 -4 7 -3 9 4
5 6 -3 13 -2 17 4 6 10 15 14 15 6z m142 -29 c-7 -8 -10 -17 -7 -21 3 -3 0 -2
-6 3 -8 7 -8 13 2 24 17 18 26 13 11 -6z m153 3 c3 -6 -4 -10 -17 -10 -18 0
-20 2 -8 10 19 12 18 12 25 0z m-98 -6 c-3 -3 -12 -4 -19 -1 -8 3 -5 6 6 6 11
1 17 -2 13 -5z m-187 -14 c0 -5 -5 -10 -11 -10 -5 0 -7 5 -4 10 3 6 8 10 11
10 2 0 4 -4 4 -10z m80 -70 c-19 -13 -30 -13 -30 0 0 6 10 10 23 10 18 0 19
-2 7 -10z m-140 -4 c0 -2 -8 -10 -17 -17 -16 -13 -17 -12 -4 4 13 16 21 21 21
13z m-200 -26 c0 -5 -2 -10 -4 -10 -3 0 -8 5 -11 10 -3 6 -1 10 4 10 6 0 11
-4 11 -10z m353 -35 c4 -8 2 -17 -3 -20 -6 -4 -10 -4 -10 -1 0 2 -3 11 -6 20
-3 9 -2 16 4 16 5 0 12 -7 15 -15z m-291 -115 c30 0 16 -25 -15 -25 -17 -1
-27 5 -31 18 -3 13 0 17 11 13 8 -3 24 -6 35 -6z m108 0 c0 -5 -15 -9 -32 -9
l-33 1 30 8 c17 4 31 8 33 9 1 0 2 -3 2 -9z m65 0 c-3 -5 -14 -10 -23 -9 -14
0 -13 2 3 9 27 11 27 11 20 0z m-115 -80 c0 -5 -4 -10 -9 -10 -15 0 -22 -33
-9 -41 6 -4 16 -5 20 -3 4 3 8 -4 8 -16 0 -24 -26 -38 -43 -21 -8 8 -8 11 1
11 7 0 12 5 12 11 0 7 -9 9 -21 6 -17 -4 -19 -3 -10 6 16 16 14 27 -5 27 -8 0
-12 5 -9 10 4 6 11 8 16 5 5 -4 9 1 9 9 0 9 9 16 20 16 11 0 20 -4 20 -10z
m-205 -40 c3 -5 1 -10 -5 -10 -6 0 -9 -4 -6 -8 2 -4 0 -14 -5 -22 -7 -12 -10
-11 -15 8 -4 12 -11 22 -18 23 -6 0 -2 4 9 9 27 12 33 12 40 0z m-70 -20 c-3
-5 -11 -10 -16 -10 -6 0 -7 5 -4 10 3 6 11 10 16 10 6 0 7 -4 4 -10z m125 -16
c0 -8 -5 -12 -10 -9 -6 4 -8 11 -5 16 9 14 15 11 15 -7z m-245 -3 c3 -6 -4
-15 -15 -21 -22 -12 -23 -10 -14 14 7 18 20 21 29 7z m265 -155 c0 -2 -9 -6
-20 -9 -11 -3 -20 -1 -20 4 0 5 9 9 20 9 11 0 20 -2 20 -4z m-210 -170 c0 -3
-4 -8 -10 -11 -5 -3 -10 -1 -10 4 0 6 5 11 10 11 6 0 10 -2 10 -4z"></path>
<path d="M691 2884 c0 -11 3 -14 6 -6 3 7 2 16 -1 19 -3 4 -6 -2 -5 -13z"></path>
<path d="M1625 2350 c10 -11 20 -20 23 -20 3 0 -3 9 -13 20 -10 11 -20 20 -23
20 -3 0 3 -9 13 -20z"></path>
<path d="M5450 3110 c-25 -11 -39 -19 -32 -19 16 -1 82 26 82 33 0 4 -1 6 -2
5 -2 -1 -23 -9 -48 -19z"></path>
<path d="M5290 3070 c-47 -10 -75 -19 -63 -19 24 -1 164 27 172 34 7 7 -16 4
-109 -15z"></path>
<path d="M310 3064 c0 -11 -5 -25 -12 -32 -9 -9 -9 -12 0 -12 13 0 28 47 18
57 -3 4 -6 -3 -6 -13z"></path>
<path d="M4168 3063 c6 -2 18 -2 25 0 6 3 1 5 -13 5 -14 0 -19 -2 -12 -5z"></path>
<path d="M866 3035 c4 -8 8 -15 10 -15 2 0 4 7 4 15 0 8 -4 15 -10 15 -5 0 -7
-7 -4 -15z"></path>
<path d="M828 3023 c7 -3 16 -2 19 1 4 3 -2 6 -13 5 -11 0 -14 -3 -6 -6z"></path>
<path d="M4818 3023 c7 -3 16 -2 19 1 4 3 -2 6 -13 5 -11 0 -14 -3 -6 -6z"></path>
<path d="M5490 2979 c-41 -17 -300 -68 -427 -84 -340 -43 -1696 -112 -2103
-107 -325 5 -686 25 -854 48 l-50 7 20 -34 c38 -65 79 -77 344 -103 80 -8 242
-20 360 -26 118 -6 280 -15 360 -21 375 -27 717 -21 1325 22 389 27 422 32
666 93 209 52 343 101 382 140 17 17 24 77 10 75 -5 0 -19 -5 -33 -10z m17
-31 c-3 -8 -6 -5 -6 6 -1 11 2 17 5 13 3 -3 4 -12 1 -19z m-3292 -163 c0 -5
-11 -11 -25 -12 l-25 -2 25 9 c22 8 21 9 -12 7 -20 -2 -34 1 -31 6 7 11 68 4
68 -8z m1088 -2 c-7 -2 -21 -2 -30 0 -10 3 -4 5 12 5 17 0 24 -2 18 -5z m-988
-13 c-3 -5 -16 -10 -28 -9 -20 1 -20 2 3 9 14 4 26 8 28 9 2 1 0 -3 -3 -9z
m110 -10 c-3 -5 -12 -10 -18 -10 -7 0 -6 4 3 10 19 12 23 12 15 0z"></path>
<path d="M2798 2953 c12 -2 30 -2 40 0 9 3 -1 5 -23 4 -22 0 -30 -2 -17 -4z"></path>
<path d="M363 2905 c-3 -9 -3 -29 0 -45 9 -40 68 -192 74 -187 2 3 -3 31 -11
63 -8 33 -18 87 -22 122 -5 43 -11 62 -21 62 -7 0 -16 -7 -20 -15z"></path>
<path d="M432 2810 c0 -25 4 -56 8 -70 7 -20 8 -17 8 20 0 25 -4 56 -8 70 -7
20 -8 17 -8 -20z"></path>
<path d="M520 2823 c0 -28 10 -53 21 -53 11 0 1 50 -12 65 -5 5 -9 0 -9 -12z"></path>
<path d="M205 2450 c-3 -5 -1 -10 4 -10 6 0 11 5 11 10 0 6 -2 10 -4 10 -3 0
-8 -4 -11 -10z"></path>
<path d="M115 2440 c3 -5 8 -10 11 -10 2 0 4 5 4 10 0 6 -5 10 -11 10 -5 0 -7
-4 -4 -10z"></path>
<path d="M240 2440 c0 -5 5 -10 10 -10 6 0 10 5 10 10 0 6 -4 10 -10 10 -5 0
-10 -4 -10 -10z"></path>
<path d="M273 2434 c-3 -8 -1 -20 6 -27 8 -8 11 -4 11 16 0 30 -7 35 -17 11z"></path>
<path d="M281 2324 c0 -11 3 -14 6 -6 3 7 2 16 -1 19 -3 4 -6 -2 -5 -13z"></path>
<path d="M102 2309 c3 -8 17 -15 33 -16 31 -2 23 11 -14 22 -17 5 -22 4 -19
-6z"></path>
<path d="M50 2300 c0 -5 5 -10 10 -10 6 0 10 5 10 10 0 6 -4 10 -10 10 -5 0
-10 -4 -10 -10z"></path>
<path d="M190 2300 c0 -5 6 -10 14 -10 8 0 18 5 21 10 3 6 -3 10 -14 10 -12 0
-21 -4 -21 -10z"></path>
<path d="M238 2254 c-3 -2 -50 -6 -104 -8 -55 -2 -107 -4 -116 -5 -13 -1 -18
-9 -18 -28 0 -19 3 -24 11 -16 6 6 38 8 81 5 52 -4 69 -2 64 7 -4 6 -2 11 3
11 6 0 11 -3 11 -7 0 -5 29 -8 65 -8 61 0 65 1 65 23 0 12 -3 22 -7 23 -5 0
-17 2 -29 4 -12 3 -23 2 -26 -1z"></path>
<path d="M116 1881 c-4 -6 -2 -11 4 -11 6 0 18 -7 27 -15 8 -8 19 -12 25 -9 6
4 14 1 18 -7 7 -10 11 -10 24 0 22 19 10 32 -24 26 -25 -4 -28 -2 -23 12 6 15
4 16 -8 6 -11 -9 -19 -9 -26 -2 -8 8 -13 8 -17 0z"></path>
<path d="M230 1876 c0 -2 6 -9 13 -15 10 -8 14 -7 14 4 0 8 -6 15 -14 15 -7 0
-13 -2 -13 -4z"></path>
<path d="M756 1704 c-5 -14 -4 -15 9 -4 17 14 19 20 6 20 -5 0 -12 -7 -15 -16z"></path>
<path d="M285 1630 c-3 -5 1 -10 10 -10 9 0 13 5 10 10 -3 6 -8 10 -10 10 -2
0 -7 -4 -10 -10z"></path>
<path d="M498 1628 c5 -5 16 -8 23 -6 8 3 3 7 -10 11 -17 4 -21 3 -13 -5z"></path>
<path d="M336 1613 c-6 -14 -5 -15 5 -6 7 7 10 15 7 18 -3 3 -9 -2 -12 -12z"></path>
<path d="M28 1613 c7 -3 16 -2 19 1 4 3 -2 6 -13 5 -11 0 -14 -3 -6 -6z"></path>
<path d="M71 1599 c10 -20 29 -26 29 -9 0 6 0 13 0 18 0 4 -9 8 -19 8 -17 1
-18 -2 -10 -17z"></path>
<path d="M238 1602 c-10 -11 -4 -13 30 -9 54 5 62 14 17 19 -23 3 -40 -1 -47
-10z"></path>
<path d="M176 1597 c3 -10 9 -15 12 -12 3 3 0 11 -7 18 -10 9 -11 8 -5 -6z"></path>
<path d="M327 1560 c-9 -11 -12 -20 -7 -20 6 0 13 0 18 0 4 0 7 3 7 8 0 4 4
13 8 20 13 20 -7 14 -26 -8z"></path>
<path d="M523 1573 c-23 -3 -30 -8 -26 -19 6 -16 33 -19 33 -4 0 6 6 10 14 10
8 0 18 5 21 10 3 6 3 9 -2 8 -4 0 -22 -3 -40 -5z"></path>
<path d="M177 1563 c-4 -3 -7 -13 -7 -22 1 -13 3 -13 11 2 11 19 8 33 -4 20z"></path>
<path d="M236 1558 c3 -4 9 -8 15 -8 5 0 9 4 9 8 0 5 -7 9 -15 9 -8 0 -12 -4
-9 -9z"></path>
<path d="M280 1555 c-8 -9 -8 -15 -2 -15 12 0 26 19 19 26 -2 2 -10 -2 -17
-11z"></path>
<path d="M456 1547 c3 -10 9 -15 12 -12 3 3 0 11 -7 18 -10 9 -11 8 -5 -6z"></path>
<path d="M28 1528 c-16 -5 -28 -14 -28 -19 0 -14 13 -10 40 11 28 22 27 23
-12 8z"></path>
<path d="M140 1510 c-13 -9 -13 -10 0 -10 8 0 22 5 30 10 13 9 13 10 0 10 -8
0 -22 -5 -30 -10z"></path>
<path d="M511 1499 c-14 -12 -27 -16 -30 -10 -4 6 -12 7 -21 0 -23 -14 8 -31
32 -18 23 13 39 3 32 -19 -5 -14 -4 -14 4 -3 7 10 7 21 1 32 -6 12 -5 19 4 22
6 2 10 7 7 10 -3 3 -16 -4 -29 -14z"></path>
<path d="M46 1443 c-4 -13 -14 -23 -21 -23 -8 0 -16 -4 -19 -9 -6 -9 14 -8 89
4 47 7 62 18 20 15 -47 -3 -53 -1 -57 18 -4 14 -5 13 -12 -5z"></path>
<path d="M10 1440 c-13 -8 -12 -10 3 -10 9 0 17 5 17 10 0 12 -1 12 -20 0z"></path>
<path d="M290 1442 c0 -10 38 -13 44 -3 3 3 -6 8 -20 9 -13 1 -24 -2 -24 -6z"></path>
<path d="M160 1430 c0 -5 5 -10 10 -10 6 0 10 5 10 10 0 6 -4 10 -10 10 -5 0
-10 -4 -10 -10z"></path>
<path d="M207 1413 c-10 -9 -9 -23 2 -23 5 0 11 7 15 15 5 15 -5 20 -17 8z"></path>
<path d="M260 1400 c0 -13 18 -22 24 -11 3 5 -1 11 -9 15 -8 3 -15 1 -15 -4z"></path>
<path d="M345 1340 c-3 -5 -1 -10 4 -10 6 0 11 5 11 10 0 6 -2 10 -4 10 -3 0
-8 -4 -11 -10z"></path>
<path d="M375 1340 c3 -5 11 -10 16 -10 6 0 7 5 4 10 -3 6 -11 10 -16 10 -6 0
-7 -4 -4 -10z"></path>
<path d="M0 1283 c0 -28 3 -54 8 -56 19 -11 82 -17 82 -7 0 5 -7 10 -15 10 -8
0 -15 4 -15 9 0 12 44 23 48 11 4 -12 42 9 61 34 10 13 16 15 21 6 5 -8 10 -8
14 -2 10 16 -21 22 -34 7 -9 -11 -17 -12 -30 -5 -10 6 -26 7 -36 3 -12 -4 -15
-3 -10 5 4 7 1 12 -8 12 -8 0 -21 7 -29 14 -8 8 -24 14 -36 13 -19 -1 -21 -7
-21 -54z m35 27 c-3 -5 -10 -10 -16 -10 -5 0 -9 5 -9 10 0 6 7 10 16 10 8 0
12 -4 9 -10z m15 -55 c0 -8 -4 -15 -10 -15 -5 0 -7 7 -4 15 4 8 8 15 10 15 2
0 4 -7 4 -15z"></path>
<path d="M208 1333 c7 -3 16 -2 19 1 4 3 -2 6 -13 5 -11 0 -14 -3 -6 -6z"></path>
<path d="M258 1333 c7 -3 16 -2 19 1 4 3 -2 6 -13 5 -11 0 -14 -3 -6 -6z"></path>
<path d="M290 1310 c-12 -7 -12 -11 -2 -20 6 -5 10 -7 7 -4 -3 4 0 13 6 21 13
15 10 16 -11 3z"></path>
<path d="M655 1300 c-3 -5 1 -10 9 -10 9 0 16 5 16 10 0 6 -4 10 -9 10 -6 0
-13 -4 -16 -10z"></path>
<path d="M327 1281 c2 -8 -4 -22 -12 -31 -15 -16 -14 -18 14 -22 39 -6 62 7
32 17 -18 5 -20 9 -10 21 9 11 8 14 -4 14 -8 0 -17 3 -20 8 -2 4 -2 1 0 -7z"></path>
<path d="M176 1257 c-2 -9 0 -30 4 -45 l8 -27 2 25 c1 14 1 32 0 40 -1 10 3 9
14 -5 8 -11 16 -15 16 -8 0 17 39 27 54 14 10 -8 17 -7 27 6 13 16 12 17 -3 4
-15 -11 -18 -11 -18 1 0 10 -14 13 -49 13 -39 0 -51 -4 -55 -18z"></path>
<path d="M147 1183 c-4 -3 -7 -11 -7 -17 0 -6 5 -5 12 2 6 6 9 14 7 17 -3 3
-9 2 -12 -2z"></path>
<path d="M0 1141 c0 -5 6 -11 13 -14 9 -3 8 -8 -3 -22 -8 -10 -11 -16 -5 -13
6 2 25 10 43 17 38 15 41 26 10 35 -33 9 -58 7 -58 -3z"></path>
<path d="M360 1020 c-12 -8 -11 -10 8 -10 12 0 22 5 22 10 0 13 -11 13 -30 0z"></path>
<path d="M113 983 c-7 -3 -13 -10 -13 -17 0 -15 52 -15 57 0 4 13 -25 23 -44
17z"></path>
</g>
</svg>